<?xml version="1.0" encoding="utf-8"?>
<svg xmlns="http://www.w3.org/2000/svg" xmlns:xlink="http://www.w3.org/1999/xlink" style="margin: auto; background: rgb(255, 178, 91); display: block; z-index: 1; position: relative; shape-rendering: auto;" width="1680" height="948" preserveAspectRatio="xMidYMid" viewBox="0 0 1680 948">
<g transform=""><g transform="translate(2136.22 289.217) rotate(23.7191 50 50)">
  <animateTransform attributeName="transform" type="translate" keyTimes="0;1" values="1543.7034455141347 -100;3291.349635047165 1048" dur="20s" repeatCount="indefinite" begin="-19.43347745994972s"></animateTransform>
  <animateTransform attributeName="transform" type="rotate" keyTimes="0;1" begin="-19.43347745994972s" values="0 50 50;69.95965587309247 50 50" dur="20s" repeatCount="indefinite" additive="sum"></animateTransform>
  <path d="M87.422,66.495c-2.009-0.544-4.049-0.97-6.107-1.283c10.617-11.116,15.747-27.37,13.129-42.549 c-5.236,1.77-10.223,4.252-14.824,7.313c-4.13,2.747-7.948,5.961-11.374,9.55C67.425,24.863,61.344,10.451,50.991,0 c-4.015,5.451-7.281,11.444-9.753,17.744c-3.579,9.122-5.501,18.893-5.669,28.691c-4.79-7.979-11.256-14.955-18.858-20.322 c-4.514-3.187-9.431-5.806-14.616-7.72c-3.361,16.717,2.731,35.015,15.445,46.379c0.369,0.33,0.745,0.654,1.126,0.972 c-2.359,0.411-4.689,0.983-6.969,1.714C7.582,68.775,3.634,70.61,0,72.945c8.85,9.963,23.134,14.771,36.208,12.186 c3.524-0.697,7.002-1.919,9.887-4.057c0.073-0.054,0.145-0.111,0.218-0.167c-0.987,5.662-2.714,11.136-5.104,16.221l7.509,2.806 c1.698-5.797,2.631-11.748,2.814-17.669c0.107,0.076,0.215,0.152,0.324,0.225c3.142,2.114,6.863,3.232,10.607,3.796 C76.352,88.379,91.161,82.628,100,71.71C96.061,69.427,91.816,67.684,87.422,66.495z" fill="#f86161" transform="scale(0.8900442883469423)"></path>
</g><g transform="translate(301.84 250.365) rotate(182.719 50 50)">
  <animateTransform attributeName="transform" type="translate" keyTimes="0;1" values="-100 35.40320144628907;1792.9069138241823 1048" dur="20s" repeatCount="indefinite" begin="-16.8984423126518s"></animateTransform>
  <animateTransform attributeName="transform" type="rotate" keyTimes="0;1" begin="-16.8984423126518s" values="0 50 50;860.7169928646133 50 50" dur="20s" repeatCount="indefinite" additive="sum"></animateTransform>
  <path d="M87.422,66.495c-2.009-0.544-4.049-0.97-6.107-1.283c10.617-11.116,15.747-27.37,13.129-42.549 c-5.236,1.77-10.223,4.252-14.824,7.313c-4.13,2.747-7.948,5.961-11.374,9.55C67.425,24.863,61.344,10.451,50.991,0 c-4.015,5.451-7.281,11.444-9.753,17.744c-3.579,9.122-5.501,18.893-5.669,28.691c-4.79-7.979-11.256-14.955-18.858-20.322 c-4.514-3.187-9.431-5.806-14.616-7.72c-3.361,16.717,2.731,35.015,15.445,46.379c0.369,0.33,0.745,0.654,1.126,0.972 c-2.359,0.411-4.689,0.983-6.969,1.714C7.582,68.775,3.634,70.61,0,72.945c8.85,9.963,23.134,14.771,36.208,12.186 c3.524-0.697,7.002-1.919,9.887-4.057c0.073-0.054,0.145-0.111,0.218-0.167c-0.987,5.662-2.714,11.136-5.104,16.221l7.509,2.806 c1.698-5.797,2.631-11.748,2.814-17.669c0.107,0.076,0.215,0.152,0.324,0.225c3.142,2.114,6.863,3.232,10.607,3.796 C76.352,88.379,91.161,82.628,100,71.71C96.061,69.427,91.816,67.684,87.422,66.495z" fill="#ff9f32" transform="scale(0.5793583848193482)"></path>
</g><g transform="translate(1883.79 394.831) rotate(364.321 49.9998 49.9997)">
  <animateTransform attributeName="transform" type="translate" keyTimes="0;1" values="1154.5441131978544 -100;2846.3738381929033 1048" dur="20s" repeatCount="indefinite" begin="-1.2734481741151213s"></animateTransform>
  <animateTransform attributeName="transform" type="rotate" keyTimes="0;1" begin="-1.2734481741151213s" values="0 50 50;845.2189826352023 50 50" dur="20s" repeatCount="indefinite" additive="sum"></animateTransform>
  <path d="M87.422,66.495c-2.009-0.544-4.049-0.97-6.107-1.283c10.617-11.116,15.747-27.37,13.129-42.549 c-5.236,1.77-10.223,4.252-14.824,7.313c-4.13,2.747-7.948,5.961-11.374,9.55C67.425,24.863,61.344,10.451,50.991,0 c-4.015,5.451-7.281,11.444-9.753,17.744c-3.579,9.122-5.501,18.893-5.669,28.691c-4.79-7.979-11.256-14.955-18.858-20.322 c-4.514-3.187-9.431-5.806-14.616-7.72c-3.361,16.717,2.731,35.015,15.445,46.379c0.369,0.33,0.745,0.654,1.126,0.972 c-2.359,0.411-4.689,0.983-6.969,1.714C7.582,68.775,3.634,70.61,0,72.945c8.85,9.963,23.134,14.771,36.208,12.186 c3.524-0.697,7.002-1.919,9.887-4.057c0.073-0.054,0.145-0.111,0.218-0.167c-0.987,5.662-2.714,11.136-5.104,16.221l7.509,2.806 c1.698-5.797,2.631-11.748,2.814-17.669c0.107,0.076,0.215,0.152,0.324,0.225c3.142,2.114,6.863,3.232,10.607,3.796 C76.352,88.379,91.161,82.628,100,71.71C96.061,69.427,91.816,67.684,87.422,66.495z" fill="#ff9f32" transform="scale(0.5767744922083579)"></path>
</g><g transform="translate(1364.58 278.463) rotate(345.364 50.0001 50.0001)">
  <animateTransform attributeName="transform" type="translate" keyTimes="0;1" values="948.1112685341818 -100;2211.4102690668433 1048" dur="20s" repeatCount="indefinite" begin="-19.24611905900568s"></animateTransform>
  <animateTransform attributeName="transform" type="rotate" keyTimes="0;1" begin="-19.24611905900568s" values="0 50 50;1047.6010314630062 50 50" dur="20s" repeatCount="indefinite" additive="sum"></animateTransform>
  <path d="M87.422,66.495c-2.009-0.544-4.049-0.97-6.107-1.283c10.617-11.116,15.747-27.37,13.129-42.549 c-5.236,1.77-10.223,4.252-14.824,7.313c-4.13,2.747-7.948,5.961-11.374,9.55C67.425,24.863,61.344,10.451,50.991,0 c-4.015,5.451-7.281,11.444-9.753,17.744c-3.579,9.122-5.501,18.893-5.669,28.691c-4.79-7.979-11.256-14.955-18.858-20.322 c-4.514-3.187-9.431-5.806-14.616-7.72c-3.361,16.717,2.731,35.015,15.445,46.379c0.369,0.33,0.745,0.654,1.126,0.972 c-2.359,0.411-4.689,0.983-6.969,1.714C7.582,68.775,3.634,70.61,0,72.945c8.85,9.963,23.134,14.771,36.208,12.186 c3.524-0.697,7.002-1.919,9.887-4.057c0.073-0.054,0.145-0.111,0.218-0.167c-0.987,5.662-2.714,11.136-5.104,16.221l7.509,2.806 c1.698-5.797,2.631-11.748,2.814-17.669c0.107,0.076,0.215,0.152,0.324,0.225c3.142,2.114,6.863,3.232,10.607,3.796 C76.352,88.379,91.161,82.628,100,71.71C96.061,69.427,91.816,67.684,87.422,66.495z" fill="#ff9f32" transform="scale(0.6004126501234586)"></path>
</g><g transform="translate(1568.56 828.133) rotate(667.381 50 50)">
  <animateTransform attributeName="transform" type="translate" keyTimes="0;1" values="1123.0165964800735 -100;1780 1268.59705265757" dur="20s" repeatCount="indefinite" begin="-6.215965376777788s"></animateTransform>
  <animateTransform attributeName="transform" type="rotate" keyTimes="0;1" begin="-6.215965376777788s" values="0 50 50;984.1002425879389 50 50" dur="20s" repeatCount="indefinite" additive="sum"></animateTransform>
  <path d="M87.422,66.495c-2.009-0.544-4.049-0.97-6.107-1.283c10.617-11.116,15.747-27.37,13.129-42.549 c-5.236,1.77-10.223,4.252-14.824,7.313c-4.13,2.747-7.948,5.961-11.374,9.55C67.425,24.863,61.344,10.451,50.991,0 c-4.015,5.451-7.281,11.444-9.753,17.744c-3.579,9.122-5.501,18.893-5.669,28.691c-4.79-7.979-11.256-14.955-18.858-20.322 c-4.514-3.187-9.431-5.806-14.616-7.72c-3.361,16.717,2.731,35.015,15.445,46.379c0.369,0.33,0.745,0.654,1.126,0.972 c-2.359,0.411-4.689,0.983-6.969,1.714C7.582,68.775,3.634,70.61,0,72.945c8.85,9.963,23.134,14.771,36.208,12.186 c3.524-0.697,7.002-1.919,9.887-4.057c0.073-0.054,0.145-0.111,0.218-0.167c-0.987,5.662-2.714,11.136-5.104,16.221l7.509,2.806 c1.698-5.797,2.631-11.748,2.814-17.669c0.107,0.076,0.215,0.152,0.324,0.225c3.142,2.114,6.863,3.232,10.607,3.796 C76.352,88.379,91.161,82.628,100,71.71C96.061,69.427,91.816,67.684,87.422,66.495z" fill="#ffc46c" transform="scale(0.5350018029356821)"></path>
</g><g transform="translate(2070.64 606.036) rotate(501.058 50 50)">
  <animateTransform attributeName="transform" type="translate" keyTimes="0;1" values="1072.5863655362396 -100;2695.4050942060503 1048" dur="20s" repeatCount="indefinite" begin="-4.95296955044997s"></animateTransform>
  <animateTransform attributeName="transform" type="rotate" keyTimes="0;1" begin="-4.95296955044997s" values="0 50 50;814.7098367933588 50 50" dur="20s" repeatCount="indefinite" additive="sum"></animateTransform>
  <path d="M87.422,66.495c-2.009-0.544-4.049-0.97-6.107-1.283c10.617-11.116,15.747-27.37,13.129-42.549 c-5.236,1.77-10.223,4.252-14.824,7.313c-4.13,2.747-7.948,5.961-11.374,9.55C67.425,24.863,61.344,10.451,50.991,0 c-4.015,5.451-7.281,11.444-9.753,17.744c-3.579,9.122-5.501,18.893-5.669,28.691c-4.79-7.979-11.256-14.955-18.858-20.322 c-4.514-3.187-9.431-5.806-14.616-7.72c-3.361,16.717,2.731,35.015,15.445,46.379c0.369,0.33,0.745,0.654,1.126,0.972 c-2.359,0.411-4.689,0.983-6.969,1.714C7.582,68.775,3.634,70.61,0,72.945c8.85,9.963,23.134,14.771,36.208,12.186 c3.524-0.697,7.002-1.919,9.887-4.057c0.073-0.054,0.145-0.111,0.218-0.167c-0.987,5.662-2.714,11.136-5.104,16.221l7.509,2.806 c1.698-5.797,2.631-11.748,2.814-17.669c0.107,0.076,0.215,0.152,0.324,0.225c3.142,2.114,6.863,3.232,10.607,3.796 C76.352,88.379,91.161,82.628,100,71.71C96.061,69.427,91.816,67.684,87.422,66.495z" fill="#ffc46c" transform="scale(0.9111351571592053)"></path>
</g><g transform="translate(232.523 231.486) rotate(44.4941 50 50)">
  <animateTransform attributeName="transform" type="translate" keyTimes="0;1" values="-100 74.86315931458005;1780 960.366070448065" dur="20s" repeatCount="indefinite" begin="-16.190178196736817s"></animateTransform>
  <animateTransform attributeName="transform" type="rotate" keyTimes="0;1" begin="-16.190178196736817s" values="0 50 50;251.5580599055267 50 50" dur="20s" repeatCount="indefinite" additive="sum"></animateTransform>
  <path d="M87.422,66.495c-2.009-0.544-4.049-0.97-6.107-1.283c10.617-11.116,15.747-27.37,13.129-42.549 c-5.236,1.77-10.223,4.252-14.824,7.313c-4.13,2.747-7.948,5.961-11.374,9.55C67.425,24.863,61.344,10.451,50.991,0 c-4.015,5.451-7.281,11.444-9.753,17.744c-3.579,9.122-5.501,18.893-5.669,28.691c-4.79-7.979-11.256-14.955-18.858-20.322 c-4.514-3.187-9.431-5.806-14.616-7.72c-3.361,16.717,2.731,35.015,15.445,46.379c0.369,0.33,0.745,0.654,1.126,0.972 c-2.359,0.411-4.689,0.983-6.969,1.714C7.582,68.775,3.634,70.61,0,72.945c8.85,9.963,23.134,14.771,36.208,12.186 c3.524-0.697,7.002-1.919,9.887-4.057c0.073-0.054,0.145-0.111,0.218-0.167c-0.987,5.662-2.714,11.136-5.104,16.221l7.509,2.806 c1.698-5.797,2.631-11.748,2.814-17.669c0.107,0.076,0.215,0.152,0.324,0.225c3.142,2.114,6.863,3.232,10.607,3.796 C76.352,88.379,91.161,82.628,100,71.71C96.061,69.427,91.816,67.684,87.422,66.495z" fill="#ff9f32" transform="scale(0.7004115911152401)"></path>
</g><g transform="translate(1614.68 247.532) rotate(42.0765 50 50)">
  <animateTransform attributeName="transform" type="translate" keyTimes="0;1" values="1422.618305169708 -100;1780 546.6823965553568" dur="20s" repeatCount="indefinite" begin="-3.400854183966289s"></animateTransform>
  <animateTransform attributeName="transform" type="rotate" keyTimes="0;1" begin="-3.400854183966289s" values="0 50 50;78.29532078934002 50 50" dur="20s" repeatCount="indefinite" additive="sum"></animateTransform>
  <path d="M87.422,66.495c-2.009-0.544-4.049-0.97-6.107-1.283c10.617-11.116,15.747-27.37,13.129-42.549 c-5.236,1.77-10.223,4.252-14.824,7.313c-4.13,2.747-7.948,5.961-11.374,9.55C67.425,24.863,61.344,10.451,50.991,0 c-4.015,5.451-7.281,11.444-9.753,17.744c-3.579,9.122-5.501,18.893-5.669,28.691c-4.79-7.979-11.256-14.955-18.858-20.322 c-4.514-3.187-9.431-5.806-14.616-7.72c-3.361,16.717,2.731,35.015,15.445,46.379c0.369,0.33,0.745,0.654,1.126,0.972 c-2.359,0.411-4.689,0.983-6.969,1.714C7.582,68.775,3.634,70.61,0,72.945c8.85,9.963,23.134,14.771,36.208,12.186 c3.524-0.697,7.002-1.919,9.887-4.057c0.073-0.054,0.145-0.111,0.218-0.167c-0.987,5.662-2.714,11.136-5.104,16.221l7.509,2.806 c1.698-5.797,2.631-11.748,2.814-17.669c0.107,0.076,0.215,0.152,0.324,0.225c3.142,2.114,6.863,3.232,10.607,3.796 C76.352,88.379,91.161,82.628,100,71.71C96.061,69.427,91.816,67.684,87.422,66.495z" fill="#ffc46c" transform="scale(0.9573589853916717)"></path>
</g><g transform="translate(1211.25 640.582) rotate(493.859 50 50)">
  <animateTransform attributeName="transform" type="translate" keyTimes="0;1" values="113.41078452851796 -100;1815.214489272064 1048" dur="20s" repeatCount="indefinite" begin="-5.554815735893829s"></animateTransform>
  <animateTransform attributeName="transform" type="rotate" keyTimes="0;1" begin="-5.554815735893829s" values="0 50 50;765.5469190894441 50 50" dur="20s" repeatCount="indefinite" additive="sum"></animateTransform>
  <path d="M87.422,66.495c-2.009-0.544-4.049-0.97-6.107-1.283c10.617-11.116,15.747-27.37,13.129-42.549 c-5.236,1.77-10.223,4.252-14.824,7.313c-4.13,2.747-7.948,5.961-11.374,9.55C67.425,24.863,61.344,10.451,50.991,0 c-4.015,5.451-7.281,11.444-9.753,17.744c-3.579,9.122-5.501,18.893-5.669,28.691c-4.79-7.979-11.256-14.955-18.858-20.322 c-4.514-3.187-9.431-5.806-14.616-7.72c-3.361,16.717,2.731,35.015,15.445,46.379c0.369,0.33,0.745,0.654,1.126,0.972 c-2.359,0.411-4.689,0.983-6.969,1.714C7.582,68.775,3.634,70.61,0,72.945c8.85,9.963,23.134,14.771,36.208,12.186 c3.524-0.697,7.002-1.919,9.887-4.057c0.073-0.054,0.145-0.111,0.218-0.167c-0.987,5.662-2.714,11.136-5.104,16.221l7.509,2.806 c1.698-5.797,2.631-11.748,2.814-17.669c0.107,0.076,0.215,0.152,0.324,0.225c3.142,2.114,6.863,3.232,10.607,3.796 C76.352,88.379,91.161,82.628,100,71.71C96.061,69.427,91.816,67.684,87.422,66.495z" fill="#f86161" transform="scale(1.031049464006245)"></path>
</g><g transform="translate(921.462 172.611) rotate(110.628 50 50)">
  <animateTransform attributeName="transform" type="translate" keyTimes="0;1" values="407.80348173065425 -100;1780 628.2577476642039" dur="20s" repeatCount="indefinite" begin="-0.13935345093401696s"></animateTransform>
  <animateTransform attributeName="transform" type="rotate" keyTimes="0;1" begin="-0.13935345093401696s" values="0 50 50;295.53419773884815 50 50" dur="20s" repeatCount="indefinite" additive="sum"></animateTransform>
  <path d="M87.422,66.495c-2.009-0.544-4.049-0.97-6.107-1.283c10.617-11.116,15.747-27.37,13.129-42.549 c-5.236,1.77-10.223,4.252-14.824,7.313c-4.13,2.747-7.948,5.961-11.374,9.55C67.425,24.863,61.344,10.451,50.991,0 c-4.015,5.451-7.281,11.444-9.753,17.744c-3.579,9.122-5.501,18.893-5.669,28.691c-4.79-7.979-11.256-14.955-18.858-20.322 c-4.514-3.187-9.431-5.806-14.616-7.72c-3.361,16.717,2.731,35.015,15.445,46.379c0.369,0.33,0.745,0.654,1.126,0.972 c-2.359,0.411-4.689,0.983-6.969,1.714C7.582,68.775,3.634,70.61,0,72.945c8.85,9.963,23.134,14.771,36.208,12.186 c3.524-0.697,7.002-1.919,9.887-4.057c0.073-0.054,0.145-0.111,0.218-0.167c-0.987,5.662-2.714,11.136-5.104,16.221l7.509,2.806 c1.698-5.797,2.631-11.748,2.814-17.669c0.107,0.076,0.215,0.152,0.324,0.225c3.142,2.114,6.863,3.232,10.607,3.796 C76.352,88.379,91.161,82.628,100,71.71C96.061,69.427,91.816,67.684,87.422,66.495z" fill="#ff956e" transform="scale(0.8711814534758985)"></path>
</g><g transform="translate(-37.8817 154.164) rotate(35.2716 50 50)">
  <animateTransform attributeName="transform" type="translate" keyTimes="0;1" values="-100 125.58644495105983;1780 990.4812712314463" dur="20s" repeatCount="indefinite" begin="-13.313526449700761s"></animateTransform>
  <animateTransform attributeName="transform" type="rotate" keyTimes="0;1" begin="-13.313526449700761s" values="0 50 50;1067.490841434633 50 50" dur="20s" repeatCount="indefinite" additive="sum"></animateTransform>
  <path d="M87.422,66.495c-2.009-0.544-4.049-0.97-6.107-1.283c10.617-11.116,15.747-27.37,13.129-42.549 c-5.236,1.77-10.223,4.252-14.824,7.313c-4.13,2.747-7.948,5.961-11.374,9.55C67.425,24.863,61.344,10.451,50.991,0 c-4.015,5.451-7.281,11.444-9.753,17.744c-3.579,9.122-5.501,18.893-5.669,28.691c-4.79-7.979-11.256-14.955-18.858-20.322 c-4.514-3.187-9.431-5.806-14.616-7.72c-3.361,16.717,2.731,35.015,15.445,46.379c0.369,0.33,0.745,0.654,1.126,0.972 c-2.359,0.411-4.689,0.983-6.969,1.714C7.582,68.775,3.634,70.61,0,72.945c8.85,9.963,23.134,14.771,36.208,12.186 c3.524-0.697,7.002-1.919,9.887-4.057c0.073-0.054,0.145-0.111,0.218-0.167c-0.987,5.662-2.714,11.136-5.104,16.221l7.509,2.806 c1.698-5.797,2.631-11.748,2.814-17.669c0.107,0.076,0.215,0.152,0.324,0.225c3.142,2.114,6.863,3.232,10.607,3.796 C76.352,88.379,91.161,82.628,100,71.71C96.061,69.427,91.816,67.684,87.422,66.495z" fill="#ffc46c" transform="scale(0.991911199281479)"></path>
</g><g transform="translate(856.371 892.594) rotate(305.358 50 50)">
  <animateTransform attributeName="transform" type="translate" keyTimes="0;1" values="-100 216.2241589425488;1076.1115815320356 1048" dur="20s" repeatCount="indefinite" begin="-8.915964774388623s"></animateTransform>
  <animateTransform attributeName="transform" type="rotate" keyTimes="0;1" begin="-8.915964774388623s" values="0 50 50;375.5187215335635 50 50" dur="20s" repeatCount="indefinite" additive="sum"></animateTransform>
  <path d="M87.422,66.495c-2.009-0.544-4.049-0.97-6.107-1.283c10.617-11.116,15.747-27.37,13.129-42.549 c-5.236,1.77-10.223,4.252-14.824,7.313c-4.13,2.747-7.948,5.961-11.374,9.55C67.425,24.863,61.344,10.451,50.991,0 c-4.015,5.451-7.281,11.444-9.753,17.744c-3.579,9.122-5.501,18.893-5.669,28.691c-4.79-7.979-11.256-14.955-18.858-20.322 c-4.514-3.187-9.431-5.806-14.616-7.72c-3.361,16.717,2.731,35.015,15.445,46.379c0.369,0.33,0.745,0.654,1.126,0.972 c-2.359,0.411-4.689,0.983-6.969,1.714C7.582,68.775,3.634,70.61,0,72.945c8.85,9.963,23.134,14.771,36.208,12.186 c3.524-0.697,7.002-1.919,9.887-4.057c0.073-0.054,0.145-0.111,0.218-0.167c-0.987,5.662-2.714,11.136-5.104,16.221l7.509,2.806 c1.698-5.797,2.631-11.748,2.814-17.669c0.107,0.076,0.215,0.152,0.324,0.225c3.142,2.114,6.863,3.232,10.607,3.796 C76.352,88.379,91.161,82.628,100,71.71C96.061,69.427,91.816,67.684,87.422,66.495z" fill="#f86161" transform="scale(1.1141170667102998)"></path>
</g><g transform="translate(338.56 138.233) rotate(210.824 50 50)">
  <animateTransform attributeName="transform" type="translate" keyTimes="0;1" values="2.0879212132745453 -100;1623.4813184558343 1048" dur="20s" repeatCount="indefinite" begin="-16.8030944832785s"></animateTransform>
  <animateTransform attributeName="transform" type="rotate" keyTimes="0;1" begin="-16.8030944832785s" values="0 50 50;1015.9227790708023 50 50" dur="20s" repeatCount="indefinite" additive="sum"></animateTransform>
  <path d="M87.422,66.495c-2.009-0.544-4.049-0.97-6.107-1.283c10.617-11.116,15.747-27.37,13.129-42.549 c-5.236,1.77-10.223,4.252-14.824,7.313c-4.13,2.747-7.948,5.961-11.374,9.55C67.425,24.863,61.344,10.451,50.991,0 c-4.015,5.451-7.281,11.444-9.753,17.744c-3.579,9.122-5.501,18.893-5.669,28.691c-4.79-7.979-11.256-14.955-18.858-20.322 c-4.514-3.187-9.431-5.806-14.616-7.72c-3.361,16.717,2.731,35.015,15.445,46.379c0.369,0.33,0.745,0.654,1.126,0.972 c-2.359,0.411-4.689,0.983-6.969,1.714C7.582,68.775,3.634,70.61,0,72.945c8.85,9.963,23.134,14.771,36.208,12.186 c3.524-0.697,7.002-1.919,9.887-4.057c0.073-0.054,0.145-0.111,0.218-0.167c-0.987,5.662-2.714,11.136-5.104,16.221l7.509,2.806 c1.698-5.797,2.631-11.748,2.814-17.669c0.107,0.076,0.215,0.152,0.324,0.225c3.142,2.114,6.863,3.232,10.607,3.796 C76.352,88.379,91.161,82.628,100,71.71C96.061,69.427,91.816,67.684,87.422,66.495z" fill="#ff9f32" transform="scale(0.7244100316159137)"></path>
</g><g transform="translate(1244.98 -55.8768) rotate(1.38893 50 50)">
  <animateTransform attributeName="transform" type="translate" keyTimes="0;1" values="1183.8262317692813 -100;2774.925383199009 1048" dur="20s" repeatCount="indefinite" begin="-13.421390057029711s"></animateTransform>
  <animateTransform attributeName="transform" type="rotate" keyTimes="0;1" begin="-13.421390057029711s" values="0 50 50;36.13733593710374 50 50" dur="20s" repeatCount="indefinite" additive="sum"></animateTransform>
  <path d="M87.422,66.495c-2.009-0.544-4.049-0.97-6.107-1.283c10.617-11.116,15.747-27.37,13.129-42.549 c-5.236,1.77-10.223,4.252-14.824,7.313c-4.13,2.747-7.948,5.961-11.374,9.55C67.425,24.863,61.344,10.451,50.991,0 c-4.015,5.451-7.281,11.444-9.753,17.744c-3.579,9.122-5.501,18.893-5.669,28.691c-4.79-7.979-11.256-14.955-18.858-20.322 c-4.514-3.187-9.431-5.806-14.616-7.72c-3.361,16.717,2.731,35.015,15.445,46.379c0.369,0.33,0.745,0.654,1.126,0.972 c-2.359,0.411-4.689,0.983-6.969,1.714C7.582,68.775,3.634,70.61,0,72.945c8.85,9.963,23.134,14.771,36.208,12.186 c3.524-0.697,7.002-1.919,9.887-4.057c0.073-0.054,0.145-0.111,0.218-0.167c-0.987,5.662-2.714,11.136-5.104,16.221l7.509,2.806 c1.698-5.797,2.631-11.748,2.814-17.669c0.107,0.076,0.215,0.152,0.324,0.225c3.142,2.114,6.863,3.232,10.607,3.796 C76.352,88.379,91.161,82.628,100,71.71C96.061,69.427,91.816,67.684,87.422,66.495z" fill="#ffc46c" transform="scale(0.6026561356114128)"></path>
</g><g transform="translate(1532.95 443.074) rotate(513.62 50 50)">
  <animateTransform attributeName="transform" type="translate" keyTimes="0;1" values="990.7683720902161 -100;1780 690.5366835389563" dur="20s" repeatCount="indefinite" begin="-6.392058425884921s"></animateTransform>
  <animateTransform attributeName="transform" type="rotate" keyTimes="0;1" begin="-6.392058425884921s" values="0 50 50;747.6613609329897 50 50" dur="20s" repeatCount="indefinite" additive="sum"></animateTransform>
  <path d="M87.422,66.495c-2.009-0.544-4.049-0.97-6.107-1.283c10.617-11.116,15.747-27.37,13.129-42.549 c-5.236,1.77-10.223,4.252-14.824,7.313c-4.13,2.747-7.948,5.961-11.374,9.55C67.425,24.863,61.344,10.451,50.991,0 c-4.015,5.451-7.281,11.444-9.753,17.744c-3.579,9.122-5.501,18.893-5.669,28.691c-4.79-7.979-11.256-14.955-18.858-20.322 c-4.514-3.187-9.431-5.806-14.616-7.72c-3.361,16.717,2.731,35.015,15.445,46.379c0.369,0.33,0.745,0.654,1.126,0.972 c-2.359,0.411-4.689,0.983-6.969,1.714C7.582,68.775,3.634,70.61,0,72.945c8.85,9.963,23.134,14.771,36.208,12.186 c3.524-0.697,7.002-1.919,9.887-4.057c0.073-0.054,0.145-0.111,0.218-0.167c-0.987,5.662-2.714,11.136-5.104,16.221l7.509,2.806 c1.698-5.797,2.631-11.748,2.814-17.669c0.107,0.076,0.215,0.152,0.324,0.225c3.142,2.114,6.863,3.232,10.607,3.796 C76.352,88.379,91.161,82.628,100,71.71C96.061,69.427,91.816,67.684,87.422,66.495z" fill="#ff956e" transform="scale(1.0697452919483055)"></path>
</g><g transform="translate(96.5374 217.28) rotate(160.99 50 50)">
  <animateTransform attributeName="transform" type="translate" keyTimes="0;1" values="-100 70.35441048135714;1207.7600647738752 1048" dur="20s" repeatCount="indefinite" begin="-15.658405259992188s"></animateTransform>
  <animateTransform attributeName="transform" type="rotate" keyTimes="0;1" begin="-15.658405259992188s" values="0 50 50;1071.2292994258435 50 50" dur="20s" repeatCount="indefinite" additive="sum"></animateTransform>
  <path d="M87.422,66.495c-2.009-0.544-4.049-0.97-6.107-1.283c10.617-11.116,15.747-27.37,13.129-42.549 c-5.236,1.77-10.223,4.252-14.824,7.313c-4.13,2.747-7.948,5.961-11.374,9.55C67.425,24.863,61.344,10.451,50.991,0 c-4.015,5.451-7.281,11.444-9.753,17.744c-3.579,9.122-5.501,18.893-5.669,28.691c-4.79-7.979-11.256-14.955-18.858-20.322 c-4.514-3.187-9.431-5.806-14.616-7.72c-3.361,16.717,2.731,35.015,15.445,46.379c0.369,0.33,0.745,0.654,1.126,0.972 c-2.359,0.411-4.689,0.983-6.969,1.714C7.582,68.775,3.634,70.61,0,72.945c8.85,9.963,23.134,14.771,36.208,12.186 c3.524-0.697,7.002-1.919,9.887-4.057c0.073-0.054,0.145-0.111,0.218-0.167c-0.987,5.662-2.714,11.136-5.104,16.221l7.509,2.806 c1.698-5.797,2.631-11.748,2.814-17.669c0.107,0.076,0.215,0.152,0.324,0.225c3.142,2.114,6.863,3.232,10.607,3.796 C76.352,88.379,91.161,82.628,100,71.71C96.061,69.427,91.816,67.684,87.422,66.495z" fill="#ff956e" transform="scale(0.5964035491753109)"></path>
</g><g transform="translate(1525.86 862.709) rotate(220.993 50 50)">
  <animateTransform attributeName="transform" type="translate" keyTimes="0;1" values="-100 362.55108864946084;2128.1848565712794 1048" dur="20s" repeatCount="indefinite" begin="-7.246273492645358s"></animateTransform>
  <animateTransform attributeName="transform" type="rotate" keyTimes="0;1" begin="-7.246273492645358s" values="0 50 50;302.86343536330816 50 50" dur="20s" repeatCount="indefinite" additive="sum"></animateTransform>
  <path d="M87.422,66.495c-2.009-0.544-4.049-0.97-6.107-1.283c10.617-11.116,15.747-27.37,13.129-42.549 c-5.236,1.77-10.223,4.252-14.824,7.313c-4.13,2.747-7.948,5.961-11.374,9.55C67.425,24.863,61.344,10.451,50.991,0 c-4.015,5.451-7.281,11.444-9.753,17.744c-3.579,9.122-5.501,18.893-5.669,28.691c-4.79-7.979-11.256-14.955-18.858-20.322 c-4.514-3.187-9.431-5.806-14.616-7.72c-3.361,16.717,2.731,35.015,15.445,46.379c0.369,0.33,0.745,0.654,1.126,0.972 c-2.359,0.411-4.689,0.983-6.969,1.714C7.582,68.775,3.634,70.61,0,72.945c8.85,9.963,23.134,14.771,36.208,12.186 c3.524-0.697,7.002-1.919,9.887-4.057c0.073-0.054,0.145-0.111,0.218-0.167c-0.987,5.662-2.714,11.136-5.104,16.221l7.509,2.806 c1.698-5.797,2.631-11.748,2.814-17.669c0.107,0.076,0.215,0.152,0.324,0.225c3.142,2.114,6.863,3.232,10.607,3.796 C76.352,88.379,91.161,82.628,100,71.71C96.061,69.427,91.816,67.684,87.422,66.495z" fill="#ffc46c" transform="scale(0.8423459450055276)"></path>
</g><g transform="translate(1366.27 845.318) rotate(103.881 50 50)">
  <animateTransform attributeName="transform" type="translate" keyTimes="0;1" values="-100 238.54271359575424;1856.0518649432117 1048" dur="20s" repeatCount="indefinite" begin="-7.644833454313078s"></animateTransform>
  <animateTransform attributeName="transform" type="rotate" keyTimes="0;1" begin="-7.644833454313078s" values="0 50 50;138.57994987947663 50 50" dur="20s" repeatCount="indefinite" additive="sum"></animateTransform>
  <path d="M87.422,66.495c-2.009-0.544-4.049-0.97-6.107-1.283c10.617-11.116,15.747-27.37,13.129-42.549 c-5.236,1.77-10.223,4.252-14.824,7.313c-4.13,2.747-7.948,5.961-11.374,9.55C67.425,24.863,61.344,10.451,50.991,0 c-4.015,5.451-7.281,11.444-9.753,17.744c-3.579,9.122-5.501,18.893-5.669,28.691c-4.79-7.979-11.256-14.955-18.858-20.322 c-4.514-3.187-9.431-5.806-14.616-7.72c-3.361,16.717,2.731,35.015,15.445,46.379c0.369,0.33,0.745,0.654,1.126,0.972 c-2.359,0.411-4.689,0.983-6.969,1.714C7.582,68.775,3.634,70.61,0,72.945c8.85,9.963,23.134,14.771,36.208,12.186 c3.524-0.697,7.002-1.919,9.887-4.057c0.073-0.054,0.145-0.111,0.218-0.167c-0.987,5.662-2.714,11.136-5.104,16.221l7.509,2.806 c1.698-5.797,2.631-11.748,2.814-17.669c0.107,0.076,0.215,0.152,0.324,0.225c3.142,2.114,6.863,3.232,10.607,3.796 C76.352,88.379,91.161,82.628,100,71.71C96.061,69.427,91.816,67.684,87.422,66.495z" fill="#ff9f32" transform="scale(0.6891514815429862)"></path>
</g><g transform="translate(1086.93 673.528) rotate(466.851 50 50)">
  <animateTransform attributeName="transform" type="translate" keyTimes="0;1" values="-100 142.03901334357283;1923.2073197060045 1048" dur="20s" repeatCount="indefinite" begin="-4.385857356396646s"></animateTransform>
  <animateTransform attributeName="transform" type="rotate" keyTimes="0;1" begin="-4.385857356396646s" values="0 50 50;795.7805358238897 50 50" dur="20s" repeatCount="indefinite" additive="sum"></animateTransform>
  <path d="M87.422,66.495c-2.009-0.544-4.049-0.97-6.107-1.283c10.617-11.116,15.747-27.37,13.129-42.549 c-5.236,1.77-10.223,4.252-14.824,7.313c-4.13,2.747-7.948,5.961-11.374,9.55C67.425,24.863,61.344,10.451,50.991,0 c-4.015,5.451-7.281,11.444-9.753,17.744c-3.579,9.122-5.501,18.893-5.669,28.691c-4.79-7.979-11.256-14.955-18.858-20.322 c-4.514-3.187-9.431-5.806-14.616-7.72c-3.361,16.717,2.731,35.015,15.445,46.379c0.369,0.33,0.745,0.654,1.126,0.972 c-2.359,0.411-4.689,0.983-6.969,1.714C7.582,68.775,3.634,70.61,0,72.945c8.85,9.963,23.134,14.771,36.208,12.186 c3.524-0.697,7.002-1.919,9.887-4.057c0.073-0.054,0.145-0.111,0.218-0.167c-0.987,5.662-2.714,11.136-5.104,16.221l7.509,2.806 c1.698-5.797,2.631-11.748,2.814-17.669c0.107,0.076,0.215,0.152,0.324,0.225c3.142,2.114,6.863,3.232,10.607,3.796 C76.352,88.379,91.161,82.628,100,71.71C96.061,69.427,91.816,67.684,87.422,66.495z" fill="#ffc46c" transform="scale(0.9230056193857034)"></path>
</g><g transform="translate(1693.58 611.856) rotate(353.21 50.0002 50.0002)">
  <animateTransform attributeName="transform" type="translate" keyTimes="0;1" values="1442.4315225188968 -100;1780 856.8161267318361" dur="20s" repeatCount="indefinite" begin="-7.532381309079511s"></animateTransform>
  <animateTransform attributeName="transform" type="rotate" keyTimes="0;1" begin="-7.532381309079511s" values="0 50 50;474.7551994339217 50 50" dur="20s" repeatCount="indefinite" additive="sum"></animateTransform>
  <path d="M87.422,66.495c-2.009-0.544-4.049-0.97-6.107-1.283c10.617-11.116,15.747-27.37,13.129-42.549 c-5.236,1.77-10.223,4.252-14.824,7.313c-4.13,2.747-7.948,5.961-11.374,9.55C67.425,24.863,61.344,10.451,50.991,0 c-4.015,5.451-7.281,11.444-9.753,17.744c-3.579,9.122-5.501,18.893-5.669,28.691c-4.79-7.979-11.256-14.955-18.858-20.322 c-4.514-3.187-9.431-5.806-14.616-7.72c-3.361,16.717,2.731,35.015,15.445,46.379c0.369,0.33,0.745,0.654,1.126,0.972 c-2.359,0.411-4.689,0.983-6.969,1.714C7.582,68.775,3.634,70.61,0,72.945c8.85,9.963,23.134,14.771,36.208,12.186 c3.524-0.697,7.002-1.919,9.887-4.057c0.073-0.054,0.145-0.111,0.218-0.167c-0.987,5.662-2.714,11.136-5.104,16.221l7.509,2.806 c1.698-5.797,2.631-11.748,2.814-17.669c0.107,0.076,0.215,0.152,0.324,0.225c3.142,2.114,6.863,3.232,10.607,3.796 C76.352,88.379,91.161,82.628,100,71.71C96.061,69.427,91.816,67.684,87.422,66.495z" fill="#ffc46c" transform="scale(1.016329075915219)"></path>
</g><g transform="translate(709.395 732.423) rotate(195.613 50 50)">
  <animateTransform attributeName="transform" type="translate" keyTimes="0;1" values="-100 419.0629210353762;1524.5160573984608 1048" dur="20s" repeatCount="indefinite" begin="-2.6174401244250345s"></animateTransform>
  <animateTransform attributeName="transform" type="rotate" keyTimes="0;1" begin="-2.6174401244250345s" values="0 50 50;392.60918243652225 50 50" dur="20s" repeatCount="indefinite" additive="sum"></animateTransform>
  <path d="M87.422,66.495c-2.009-0.544-4.049-0.97-6.107-1.283c10.617-11.116,15.747-27.37,13.129-42.549 c-5.236,1.77-10.223,4.252-14.824,7.313c-4.13,2.747-7.948,5.961-11.374,9.55C67.425,24.863,61.344,10.451,50.991,0 c-4.015,5.451-7.281,11.444-9.753,17.744c-3.579,9.122-5.501,18.893-5.669,28.691c-4.79-7.979-11.256-14.955-18.858-20.322 c-4.514-3.187-9.431-5.806-14.616-7.72c-3.361,16.717,2.731,35.015,15.445,46.379c0.369,0.33,0.745,0.654,1.126,0.972 c-2.359,0.411-4.689,0.983-6.969,1.714C7.582,68.775,3.634,70.61,0,72.945c8.85,9.963,23.134,14.771,36.208,12.186 c3.524-0.697,7.002-1.919,9.887-4.057c0.073-0.054,0.145-0.111,0.218-0.167c-0.987,5.662-2.714,11.136-5.104,16.221l7.509,2.806 c1.698-5.797,2.631-11.748,2.814-17.669c0.107,0.076,0.215,0.152,0.324,0.225c3.142,2.114,6.863,3.232,10.607,3.796 C76.352,88.379,91.161,82.628,100,71.71C96.061,69.427,91.816,67.684,87.422,66.495z" fill="#ff956e" transform="scale(0.5090630767051619)"></path>
</g><g transform="translate(950.578 1017.66) rotate(19.1222 50 50)">
  <animateTransform attributeName="transform" type="translate" keyTimes="0;1" values="-100 346.6955306567798;1780 1547.3761484737506" dur="20s" repeatCount="indefinite" begin="-3.829049848359651s"></animateTransform>
  <animateTransform attributeName="transform" type="rotate" keyTimes="0;1" begin="-3.829049848359651s" values="0 50 50;34.21903102772304 50 50" dur="20s" repeatCount="indefinite" additive="sum"></animateTransform>
  <path d="M87.422,66.495c-2.009-0.544-4.049-0.97-6.107-1.283c10.617-11.116,15.747-27.37,13.129-42.549 c-5.236,1.77-10.223,4.252-14.824,7.313c-4.13,2.747-7.948,5.961-11.374,9.55C67.425,24.863,61.344,10.451,50.991,0 c-4.015,5.451-7.281,11.444-9.753,17.744c-3.579,9.122-5.501,18.893-5.669,28.691c-4.79-7.979-11.256-14.955-18.858-20.322 c-4.514-3.187-9.431-5.806-14.616-7.72c-3.361,16.717,2.731,35.015,15.445,46.379c0.369,0.33,0.745,0.654,1.126,0.972 c-2.359,0.411-4.689,0.983-6.969,1.714C7.582,68.775,3.634,70.61,0,72.945c8.85,9.963,23.134,14.771,36.208,12.186 c3.524-0.697,7.002-1.919,9.887-4.057c0.073-0.054,0.145-0.111,0.218-0.167c-0.987,5.662-2.714,11.136-5.104,16.221l7.509,2.806 c1.698-5.797,2.631-11.748,2.814-17.669c0.107,0.076,0.215,0.152,0.324,0.225c3.142,2.114,6.863,3.232,10.607,3.796 C76.352,88.379,91.161,82.628,100,71.71C96.061,69.427,91.816,67.684,87.422,66.495z" fill="#ff956e" transform="scale(0.6540583198365185)"></path>
</g><g transform="translate(1598.66 308.307) rotate(195.375 50 50)">
  <animateTransform attributeName="transform" type="translate" keyTimes="0;1" values="1503.0481339832863 -100;1780 1082.6697348748837" dur="20s" repeatCount="indefinite" begin="-19.55752626107277s"></animateTransform>
  <animateTransform attributeName="transform" type="rotate" keyTimes="0;1" begin="-19.55752626107277s" values="0 50 50;565.9067345535541 50 50" dur="20s" repeatCount="indefinite" additive="sum"></animateTransform>
  <path d="M87.422,66.495c-2.009-0.544-4.049-0.97-6.107-1.283c10.617-11.116,15.747-27.37,13.129-42.549 c-5.236,1.77-10.223,4.252-14.824,7.313c-4.13,2.747-7.948,5.961-11.374,9.55C67.425,24.863,61.344,10.451,50.991,0 c-4.015,5.451-7.281,11.444-9.753,17.744c-3.579,9.122-5.501,18.893-5.669,28.691c-4.79-7.979-11.256-14.955-18.858-20.322 c-4.514-3.187-9.431-5.806-14.616-7.72c-3.361,16.717,2.731,35.015,15.445,46.379c0.369,0.33,0.745,0.654,1.126,0.972 c-2.359,0.411-4.689,0.983-6.969,1.714C7.582,68.775,3.634,70.61,0,72.945c8.85,9.963,23.134,14.771,36.208,12.186 c3.524-0.697,7.002-1.919,9.887-4.057c0.073-0.054,0.145-0.111,0.218-0.167c-0.987,5.662-2.714,11.136-5.104,16.221l7.509,2.806 c1.698-5.797,2.631-11.748,2.814-17.669c0.107,0.076,0.215,0.152,0.324,0.225c3.142,2.114,6.863,3.232,10.607,3.796 C76.352,88.379,91.161,82.628,100,71.71C96.061,69.427,91.816,67.684,87.422,66.495z" fill="#ff956e" transform="scale(0.989897872368993)"></path>
</g><g transform="translate(97.2681 504.448) rotate(19.4985 50 50)">
  <animateTransform attributeName="transform" type="translate" keyTimes="0;1" values="-100 370.1900904242462;1780 1649.6963055659053" dur="20s" repeatCount="indefinite" begin="-14.751291248565101s"></animateTransform>
  <animateTransform attributeName="transform" type="rotate" keyTimes="0;1" begin="-14.751291248565101s" values="0 50 50;185.82390743990555 50 50" dur="20s" repeatCount="indefinite" additive="sum"></animateTransform>
  <path d="M87.422,66.495c-2.009-0.544-4.049-0.97-6.107-1.283c10.617-11.116,15.747-27.37,13.129-42.549 c-5.236,1.77-10.223,4.252-14.824,7.313c-4.13,2.747-7.948,5.961-11.374,9.55C67.425,24.863,61.344,10.451,50.991,0 c-4.015,5.451-7.281,11.444-9.753,17.744c-3.579,9.122-5.501,18.893-5.669,28.691c-4.79-7.979-11.256-14.955-18.858-20.322 c-4.514-3.187-9.431-5.806-14.616-7.72c-3.361,16.717,2.731,35.015,15.445,46.379c0.369,0.33,0.745,0.654,1.126,0.972 c-2.359,0.411-4.689,0.983-6.969,1.714C7.582,68.775,3.634,70.61,0,72.945c8.85,9.963,23.134,14.771,36.208,12.186 c3.524-0.697,7.002-1.919,9.887-4.057c0.073-0.054,0.145-0.111,0.218-0.167c-0.987,5.662-2.714,11.136-5.104,16.221l7.509,2.806 c1.698-5.797,2.631-11.748,2.814-17.669c0.107,0.076,0.215,0.152,0.324,0.225c3.142,2.114,6.863,3.232,10.607,3.796 C76.352,88.379,91.161,82.628,100,71.71C96.061,69.427,91.816,67.684,87.422,66.495z" fill="#ff9f32" transform="scale(0.8906035418386271)"></path>
</g><g transform="translate(1213.53 201.904) rotate(47.1269 50 50)">
  <animateTransform attributeName="transform" type="translate" keyTimes="0;1" values="796.6333887013786 -100;2381.894625195206 1048" dur="20s" repeatCount="indefinite" begin="-17.9123409334687s"></animateTransform>
  <animateTransform attributeName="transform" type="rotate" keyTimes="0;1" begin="-17.9123409334687s" values="0 50 50;179.2019517290658 50 50" dur="20s" repeatCount="indefinite" additive="sum"></animateTransform>
  <path d="M87.422,66.495c-2.009-0.544-4.049-0.97-6.107-1.283c10.617-11.116,15.747-27.37,13.129-42.549 c-5.236,1.77-10.223,4.252-14.824,7.313c-4.13,2.747-7.948,5.961-11.374,9.55C67.425,24.863,61.344,10.451,50.991,0 c-4.015,5.451-7.281,11.444-9.753,17.744c-3.579,9.122-5.501,18.893-5.669,28.691c-4.79-7.979-11.256-14.955-18.858-20.322 c-4.514-3.187-9.431-5.806-14.616-7.72c-3.361,16.717,2.731,35.015,15.445,46.379c0.369,0.33,0.745,0.654,1.126,0.972 c-2.359,0.411-4.689,0.983-6.969,1.714C7.582,68.775,3.634,70.61,0,72.945c8.85,9.963,23.134,14.771,36.208,12.186 c3.524-0.697,7.002-1.919,9.887-4.057c0.073-0.054,0.145-0.111,0.218-0.167c-0.987,5.662-2.714,11.136-5.104,16.221l7.509,2.806 c1.698-5.797,2.631-11.748,2.814-17.669c0.107,0.076,0.215,0.152,0.324,0.225c3.142,2.114,6.863,3.232,10.607,3.796 C76.352,88.379,91.161,82.628,100,71.71C96.061,69.427,91.816,67.684,87.422,66.495z" fill="#ff956e" transform="scale(0.9948987557564405)"></path>
</g><g transform="translate(1307.23 663.454) rotate(385.065 50 50)">
  <animateTransform attributeName="transform" type="translate" keyTimes="0;1" values="-100 5.7457169271447786;1780 884.4190931203516" dur="20s" repeatCount="indefinite" begin="-7.623175938299176s"></animateTransform>
  <animateTransform attributeName="transform" type="rotate" keyTimes="0;1" begin="-7.623175938299176s" values="0 50 50;514.4325067081361 50 50" dur="20s" repeatCount="indefinite" additive="sum"></animateTransform>
  <path d="M87.422,66.495c-2.009-0.544-4.049-0.97-6.107-1.283c10.617-11.116,15.747-27.37,13.129-42.549 c-5.236,1.77-10.223,4.252-14.824,7.313c-4.13,2.747-7.948,5.961-11.374,9.55C67.425,24.863,61.344,10.451,50.991,0 c-4.015,5.451-7.281,11.444-9.753,17.744c-3.579,9.122-5.501,18.893-5.669,28.691c-4.79-7.979-11.256-14.955-18.858-20.322 c-4.514-3.187-9.431-5.806-14.616-7.72c-3.361,16.717,2.731,35.015,15.445,46.379c0.369,0.33,0.745,0.654,1.126,0.972 c-2.359,0.411-4.689,0.983-6.969,1.714C7.582,68.775,3.634,70.61,0,72.945c8.85,9.963,23.134,14.771,36.208,12.186 c3.524-0.697,7.002-1.919,9.887-4.057c0.073-0.054,0.145-0.111,0.218-0.167c-0.987,5.662-2.714,11.136-5.104,16.221l7.509,2.806 c1.698-5.797,2.631-11.748,2.814-17.669c0.107,0.076,0.215,0.152,0.324,0.225c3.142,2.114,6.863,3.232,10.607,3.796 C76.352,88.379,91.161,82.628,100,71.71C96.061,69.427,91.816,67.684,87.422,66.495z" fill="#ff9f32" transform="scale(1.0085623354341078)"></path>
</g><g transform="translate(2257.09 1034.74) rotate(213.353 50 50)">
  <animateTransform attributeName="transform" type="translate" keyTimes="0;1" values="-100 451.3045037558521;2310.678271369577 1048" dur="20s" repeatCount="indefinite" begin="-12.2081132170238s"></animateTransform>
  <animateTransform attributeName="transform" type="rotate" keyTimes="0;1" begin="-12.2081132170238s" values="0 50 50;218.2039545154615 50 50" dur="20s" repeatCount="indefinite" additive="sum"></animateTransform>
  <path d="M87.422,66.495c-2.009-0.544-4.049-0.97-6.107-1.283c10.617-11.116,15.747-27.37,13.129-42.549 c-5.236,1.77-10.223,4.252-14.824,7.313c-4.13,2.747-7.948,5.961-11.374,9.55C67.425,24.863,61.344,10.451,50.991,0 c-4.015,5.451-7.281,11.444-9.753,17.744c-3.579,9.122-5.501,18.893-5.669,28.691c-4.79-7.979-11.256-14.955-18.858-20.322 c-4.514-3.187-9.431-5.806-14.616-7.72c-3.361,16.717,2.731,35.015,15.445,46.379c0.369,0.33,0.745,0.654,1.126,0.972 c-2.359,0.411-4.689,0.983-6.969,1.714C7.582,68.775,3.634,70.61,0,72.945c8.85,9.963,23.134,14.771,36.208,12.186 c3.524-0.697,7.002-1.919,9.887-4.057c0.073-0.054,0.145-0.111,0.218-0.167c-0.987,5.662-2.714,11.136-5.104,16.221l7.509,2.806 c1.698-5.797,2.631-11.748,2.814-17.669c0.107,0.076,0.215,0.152,0.324,0.225c3.142,2.114,6.863,3.232,10.607,3.796 C76.352,88.379,91.161,82.628,100,71.71C96.061,69.427,91.816,67.684,87.422,66.495z" fill="#ff956e" transform="scale(1.085297599233628)"></path>
</g><g transform="translate(675.084 758.541) rotate(362.906 49.9994 49.9993)">
  <animateTransform attributeName="transform" type="translate" keyTimes="0;1" values="-100 231.5930166225487;1100.8471049821947 1048" dur="20s" repeatCount="indefinite" begin="-5.561646585105098s"></animateTransform>
  <animateTransform attributeName="transform" type="rotate" keyTimes="0;1" begin="-5.561646585105098s" values="0 50 50;562.2554637705075 50 50" dur="20s" repeatCount="indefinite" additive="sum"></animateTransform>
  <path d="M87.422,66.495c-2.009-0.544-4.049-0.97-6.107-1.283c10.617-11.116,15.747-27.37,13.129-42.549 c-5.236,1.77-10.223,4.252-14.824,7.313c-4.13,2.747-7.948,5.961-11.374,9.55C67.425,24.863,61.344,10.451,50.991,0 c-4.015,5.451-7.281,11.444-9.753,17.744c-3.579,9.122-5.501,18.893-5.669,28.691c-4.79-7.979-11.256-14.955-18.858-20.322 c-4.514-3.187-9.431-5.806-14.616-7.72c-3.361,16.717,2.731,35.015,15.445,46.379c0.369,0.33,0.745,0.654,1.126,0.972 c-2.359,0.411-4.689,0.983-6.969,1.714C7.582,68.775,3.634,70.61,0,72.945c8.85,9.963,23.134,14.771,36.208,12.186 c3.524-0.697,7.002-1.919,9.887-4.057c0.073-0.054,0.145-0.111,0.218-0.167c-0.987,5.662-2.714,11.136-5.104,16.221l7.509,2.806 c1.698-5.797,2.631-11.748,2.814-17.669c0.107,0.076,0.215,0.152,0.324,0.225c3.142,2.114,6.863,3.232,10.607,3.796 C76.352,88.379,91.161,82.628,100,71.71C96.061,69.427,91.816,67.684,87.422,66.495z" fill="#ff956e" transform="scale(1.0027472783354732)"></path>
</g><g transform="translate(1081.69 1140.31) rotate(125.379 50 50)">
  <animateTransform attributeName="transform" type="translate" keyTimes="0;1" values="-100 442.7375195892337;1780 1552.5421795568218" dur="20s" repeatCount="indefinite" begin="-5.223821376043817s"></animateTransform>
  <animateTransform attributeName="transform" type="rotate" keyTimes="0;1" begin="-5.223821376043817s" values="0 50 50;199.47198130685237 50 50" dur="20s" repeatCount="indefinite" additive="sum"></animateTransform>
  <path d="M87.422,66.495c-2.009-0.544-4.049-0.97-6.107-1.283c10.617-11.116,15.747-27.37,13.129-42.549 c-5.236,1.77-10.223,4.252-14.824,7.313c-4.13,2.747-7.948,5.961-11.374,9.55C67.425,24.863,61.344,10.451,50.991,0 c-4.015,5.451-7.281,11.444-9.753,17.744c-3.579,9.122-5.501,18.893-5.669,28.691c-4.79-7.979-11.256-14.955-18.858-20.322 c-4.514-3.187-9.431-5.806-14.616-7.72c-3.361,16.717,2.731,35.015,15.445,46.379c0.369,0.33,0.745,0.654,1.126,0.972 c-2.359,0.411-4.689,0.983-6.969,1.714C7.582,68.775,3.634,70.61,0,72.945c8.85,9.963,23.134,14.771,36.208,12.186 c3.524-0.697,7.002-1.919,9.887-4.057c0.073-0.054,0.145-0.111,0.218-0.167c-0.987,5.662-2.714,11.136-5.104,16.221l7.509,2.806 c1.698-5.797,2.631-11.748,2.814-17.669c0.107,0.076,0.215,0.152,0.324,0.225c3.142,2.114,6.863,3.232,10.607,3.796 C76.352,88.379,91.161,82.628,100,71.71C96.061,69.427,91.816,67.684,87.422,66.495z" fill="#ff9f32" transform="scale(1.0372859668968843)"></path>
</g><g transform="translate(1897.45 676.185) rotate(699.294 49.9999 50)">
  <animateTransform attributeName="transform" type="translate" keyTimes="0;1" values="730.7260879973134 -100;2456.343823012211 1048" dur="20s" repeatCount="indefinite" begin="-6.175073808243091s"></animateTransform>
  <animateTransform attributeName="transform" type="rotate" keyTimes="0;1" begin="-6.175073808243091s" values="0 50 50;1034.276848410482 50 50" dur="20s" repeatCount="indefinite" additive="sum"></animateTransform>
  <path d="M87.422,66.495c-2.009-0.544-4.049-0.97-6.107-1.283c10.617-11.116,15.747-27.37,13.129-42.549 c-5.236,1.77-10.223,4.252-14.824,7.313c-4.13,2.747-7.948,5.961-11.374,9.55C67.425,24.863,61.344,10.451,50.991,0 c-4.015,5.451-7.281,11.444-9.753,17.744c-3.579,9.122-5.501,18.893-5.669,28.691c-4.79-7.979-11.256-14.955-18.858-20.322 c-4.514-3.187-9.431-5.806-14.616-7.72c-3.361,16.717,2.731,35.015,15.445,46.379c0.369,0.33,0.745,0.654,1.126,0.972 c-2.359,0.411-4.689,0.983-6.969,1.714C7.582,68.775,3.634,70.61,0,72.945c8.85,9.963,23.134,14.771,36.208,12.186 c3.524-0.697,7.002-1.919,9.887-4.057c0.073-0.054,0.145-0.111,0.218-0.167c-0.987,5.662-2.714,11.136-5.104,16.221l7.509,2.806 c1.698-5.797,2.631-11.748,2.814-17.669c0.107,0.076,0.215,0.152,0.324,0.225c3.142,2.114,6.863,3.232,10.607,3.796 C76.352,88.379,91.161,82.628,100,71.71C96.061,69.427,91.816,67.684,87.422,66.495z" fill="#ff9f32" transform="scale(0.624641307797326)"></path>
</g><g transform="translate(1992.97 848.599) rotate(506.469 50 50)">
  <animateTransform attributeName="transform" type="translate" keyTimes="0;1" values="262.03594545279606 -100;2356.8205062834145 1048" dur="20s" repeatCount="indefinite" begin="-9.17881535070025s"></animateTransform>
  <animateTransform attributeName="transform" type="rotate" keyTimes="0;1" begin="-9.17881535070025s" values="0 50 50;612.931827126611 50 50" dur="20s" repeatCount="indefinite" additive="sum"></animateTransform>
  <path d="M87.422,66.495c-2.009-0.544-4.049-0.97-6.107-1.283c10.617-11.116,15.747-27.37,13.129-42.549 c-5.236,1.77-10.223,4.252-14.824,7.313c-4.13,2.747-7.948,5.961-11.374,9.55C67.425,24.863,61.344,10.451,50.991,0 c-4.015,5.451-7.281,11.444-9.753,17.744c-3.579,9.122-5.501,18.893-5.669,28.691c-4.79-7.979-11.256-14.955-18.858-20.322 c-4.514-3.187-9.431-5.806-14.616-7.72c-3.361,16.717,2.731,35.015,15.445,46.379c0.369,0.33,0.745,0.654,1.126,0.972 c-2.359,0.411-4.689,0.983-6.969,1.714C7.582,68.775,3.634,70.61,0,72.945c8.85,9.963,23.134,14.771,36.208,12.186 c3.524-0.697,7.002-1.919,9.887-4.057c0.073-0.054,0.145-0.111,0.218-0.167c-0.987,5.662-2.714,11.136-5.104,16.221l7.509,2.806 c1.698-5.797,2.631-11.748,2.814-17.669c0.107,0.076,0.215,0.152,0.324,0.225c3.142,2.114,6.863,3.232,10.607,3.796 C76.352,88.379,91.161,82.628,100,71.71C96.061,69.427,91.816,67.684,87.422,66.495z" fill="#ffc46c" transform="scale(1.0650346484476179)"></path>
</g><g transform="translate(1995.65 902.985) rotate(584.89 50 50)">
  <animateTransform attributeName="transform" type="translate" keyTimes="0;1" values="572.2226963604965 -100;2201.45651647713 1048" dur="20s" repeatCount="indefinite" begin="-10.126308502522745s"></animateTransform>
  <animateTransform attributeName="transform" type="rotate" keyTimes="0;1" begin="-10.126308502522745s" values="0 50 50;669.454613781025 50 50" dur="20s" repeatCount="indefinite" additive="sum"></animateTransform>
  <path d="M87.422,66.495c-2.009-0.544-4.049-0.97-6.107-1.283c10.617-11.116,15.747-27.37,13.129-42.549 c-5.236,1.77-10.223,4.252-14.824,7.313c-4.13,2.747-7.948,5.961-11.374,9.55C67.425,24.863,61.344,10.451,50.991,0 c-4.015,5.451-7.281,11.444-9.753,17.744c-3.579,9.122-5.501,18.893-5.669,28.691c-4.79-7.979-11.256-14.955-18.858-20.322 c-4.514-3.187-9.431-5.806-14.616-7.72c-3.361,16.717,2.731,35.015,15.445,46.379c0.369,0.33,0.745,0.654,1.126,0.972 c-2.359,0.411-4.689,0.983-6.969,1.714C7.582,68.775,3.634,70.61,0,72.945c8.85,9.963,23.134,14.771,36.208,12.186 c3.524-0.697,7.002-1.919,9.887-4.057c0.073-0.054,0.145-0.111,0.218-0.167c-0.987,5.662-2.714,11.136-5.104,16.221l7.509,2.806 c1.698-5.797,2.631-11.748,2.814-17.669c0.107,0.076,0.215,0.152,0.324,0.225c3.142,2.114,6.863,3.232,10.607,3.796 C76.352,88.379,91.161,82.628,100,71.71C96.061,69.427,91.816,67.684,87.422,66.495z" fill="#ff956e" transform="scale(0.909695640514326)"></path>
</g><g transform="translate(618.435 567.848) rotate(299.051 50 50)">
  <animateTransform attributeName="transform" type="translate" keyTimes="0;1" values="-100 68.60515504217625;1780 1375.0218977985214" dur="20s" repeatCount="indefinite" begin="-0.2956245573979816s"></animateTransform>
  <animateTransform attributeName="transform" type="rotate" keyTimes="0;1" begin="-0.2956245573979816s" values="0 50 50;782.5553644195761 50 50" dur="20s" repeatCount="indefinite" additive="sum"></animateTransform>
  <path d="M87.422,66.495c-2.009-0.544-4.049-0.97-6.107-1.283c10.617-11.116,15.747-27.37,13.129-42.549 c-5.236,1.77-10.223,4.252-14.824,7.313c-4.13,2.747-7.948,5.961-11.374,9.55C67.425,24.863,61.344,10.451,50.991,0 c-4.015,5.451-7.281,11.444-9.753,17.744c-3.579,9.122-5.501,18.893-5.669,28.691c-4.79-7.979-11.256-14.955-18.858-20.322 c-4.514-3.187-9.431-5.806-14.616-7.72c-3.361,16.717,2.731,35.015,15.445,46.379c0.369,0.33,0.745,0.654,1.126,0.972 c-2.359,0.411-4.689,0.983-6.969,1.714C7.582,68.775,3.634,70.61,0,72.945c8.85,9.963,23.134,14.771,36.208,12.186 c3.524-0.697,7.002-1.919,9.887-4.057c0.073-0.054,0.145-0.111,0.218-0.167c-0.987,5.662-2.714,11.136-5.104,16.221l7.509,2.806 c1.698-5.797,2.631-11.748,2.814-17.669c0.107,0.076,0.215,0.152,0.324,0.225c3.142,2.114,6.863,3.232,10.607,3.796 C76.352,88.379,91.161,82.628,100,71.71C96.061,69.427,91.816,67.684,87.422,66.495z" fill="#ffc46c" transform="scale(0.49143852672936905)"></path>
</g><g transform="translate(1283.95 850.588) rotate(635.951 50 50)">
  <animateTransform attributeName="transform" type="translate" keyTimes="0;1" values="-100 99.80465984911702;1647.8431081067001 1048" dur="20s" repeatCount="indefinite" begin="-8.488743528970938s"></animateTransform>
  <animateTransform attributeName="transform" type="rotate" keyTimes="0;1" begin="-8.488743528970938s" values="0 50 50;803.1691150762109 50 50" dur="20s" repeatCount="indefinite" additive="sum"></animateTransform>
  <path d="M87.422,66.495c-2.009-0.544-4.049-0.97-6.107-1.283c10.617-11.116,15.747-27.37,13.129-42.549 c-5.236,1.77-10.223,4.252-14.824,7.313c-4.13,2.747-7.948,5.961-11.374,9.55C67.425,24.863,61.344,10.451,50.991,0 c-4.015,5.451-7.281,11.444-9.753,17.744c-3.579,9.122-5.501,18.893-5.669,28.691c-4.79-7.979-11.256-14.955-18.858-20.322 c-4.514-3.187-9.431-5.806-14.616-7.72c-3.361,16.717,2.731,35.015,15.445,46.379c0.369,0.33,0.745,0.654,1.126,0.972 c-2.359,0.411-4.689,0.983-6.969,1.714C7.582,68.775,3.634,70.61,0,72.945c8.85,9.963,23.134,14.771,36.208,12.186 c3.524-0.697,7.002-1.919,9.887-4.057c0.073-0.054,0.145-0.111,0.218-0.167c-0.987,5.662-2.714,11.136-5.104,16.221l7.509,2.806 c1.698-5.797,2.631-11.748,2.814-17.669c0.107,0.076,0.215,0.152,0.324,0.225c3.142,2.114,6.863,3.232,10.607,3.796 C76.352,88.379,91.161,82.628,100,71.71C96.061,69.427,91.816,67.684,87.422,66.495z" fill="#f86161" transform="scale(0.6145072511695325)"></path>
</g><g transform="translate(524.878 788.51) rotate(200.72 50 50)">
  <animateTransform attributeName="transform" type="translate" keyTimes="0;1" values="-100 352.5595314140273;896.8225267545704 1048" dur="20s" repeatCount="indefinite" begin="-5.190095439753125s"></animateTransform>
  <animateTransform attributeName="transform" type="rotate" keyTimes="0;1" begin="-5.190095439753125s" values="0 50 50;320.194310325998 50 50" dur="20s" repeatCount="indefinite" additive="sum"></animateTransform>
  <path d="M87.422,66.495c-2.009-0.544-4.049-0.97-6.107-1.283c10.617-11.116,15.747-27.37,13.129-42.549 c-5.236,1.77-10.223,4.252-14.824,7.313c-4.13,2.747-7.948,5.961-11.374,9.55C67.425,24.863,61.344,10.451,50.991,0 c-4.015,5.451-7.281,11.444-9.753,17.744c-3.579,9.122-5.501,18.893-5.669,28.691c-4.79-7.979-11.256-14.955-18.858-20.322 c-4.514-3.187-9.431-5.806-14.616-7.72c-3.361,16.717,2.731,35.015,15.445,46.379c0.369,0.33,0.745,0.654,1.126,0.972 c-2.359,0.411-4.689,0.983-6.969,1.714C7.582,68.775,3.634,70.61,0,72.945c8.85,9.963,23.134,14.771,36.208,12.186 c3.524-0.697,7.002-1.919,9.887-4.057c0.073-0.054,0.145-0.111,0.218-0.167c-0.987,5.662-2.714,11.136-5.104,16.221l7.509,2.806 c1.698-5.797,2.631-11.748,2.814-17.669c0.107,0.076,0.215,0.152,0.324,0.225c3.142,2.114,6.863,3.232,10.607,3.796 C76.352,88.379,91.161,82.628,100,71.71C96.061,69.427,91.816,67.684,87.422,66.495z" fill="#ffc46c" transform="scale(0.851298746718992)"></path>
</g><g transform="translate(1451.02 883.503) rotate(65.47 50 50)">
  <animateTransform attributeName="transform" type="translate" keyTimes="0;1" values="-100 342.5087971512921;1780 998.2499091404097" dur="20s" repeatCount="indefinite" begin="-9.152926863785227s"></animateTransform>
  <animateTransform attributeName="transform" type="rotate" keyTimes="0;1" begin="-9.152926863785227s" values="0 50 50;79.35646484532096 50 50" dur="20s" repeatCount="indefinite" additive="sum"></animateTransform>
  <path d="M87.422,66.495c-2.009-0.544-4.049-0.97-6.107-1.283c10.617-11.116,15.747-27.37,13.129-42.549 c-5.236,1.77-10.223,4.252-14.824,7.313c-4.13,2.747-7.948,5.961-11.374,9.55C67.425,24.863,61.344,10.451,50.991,0 c-4.015,5.451-7.281,11.444-9.753,17.744c-3.579,9.122-5.501,18.893-5.669,28.691c-4.79-7.979-11.256-14.955-18.858-20.322 c-4.514-3.187-9.431-5.806-14.616-7.72c-3.361,16.717,2.731,35.015,15.445,46.379c0.369,0.33,0.745,0.654,1.126,0.972 c-2.359,0.411-4.689,0.983-6.969,1.714C7.582,68.775,3.634,70.61,0,72.945c8.85,9.963,23.134,14.771,36.208,12.186 c3.524-0.697,7.002-1.919,9.887-4.057c0.073-0.054,0.145-0.111,0.218-0.167c-0.987,5.662-2.714,11.136-5.104,16.221l7.509,2.806 c1.698-5.797,2.631-11.748,2.814-17.669c0.107,0.076,0.215,0.152,0.324,0.225c3.142,2.114,6.863,3.232,10.607,3.796 C76.352,88.379,91.161,82.628,100,71.71C96.061,69.427,91.816,67.684,87.422,66.495z" fill="#ffc46c" transform="scale(0.8706945236967347)"></path>
</g><g transform="translate(1240.42 842.515) rotate(409.007 50 50)">
  <animateTransform attributeName="transform" type="translate" keyTimes="0;1" values="-100 137.20634342362936;1630.9340479936695 1048" dur="20s" repeatCount="indefinite" begin="-8.14047287918773s"></animateTransform>
  <animateTransform attributeName="transform" type="rotate" keyTimes="0;1" begin="-8.14047287918773s" values="0 50 50;528.1672279438949 50 50" dur="20s" repeatCount="indefinite" additive="sum"></animateTransform>
  <path d="M87.422,66.495c-2.009-0.544-4.049-0.97-6.107-1.283c10.617-11.116,15.747-27.37,13.129-42.549 c-5.236,1.77-10.223,4.252-14.824,7.313c-4.13,2.747-7.948,5.961-11.374,9.55C67.425,24.863,61.344,10.451,50.991,0 c-4.015,5.451-7.281,11.444-9.753,17.744c-3.579,9.122-5.501,18.893-5.669,28.691c-4.79-7.979-11.256-14.955-18.858-20.322 c-4.514-3.187-9.431-5.806-14.616-7.72c-3.361,16.717,2.731,35.015,15.445,46.379c0.369,0.33,0.745,0.654,1.126,0.972 c-2.359,0.411-4.689,0.983-6.969,1.714C7.582,68.775,3.634,70.61,0,72.945c8.85,9.963,23.134,14.771,36.208,12.186 c3.524-0.697,7.002-1.919,9.887-4.057c0.073-0.054,0.145-0.111,0.218-0.167c-0.987,5.662-2.714,11.136-5.104,16.221l7.509,2.806 c1.698-5.797,2.631-11.748,2.814-17.669c0.107,0.076,0.215,0.152,0.324,0.225c3.142,2.114,6.863,3.232,10.607,3.796 C76.352,88.379,91.161,82.628,100,71.71C96.061,69.427,91.816,67.684,87.422,66.495z" fill="#ff956e" transform="scale(0.6586816383828292)"></path>
</g><g transform="translate(1561.74 1255.08) rotate(947.791 50 50)">
  <animateTransform attributeName="transform" type="translate" keyTimes="0;1" values="-100 82.56420878220929;1780 1409.0822429086768" dur="20s" repeatCount="indefinite" begin="-10.33083121138024s"></animateTransform>
  <animateTransform attributeName="transform" type="rotate" keyTimes="0;1" begin="-10.33083121138024s" values="0 50 50;1072.275190604506 50 50" dur="20s" repeatCount="indefinite" additive="sum"></animateTransform>
  <path d="M87.422,66.495c-2.009-0.544-4.049-0.97-6.107-1.283c10.617-11.116,15.747-27.37,13.129-42.549 c-5.236,1.77-10.223,4.252-14.824,7.313c-4.13,2.747-7.948,5.961-11.374,9.55C67.425,24.863,61.344,10.451,50.991,0 c-4.015,5.451-7.281,11.444-9.753,17.744c-3.579,9.122-5.501,18.893-5.669,28.691c-4.79-7.979-11.256-14.955-18.858-20.322 c-4.514-3.187-9.431-5.806-14.616-7.72c-3.361,16.717,2.731,35.015,15.445,46.379c0.369,0.33,0.745,0.654,1.126,0.972 c-2.359,0.411-4.689,0.983-6.969,1.714C7.582,68.775,3.634,70.61,0,72.945c8.85,9.963,23.134,14.771,36.208,12.186 c3.524-0.697,7.002-1.919,9.887-4.057c0.073-0.054,0.145-0.111,0.218-0.167c-0.987,5.662-2.714,11.136-5.104,16.221l7.509,2.806 c1.698-5.797,2.631-11.748,2.814-17.669c0.107,0.076,0.215,0.152,0.324,0.225c3.142,2.114,6.863,3.232,10.607,3.796 C76.352,88.379,91.161,82.628,100,71.71C96.061,69.427,91.816,67.684,87.422,66.495z" fill="#ff956e" transform="scale(0.5336214263002941)"></path>
</g><g transform="translate(533.344 314.858) rotate(212.971 50 50)">
  <animateTransform attributeName="transform" type="translate" keyTimes="0;1" values="-100 8.701968843029206;1780 917.4876109246072" dur="20s" repeatCount="indefinite" begin="-19.390397028607293s"></animateTransform>
  <animateTransform attributeName="transform" type="rotate" keyTimes="0;1" begin="-19.390397028607293s" values="0 50 50;632.1782200027079 50 50" dur="20s" repeatCount="indefinite" additive="sum"></animateTransform>
  <path d="M87.422,66.495c-2.009-0.544-4.049-0.97-6.107-1.283c10.617-11.116,15.747-27.37,13.129-42.549 c-5.236,1.77-10.223,4.252-14.824,7.313c-4.13,2.747-7.948,5.961-11.374,9.55C67.425,24.863,61.344,10.451,50.991,0 c-4.015,5.451-7.281,11.444-9.753,17.744c-3.579,9.122-5.501,18.893-5.669,28.691c-4.79-7.979-11.256-14.955-18.858-20.322 c-4.514-3.187-9.431-5.806-14.616-7.72c-3.361,16.717,2.731,35.015,15.445,46.379c0.369,0.33,0.745,0.654,1.126,0.972 c-2.359,0.411-4.689,0.983-6.969,1.714C7.582,68.775,3.634,70.61,0,72.945c8.85,9.963,23.134,14.771,36.208,12.186 c3.524-0.697,7.002-1.919,9.887-4.057c0.073-0.054,0.145-0.111,0.218-0.167c-0.987,5.662-2.714,11.136-5.104,16.221l7.509,2.806 c1.698-5.797,2.631-11.748,2.814-17.669c0.107,0.076,0.215,0.152,0.324,0.225c3.142,2.114,6.863,3.232,10.607,3.796 C76.352,88.379,91.161,82.628,100,71.71C96.061,69.427,91.816,67.684,87.422,66.495z" fill="#f86161" transform="scale(1.0147734628535776)"></path>
</g><g transform="translate(412.609 516.621) rotate(182.876 50 50)">
  <animateTransform attributeName="transform" type="translate" keyTimes="0;1" values="-100 202.4853148151286;1279.71538342909 1048" dur="20s" repeatCount="indefinite" begin="-0.08333821130945747s"></animateTransform>
  <animateTransform attributeName="transform" type="rotate" keyTimes="0;1" begin="-0.08333821130945747s" values="0 50 50;492.2220447708947 50 50" dur="20s" repeatCount="indefinite" additive="sum"></animateTransform>
  <path d="M87.422,66.495c-2.009-0.544-4.049-0.97-6.107-1.283c10.617-11.116,15.747-27.37,13.129-42.549 c-5.236,1.77-10.223,4.252-14.824,7.313c-4.13,2.747-7.948,5.961-11.374,9.55C67.425,24.863,61.344,10.451,50.991,0 c-4.015,5.451-7.281,11.444-9.753,17.744c-3.579,9.122-5.501,18.893-5.669,28.691c-4.79-7.979-11.256-14.955-18.858-20.322 c-4.514-3.187-9.431-5.806-14.616-7.72c-3.361,16.717,2.731,35.015,15.445,46.379c0.369,0.33,0.745,0.654,1.126,0.972 c-2.359,0.411-4.689,0.983-6.969,1.714C7.582,68.775,3.634,70.61,0,72.945c8.85,9.963,23.134,14.771,36.208,12.186 c3.524-0.697,7.002-1.919,9.887-4.057c0.073-0.054,0.145-0.111,0.218-0.167c-0.987,5.662-2.714,11.136-5.104,16.221l7.509,2.806 c1.698-5.797,2.631-11.748,2.814-17.669c0.107,0.076,0.215,0.152,0.324,0.225c3.142,2.114,6.863,3.232,10.607,3.796 C76.352,88.379,91.161,82.628,100,71.71C96.061,69.427,91.816,67.684,87.422,66.495z" fill="#ffc46c" transform="scale(0.7828784432784647)"></path>
</g><g transform="translate(274.064 188.453) rotate(88.9658 50 50)">
  <animateTransform attributeName="transform" type="translate" keyTimes="0;1" values="-100 2.133399200036075;1780 938.5509096655567" dur="20s" repeatCount="indefinite" begin="-16.632099565133483s"></animateTransform>
  <animateTransform attributeName="transform" type="rotate" keyTimes="0;1" begin="-16.632099565133483s" values="0 50 50;447.13109269099346 50 50" dur="20s" repeatCount="indefinite" additive="sum"></animateTransform>
  <path d="M87.422,66.495c-2.009-0.544-4.049-0.97-6.107-1.283c10.617-11.116,15.747-27.37,13.129-42.549 c-5.236,1.77-10.223,4.252-14.824,7.313c-4.13,2.747-7.948,5.961-11.374,9.55C67.425,24.863,61.344,10.451,50.991,0 c-4.015,5.451-7.281,11.444-9.753,17.744c-3.579,9.122-5.501,18.893-5.669,28.691c-4.79-7.979-11.256-14.955-18.858-20.322 c-4.514-3.187-9.431-5.806-14.616-7.72c-3.361,16.717,2.731,35.015,15.445,46.379c0.369,0.33,0.745,0.654,1.126,0.972 c-2.359,0.411-4.689,0.983-6.969,1.714C7.582,68.775,3.634,70.61,0,72.945c8.85,9.963,23.134,14.771,36.208,12.186 c3.524-0.697,7.002-1.919,9.887-4.057c0.073-0.054,0.145-0.111,0.218-0.167c-0.987,5.662-2.714,11.136-5.104,16.221l7.509,2.806 c1.698-5.797,2.631-11.748,2.814-17.669c0.107,0.076,0.215,0.152,0.324,0.225c3.142,2.114,6.863,3.232,10.607,3.796 C76.352,88.379,91.161,82.628,100,71.71C96.061,69.427,91.816,67.684,87.422,66.495z" fill="#ff9f32" transform="scale(0.7631265059983899)"></path>
</g><g transform="translate(1234.99 595.215) rotate(583.802 50 50)">
  <animateTransform attributeName="transform" type="translate" keyTimes="0;1" values="-100 212.6245080017917;1780 751.4060391188332" dur="20s" repeatCount="indefinite" begin="-6.854762599307181s"></animateTransform>
  <animateTransform attributeName="transform" type="rotate" keyTimes="0;1" begin="-6.854762599307181s" values="0 50 50;822.1366838799947 50 50" dur="20s" repeatCount="indefinite" additive="sum"></animateTransform>
  <path d="M87.422,66.495c-2.009-0.544-4.049-0.97-6.107-1.283c10.617-11.116,15.747-27.37,13.129-42.549 c-5.236,1.77-10.223,4.252-14.824,7.313c-4.13,2.747-7.948,5.961-11.374,9.55C67.425,24.863,61.344,10.451,50.991,0 c-4.015,5.451-7.281,11.444-9.753,17.744c-3.579,9.122-5.501,18.893-5.669,28.691c-4.79-7.979-11.256-14.955-18.858-20.322 c-4.514-3.187-9.431-5.806-14.616-7.72c-3.361,16.717,2.731,35.015,15.445,46.379c0.369,0.33,0.745,0.654,1.126,0.972 c-2.359,0.411-4.689,0.983-6.969,1.714C7.582,68.775,3.634,70.61,0,72.945c8.85,9.963,23.134,14.771,36.208,12.186 c3.524-0.697,7.002-1.919,9.887-4.057c0.073-0.054,0.145-0.111,0.218-0.167c-0.987,5.662-2.714,11.136-5.104,16.221l7.509,2.806 c1.698-5.797,2.631-11.748,2.814-17.669c0.107,0.076,0.215,0.152,0.324,0.225c3.142,2.114,6.863,3.232,10.607,3.796 C76.352,88.379,91.161,82.628,100,71.71C96.061,69.427,91.816,67.684,87.422,66.495z" fill="#f86161" transform="scale(0.9821774699403693)"></path>
</g><g transform="translate(1746.31 1239.72) rotate(159.255 50 50)">
  <animateTransform attributeName="transform" type="translate" keyTimes="0;1" values="679.0647973877617 -100;1780 1282.0042080820533" dur="20s" repeatCount="indefinite" begin="-12.040735567185948s"></animateTransform>
  <animateTransform attributeName="transform" type="rotate" keyTimes="0;1" begin="-12.040735567185948s" values="0 50 50;164.28179150537542 50 50" dur="20s" repeatCount="indefinite" additive="sum"></animateTransform>
  <path d="M87.422,66.495c-2.009-0.544-4.049-0.97-6.107-1.283c10.617-11.116,15.747-27.37,13.129-42.549 c-5.236,1.77-10.223,4.252-14.824,7.313c-4.13,2.747-7.948,5.961-11.374,9.55C67.425,24.863,61.344,10.451,50.991,0 c-4.015,5.451-7.281,11.444-9.753,17.744c-3.579,9.122-5.501,18.893-5.669,28.691c-4.79-7.979-11.256-14.955-18.858-20.322 c-4.514-3.187-9.431-5.806-14.616-7.72c-3.361,16.717,2.731,35.015,15.445,46.379c0.369,0.33,0.745,0.654,1.126,0.972 c-2.359,0.411-4.689,0.983-6.969,1.714C7.582,68.775,3.634,70.61,0,72.945c8.85,9.963,23.134,14.771,36.208,12.186 c3.524-0.697,7.002-1.919,9.887-4.057c0.073-0.054,0.145-0.111,0.218-0.167c-0.987,5.662-2.714,11.136-5.104,16.221l7.509,2.806 c1.698-5.797,2.631-11.748,2.814-17.669c0.107,0.076,0.215,0.152,0.324,0.225c3.142,2.114,6.863,3.232,10.607,3.796 C76.352,88.379,91.161,82.628,100,71.71C96.061,69.427,91.816,67.684,87.422,66.495z" fill="#f86161" transform="scale(0.6062664099738948)"></path>
</g><g transform="translate(1443.97 234.864) rotate(291.194 50 50)">
  <animateTransform attributeName="transform" type="translate" keyTimes="0;1" values="939.862525713029 -100;2668.0593175840004 1048" dur="20s" repeatCount="indefinite" begin="-18.48656015276793s"></animateTransform>
  <animateTransform attributeName="transform" type="rotate" keyTimes="0;1" begin="-18.48656015276793s" values="0 50 50;998.2877072973404 50 50" dur="20s" repeatCount="indefinite" additive="sum"></animateTransform>
  <path d="M87.422,66.495c-2.009-0.544-4.049-0.97-6.107-1.283c10.617-11.116,15.747-27.37,13.129-42.549 c-5.236,1.77-10.223,4.252-14.824,7.313c-4.13,2.747-7.948,5.961-11.374,9.55C67.425,24.863,61.344,10.451,50.991,0 c-4.015,5.451-7.281,11.444-9.753,17.744c-3.579,9.122-5.501,18.893-5.669,28.691c-4.79-7.979-11.256-14.955-18.858-20.322 c-4.514-3.187-9.431-5.806-14.616-7.72c-3.361,16.717,2.731,35.015,15.445,46.379c0.369,0.33,0.745,0.654,1.126,0.972 c-2.359,0.411-4.689,0.983-6.969,1.714C7.582,68.775,3.634,70.61,0,72.945c8.85,9.963,23.134,14.771,36.208,12.186 c3.524-0.697,7.002-1.919,9.887-4.057c0.073-0.054,0.145-0.111,0.218-0.167c-0.987,5.662-2.714,11.136-5.104,16.221l7.509,2.806 c1.698-5.797,2.631-11.748,2.814-17.669c0.107,0.076,0.215,0.152,0.324,0.225c3.142,2.114,6.863,3.232,10.607,3.796 C76.352,88.379,91.161,82.628,100,71.71C96.061,69.427,91.816,67.684,87.422,66.495z" fill="#ff9f32" transform="scale(0.9719839158219564)"></path>
</g><g transform="translate(2883.64 906.465) rotate(275.512 50 50)">
  <animateTransform attributeName="transform" type="translate" keyTimes="0;1" values="1031.2103774261523 -100;3144.139837669692 1048" dur="20s" repeatCount="indefinite" begin="-10.186932699781066s"></animateTransform>
  <animateTransform attributeName="transform" type="rotate" keyTimes="0;1" begin="-10.186932699781066s" values="0 50 50;314.25648241619245 50 50" dur="20s" repeatCount="indefinite" additive="sum"></animateTransform>
  <path d="M87.422,66.495c-2.009-0.544-4.049-0.97-6.107-1.283c10.617-11.116,15.747-27.37,13.129-42.549 c-5.236,1.77-10.223,4.252-14.824,7.313c-4.13,2.747-7.948,5.961-11.374,9.55C67.425,24.863,61.344,10.451,50.991,0 c-4.015,5.451-7.281,11.444-9.753,17.744c-3.579,9.122-5.501,18.893-5.669,28.691c-4.79-7.979-11.256-14.955-18.858-20.322 c-4.514-3.187-9.431-5.806-14.616-7.72c-3.361,16.717,2.731,35.015,15.445,46.379c0.369,0.33,0.745,0.654,1.126,0.972 c-2.359,0.411-4.689,0.983-6.969,1.714C7.582,68.775,3.634,70.61,0,72.945c8.85,9.963,23.134,14.771,36.208,12.186 c3.524-0.697,7.002-1.919,9.887-4.057c0.073-0.054,0.145-0.111,0.218-0.167c-0.987,5.662-2.714,11.136-5.104,16.221l7.509,2.806 c1.698-5.797,2.631-11.748,2.814-17.669c0.107,0.076,0.215,0.152,0.324,0.225c3.142,2.114,6.863,3.232,10.607,3.796 C76.352,88.379,91.161,82.628,100,71.71C96.061,69.427,91.816,67.684,87.422,66.495z" fill="#ff9f32" transform="scale(0.648470179646964)"></path>
</g></g>
<style type="text/css">.lded > .content, .lded > .content > .inner { height: 100%; }
.lded > .content > .inner > .viewer { width: 100%; height: 100%; max-width: 100%; overflow: hidden }
.lded > .content > .inner > .panel {
  position: absolute;
  bottom: 50px;
  left: 0;
  right: 0;
  opacity: 0.3;
}
.lded > .content > .inner > .panel:hover { opacity: 1; }
.lded > .content > .inner > .ctrl {
  position: absolute;
  bottom: 13px;
  left: 0;
  right: 0;
  margin: auto;
}
.lded > .content > .inner > .ctrl:hover {
  z-index: 10;
}
#editor > .inner > .title {
  position: absolute;
  bottom: 195px;
  left: 0;
  right: 0;
  z-index: 11;
}
#editor > .inner > .title > a:first-child {
  margin-left: 0!important;
#editor .lded .viewer { border-radius: 0 }</style></svg>