<?xml version="1.0" encoding="utf-8"?>
<svg xmlns="http://www.w3.org/2000/svg" xmlns:xlink="http://www.w3.org/1999/xlink" style="margin: auto; background: rgb(241, 242, 243); display: block; z-index: 1; position: relative; shape-rendering: auto;" width="1680" height="948" preserveAspectRatio="xMidYMid" viewBox="0 0 1680 948">
<g transform=""><g transform="translate(1255.1 624.781)">
  <animateTransform attributeName="transform" type="translate" keyTimes="0;1" values="-100 624.7812272214442;1680 624.7812272214442" dur="33.333333333333336s" repeatCount="indefinite" begin="-54.02655890077561s"></animateTransform>
  <path d="M84.717,33.597c0.791-2.503,1.186-5.138,1.186-7.773C85.903,11.594,74.308,0,60.079,0 c-9.881,0-18.445,5.534-22.793,13.702c-1.581-0.527-3.426-0.791-5.138-0.791c-9.486,0-17.128,7.642-17.128,17.128 c0,1.186,0.132,2.372,0.395,3.426C6.719,34.783,0,42.424,0,51.515C0,61.66,8.169,69.829,18.314,69.829h63.373 C91.831,69.829,100,61.66,100,51.515C99.868,42.556,93.281,35.046,84.717,33.597z" fill="#e2bb8b" transform="scale(0.6675484394081272)"></path>
</g><g transform="translate(708.043 61.409)">
  <animateTransform attributeName="transform" type="translate" keyTimes="0;1" values="-100 61.40903126638118;1680 61.40903126638118" dur="33.333333333333336s" repeatCount="indefinite" begin="-43.78208202278995s"></animateTransform>
  <path d="M84.717,33.597c0.791-2.503,1.186-5.138,1.186-7.773C85.903,11.594,74.308,0,60.079,0 c-9.881,0-18.445,5.534-22.793,13.702c-1.581-0.527-3.426-0.791-5.138-0.791c-9.486,0-17.128,7.642-17.128,17.128 c0,1.186,0.132,2.372,0.395,3.426C6.719,34.783,0,42.424,0,51.515C0,61.66,8.169,69.829,18.314,69.829h63.373 C91.831,69.829,100,61.66,100,51.515C99.868,42.556,93.281,35.046,84.717,33.597z" fill="#e4934b" transform="scale(0.6886695491989945)"></path>
</g><g transform="translate(1401.95 544.439)">
  <animateTransform attributeName="transform" type="translate" keyTimes="0;1" values="-100 544.4394715751176;1680 544.4394715751176" dur="100s" repeatCount="indefinite" begin="-79.69601785783456s"></animateTransform>
  <path d="M84.717,33.597c0.791-2.503,1.186-5.138,1.186-7.773C85.903,11.594,74.308,0,60.079,0 c-9.881,0-18.445,5.534-22.793,13.702c-1.581-0.527-3.426-0.791-5.138-0.791c-9.486,0-17.128,7.642-17.128,17.128 c0,1.186,0.132,2.372,0.395,3.426C6.719,34.783,0,42.424,0,51.515C0,61.66,8.169,69.829,18.314,69.829h63.373 C91.831,69.829,100,61.66,100,51.515C99.868,42.556,93.281,35.046,84.717,33.597z" fill="#e1e7e7" transform="scale(0.550692122339091)"></path>
</g><g transform="translate(1455.1 14.3321)">
  <animateTransform attributeName="transform" type="translate" keyTimes="0;1" values="-100 14.332135523582492;1680 14.332135523582492" dur="33.333333333333336s" repeatCount="indefinite" begin="-91.10522413375803s"></animateTransform>
  <path d="M84.717,33.597c0.791-2.503,1.186-5.138,1.186-7.773C85.903,11.594,74.308,0,60.079,0 c-9.881,0-18.445,5.534-22.793,13.702c-1.581-0.527-3.426-0.791-5.138-0.791c-9.486,0-17.128,7.642-17.128,17.128 c0,1.186,0.132,2.372,0.395,3.426C6.719,34.783,0,42.424,0,51.515C0,61.66,8.169,69.829,18.314,69.829h63.373 C91.831,69.829,100,61.66,100,51.515C99.868,42.556,93.281,35.046,84.717,33.597z" fill="#e2bb8b" transform="scale(0.5758949989805205)"></path>
</g><g transform="translate(320.486 143.347)">
  <animateTransform attributeName="transform" type="translate" keyTimes="0;1" values="-100 143.34721658363;1680 143.34721658363" dur="100s" repeatCount="indefinite" begin="-18.939649576059832s"></animateTransform>
  <path d="M84.717,33.597c0.791-2.503,1.186-5.138,1.186-7.773C85.903,11.594,74.308,0,60.079,0 c-9.881,0-18.445,5.534-22.793,13.702c-1.581-0.527-3.426-0.791-5.138-0.791c-9.486,0-17.128,7.642-17.128,17.128 c0,1.186,0.132,2.372,0.395,3.426C6.719,34.783,0,42.424,0,51.515C0,61.66,8.169,69.829,18.314,69.829h63.373 C91.831,69.829,100,61.66,100,51.515C99.868,42.556,93.281,35.046,84.717,33.597z" fill="#e2bb8b" transform="scale(0.6130440676426676)"></path>
</g><g transform="translate(318.258 535.006)">
  <animateTransform attributeName="transform" type="translate" keyTimes="0;1" values="-100 535.0056443871455;1680 535.0056443871455" dur="100s" repeatCount="indefinite" begin="-18.814476581790405s"></animateTransform>
  <path d="M84.717,33.597c0.791-2.503,1.186-5.138,1.186-7.773C85.903,11.594,74.308,0,60.079,0 c-9.881,0-18.445,5.534-22.793,13.702c-1.581-0.527-3.426-0.791-5.138-0.791c-9.486,0-17.128,7.642-17.128,17.128 c0,1.186,0.132,2.372,0.395,3.426C6.719,34.783,0,42.424,0,51.515C0,61.66,8.169,69.829,18.314,69.829h63.373 C91.831,69.829,100,61.66,100,51.515C99.868,42.556,93.281,35.046,84.717,33.597z" fill="#e1e7e7" transform="scale(0.503995984283656)"></path>
</g><g transform="translate(666.446 912.266)">
  <animateTransform attributeName="transform" type="translate" keyTimes="0;1" values="-100 912.2660433968692;1680 912.2660433968692" dur="50s" repeatCount="indefinite" begin="-66.84622598095676s"></animateTransform>
  <path d="M84.717,33.597c0.791-2.503,1.186-5.138,1.186-7.773C85.903,11.594,74.308,0,60.079,0 c-9.881,0-18.445,5.534-22.793,13.702c-1.581-0.527-3.426-0.791-5.138-0.791c-9.486,0-17.128,7.642-17.128,17.128 c0,1.186,0.132,2.372,0.395,3.426C6.719,34.783,0,42.424,0,51.515C0,61.66,8.169,69.829,18.314,69.829h63.373 C91.831,69.829,100,61.66,100,51.515C99.868,42.556,93.281,35.046,84.717,33.597z" fill="#e4934b" transform="scale(0.3521246451366012)"></path>
</g><g transform="translate(29.7428 894.597)">
  <animateTransform attributeName="transform" type="translate" keyTimes="0;1" values="-100 894.5970526575701;1680 894.5970526575701" dur="33.333333333333336s" repeatCount="indefinite" begin="-31.079826883888938s"></animateTransform>
  <path d="M84.717,33.597c0.791-2.503,1.186-5.138,1.186-7.773C85.903,11.594,74.308,0,60.079,0 c-9.881,0-18.445,5.534-22.793,13.702c-1.581-0.527-3.426-0.791-5.138-0.791c-9.486,0-17.128,7.642-17.128,17.128 c0,1.186,0.132,2.372,0.395,3.426C6.719,34.783,0,42.424,0,51.515C0,61.66,8.169,69.829,18.314,69.829h63.373 C91.831,69.829,100,61.66,100,51.515C99.868,42.556,93.281,35.046,84.717,33.597z" fill="#e4934b" transform="scale(0.3343761268348013)"></path>
</g><g transform="translate(858.325 673.217)">
  <animateTransform attributeName="transform" type="translate" keyTimes="0;1" values="-100 673.2171256003508;1680 673.2171256003508" dur="33.333333333333336s" repeatCount="indefinite" begin="-46.59635289701256s"></animateTransform>
  <path d="M84.717,33.597c0.791-2.503,1.186-5.138,1.186-7.773C85.903,11.594,74.308,0,60.079,0 c-9.881,0-18.445,5.534-22.793,13.702c-1.581-0.527-3.426-0.791-5.138-0.791c-9.486,0-17.128,7.642-17.128,17.128 c0,1.186,0.132,2.372,0.395,3.426C6.719,34.783,0,42.424,0,51.515C0,61.66,8.169,69.829,18.314,69.829h63.373 C91.831,69.829,100,61.66,100,51.515C99.868,42.556,93.281,35.046,84.717,33.597z" fill="#e1e7e7" transform="scale(0.5553777060800571)"></path>
</g><g transform="translate(597.356 715.134)">
  <animateTransform attributeName="transform" type="translate" keyTimes="0;1" values="-100 715.1341900741705;1680 715.1341900741705" dur="50s" repeatCount="indefinite" begin="-14.905512141612334s"></animateTransform>
  <path d="M84.717,33.597c0.791-2.503,1.186-5.138,1.186-7.773C85.903,11.594,74.308,0,60.079,0 c-9.881,0-18.445,5.534-22.793,13.702c-1.581-0.527-3.426-0.791-5.138-0.791c-9.486,0-17.128,7.642-17.128,17.128 c0,1.186,0.132,2.372,0.395,3.426C6.719,34.783,0,42.424,0,51.515C0,61.66,8.169,69.829,18.314,69.829h63.373 C91.831,69.829,100,61.66,100,51.515C99.868,42.556,93.281,35.046,84.717,33.597z" fill="#e4934b" transform="scale(0.3990593910089994)"></path>
</g><g transform="translate(895.93 92.6616)">
  <animateTransform attributeName="transform" type="translate" keyTimes="0;1" values="-100 92.66158189389803;1680 92.66158189389803" dur="50s" repeatCount="indefinite" begin="-23.292412954215436s"></animateTransform>
  <path d="M84.717,33.597c0.791-2.503,1.186-5.138,1.186-7.773C85.903,11.594,74.308,0,60.079,0 c-9.881,0-18.445,5.534-22.793,13.702c-1.581-0.527-3.426-0.791-5.138-0.791c-9.486,0-17.128,7.642-17.128,17.128 c0,1.186,0.132,2.372,0.395,3.426C6.719,34.783,0,42.424,0,51.515C0,61.66,8.169,69.829,18.314,69.829h63.373 C91.831,69.829,100,61.66,100,51.515C99.868,42.556,93.281,35.046,84.717,33.597z" fill="#e1e7e7" transform="scale(0.47362992030948736)"></path>
</g><g transform="translate(1102.94 218.957)">
  <animateTransform attributeName="transform" type="translate" keyTimes="0;1" values="-100 218.95714654866975;1680 218.95714654866975" dur="33.333333333333336s" repeatCount="indefinite" begin="-17.843856203720623s"></animateTransform>
  <path d="M84.717,33.597c0.791-2.503,1.186-5.138,1.186-7.773C85.903,11.594,74.308,0,60.079,0 c-9.881,0-18.445,5.534-22.793,13.702c-1.581-0.527-3.426-0.791-5.138-0.791c-9.486,0-17.128,7.642-17.128,17.128 c0,1.186,0.132,2.372,0.395,3.426C6.719,34.783,0,42.424,0,51.515C0,61.66,8.169,69.829,18.314,69.829h63.373 C91.831,69.829,100,61.66,100,51.515C99.868,42.556,93.281,35.046,84.717,33.597z" fill="#e4934b" transform="scale(0.5858235035794506)"></path>
</g><g transform="translate(507.206 707.088)">
  <animateTransform attributeName="transform" type="translate" keyTimes="0;1" values="-100 707.0879971114138;1680 707.0879971114138" dur="100s" repeatCount="indefinite" begin="-29.429563736891634s"></animateTransform>
  <path d="M84.717,33.597c0.791-2.503,1.186-5.138,1.186-7.773C85.903,11.594,74.308,0,60.079,0 c-9.881,0-18.445,5.534-22.793,13.702c-1.581-0.527-3.426-0.791-5.138-0.791c-9.486,0-17.128,7.642-17.128,17.128 c0,1.186,0.132,2.372,0.395,3.426C6.719,34.783,0,42.424,0,51.515C0,61.66,8.169,69.829,18.314,69.829h63.373 C91.831,69.829,100,61.66,100,51.515C99.868,42.556,93.281,35.046,84.717,33.597z" fill="#e1e7e7" transform="scale(0.3289982669590148)"></path>
</g><g transform="translate(1351.93 63.9961)">
  <animateTransform attributeName="transform" type="translate" keyTimes="0;1" values="-100 63.996085555377995;1680 63.996085555377995" dur="50s" repeatCount="indefinite" begin="-86.10147875097577s"></animateTransform>
  <path d="M84.717,33.597c0.791-2.503,1.186-5.138,1.186-7.773C85.903,11.594,74.308,0,60.079,0 c-9.881,0-18.445,5.534-22.793,13.702c-1.581-0.527-3.426-0.791-5.138-0.791c-9.486,0-17.128,7.642-17.128,17.128 c0,1.186,0.132,2.372,0.395,3.426C6.719,34.783,0,42.424,0,51.515C0,61.66,8.169,69.829,18.314,69.829h63.373 C91.831,69.829,100,61.66,100,51.515C99.868,42.556,93.281,35.046,84.717,33.597z" fill="#e1e7e7" transform="scale(0.6540837914078186)"></path>
</g><g transform="translate(930.875 263.298)">
  <animateTransform attributeName="transform" type="translate" keyTimes="0;1" values="-100 263.2982658813675;1680 263.2982658813675" dur="50s" repeatCount="indefinite" begin="-24.2740167696818s"></animateTransform>
  <path d="M84.717,33.597c0.791-2.503,1.186-5.138,1.186-7.773C85.903,11.594,74.308,0,60.079,0 c-9.881,0-18.445,5.534-22.793,13.702c-1.581-0.527-3.426-0.791-5.138-0.791c-9.486,0-17.128,7.642-17.128,17.128 c0,1.186,0.132,2.372,0.395,3.426C6.719,34.783,0,42.424,0,51.515C0,61.66,8.169,69.829,18.314,69.829h63.373 C91.831,69.829,100,61.66,100,51.515C99.868,42.556,93.281,35.046,84.717,33.597z" fill="#e2bb8b" transform="scale(0.6317151561564904)"></path>
</g><g transform="translate(-4.23754 254.258)">
  <animateTransform attributeName="transform" type="translate" keyTimes="0;1" values="-100 254.2577476642038;1680 254.2577476642038" dur="100s" repeatCount="indefinite" begin="-0.6967672546700848s"></animateTransform>
  <path d="M84.717,33.597c0.791-2.503,1.186-5.138,1.186-7.773C85.903,11.594,74.308,0,60.079,0 c-9.881,0-18.445,5.534-22.793,13.702c-1.581-0.527-3.426-0.791-5.138-0.791c-9.486,0-17.128,7.642-17.128,17.128 c0,1.186,0.132,2.372,0.395,3.426C6.719,34.783,0,42.424,0,51.515C0,61.66,8.169,69.829,18.314,69.829h63.373 C91.831,69.829,100,61.66,100,51.515C99.868,42.556,93.281,35.046,84.717,33.597z" fill="#e1e7e7" transform="scale(0.5444884084224365)"></path>
</g><g transform="translate(717.319 148.038)">
  <animateTransform attributeName="transform" type="translate" keyTimes="0;1" values="-100 148.03832969237797;1680 148.03832969237797" dur="100s" repeatCount="indefinite" begin="-41.233631464175794s"></animateTransform>
  <path d="M84.717,33.597c0.791-2.503,1.186-5.138,1.186-7.773C85.903,11.594,74.308,0,60.079,0 c-9.881,0-18.445,5.534-22.793,13.702c-1.581-0.527-3.426-0.791-5.138-0.791c-9.486,0-17.128,7.642-17.128,17.128 c0,1.186,0.132,2.372,0.395,3.426C6.719,34.783,0,42.424,0,51.515C0,61.66,8.169,69.829,18.314,69.829h63.373 C91.831,69.829,100,61.66,100,51.515C99.868,42.556,93.281,35.046,84.717,33.597z" fill="#e1e7e7" transform="scale(0.4059801223215695)"></path>
</g><g transform="translate(852.006 937.02)">
  <animateTransform attributeName="transform" type="translate" keyTimes="0;1" values="-100 937.0197385926223;1680 937.0197385926223" dur="100s" repeatCount="indefinite" begin="-48.800357457960864s"></animateTransform>
  <path d="M84.717,33.597c0.791-2.503,1.186-5.138,1.186-7.773C85.903,11.594,74.308,0,60.079,0 c-9.881,0-18.445,5.534-22.793,13.702c-1.581-0.527-3.426-0.791-5.138-0.791c-9.486,0-17.128,7.642-17.128,17.128 c0,1.186,0.132,2.372,0.395,3.426C6.719,34.783,0,42.424,0,51.515C0,61.66,8.169,69.829,18.314,69.829h63.373 C91.831,69.829,100,61.66,100,51.515C99.868,42.556,93.281,35.046,84.717,33.597z" fill="#e2bb8b" transform="scale(0.5662705289940152)"></path>
</g><g transform="translate(226.811 671.453)">
  <animateTransform attributeName="transform" type="translate" keyTimes="0;1" values="-100 671.4531256263261;1680 671.4531256263261" dur="33.333333333333336s" repeatCount="indefinite" begin="-34.770251993848476s"></animateTransform>
  <path d="M84.717,33.597c0.791-2.503,1.186-5.138,1.186-7.773C85.903,11.594,74.308,0,60.079,0 c-9.881,0-18.445,5.534-22.793,13.702c-1.581-0.527-3.426-0.791-5.138-0.791c-9.486,0-17.128,7.642-17.128,17.128 c0,1.186,0.132,2.372,0.395,3.426C6.719,34.783,0,42.424,0,51.515C0,61.66,8.169,69.829,18.314,69.829h63.373 C91.831,69.829,100,61.66,100,51.515C99.868,42.556,93.281,35.046,84.717,33.597z" fill="#e2bb8b" transform="scale(0.3800265670314371)"></path>
</g><g transform="translate(915.731 904.138)">
  <animateTransform attributeName="transform" type="translate" keyTimes="0;1" values="-100 904.1376693877634;1680 904.1376693877634" dur="100s" repeatCount="indefinite" begin="-52.380381761539475s"></animateTransform>
  <path d="M84.717,33.597c0.791-2.503,1.186-5.138,1.186-7.773C85.903,11.594,74.308,0,60.079,0 c-9.881,0-18.445,5.534-22.793,13.702c-1.581-0.527-3.426-0.791-5.138-0.791c-9.486,0-17.128,7.642-17.128,17.128 c0,1.186,0.132,2.372,0.395,3.426C6.719,34.783,0,42.424,0,51.515C0,61.66,8.169,69.829,18.314,69.829h63.373 C91.831,69.829,100,61.66,100,51.515C99.868,42.556,93.281,35.046,84.717,33.597z" fill="#e2bb8b" transform="scale(0.5751673502370237)"></path>
</g><g transform="translate(1088.43 362.032)">
  <animateTransform attributeName="transform" type="translate" keyTimes="0;1" values="-100 362.032359331072;1680 362.032359331072" dur="33.333333333333336s" repeatCount="indefinite" begin="-17.572016681088833s"></animateTransform>
  <path d="M84.717,33.597c0.791-2.503,1.186-5.138,1.186-7.773C85.903,11.594,74.308,0,60.079,0 c-9.881,0-18.445,5.534-22.793,13.702c-1.581-0.527-3.426-0.791-5.138-0.791c-9.486,0-17.128,7.642-17.128,17.128 c0,1.186,0.132,2.372,0.395,3.426C6.719,34.783,0,42.424,0,51.515C0,61.66,8.169,69.829,18.314,69.829h63.373 C91.831,69.829,100,61.66,100,51.515C99.868,42.556,93.281,35.046,84.717,33.597z" fill="#e1e7e7" transform="scale(0.676267695952149)"></path>
</g><g transform="translate(748.995 668.016)">
  <animateTransform attributeName="transform" type="translate" keyTimes="0;1" values="-100 668.0162307840945;1680 668.0162307840945" dur="50s" repeatCount="indefinite" begin="-19.16502118928326s"></animateTransform>
  <path d="M84.717,33.597c0.791-2.503,1.186-5.138,1.186-7.773C85.903,11.594,74.308,0,60.079,0 c-9.881,0-18.445,5.534-22.793,13.702c-1.581-0.527-3.426-0.791-5.138-0.791c-9.486,0-17.128,7.642-17.128,17.128 c0,1.186,0.132,2.372,0.395,3.426C6.719,34.783,0,42.424,0,51.515C0,61.66,8.169,69.829,18.314,69.829h63.373 C91.831,69.829,100,61.66,100,51.515C99.868,42.556,93.281,35.046,84.717,33.597z" fill="#e4934b" transform="scale(0.6288410675895775)"></path>
</g><g transform="translate(386.205 636.174)">
  <animateTransform attributeName="transform" type="translate" keyTimes="0;1" values="-100 636.1738887032084;1680 636.1738887032084" dur="50s" repeatCount="indefinite" begin="-58.974307862512866s"></animateTransform>
  <path d="M84.717,33.597c0.791-2.503,1.186-5.138,1.186-7.773C85.903,11.594,74.308,0,60.079,0 c-9.881,0-18.445,5.534-22.793,13.702c-1.581-0.527-3.426-0.791-5.138-0.791c-9.486,0-17.128,7.642-17.128,17.128 c0,1.186,0.132,2.372,0.395,3.426C6.719,34.783,0,42.424,0,51.515C0,61.66,8.169,69.829,18.314,69.829h63.373 C91.831,69.829,100,61.66,100,51.515C99.868,42.556,93.281,35.046,84.717,33.597z" fill="#e4934b" transform="scale(0.4177273027564058)"></path>
</g><g transform="translate(76.7596 316.537)">
  <animateTransform attributeName="transform" type="translate" keyTimes="0;1" values="-100 316.53668353895637;1680 316.53668353895637" dur="33.333333333333336s" repeatCount="indefinite" begin="-31.960292129424605s"></animateTransform>
  <path d="M84.717,33.597c0.791-2.503,1.186-5.138,1.186-7.773C85.903,11.594,74.308,0,60.079,0 c-9.881,0-18.445,5.534-22.793,13.702c-1.581-0.527-3.426-0.791-5.138-0.791c-9.486,0-17.128,7.642-17.128,17.128 c0,1.186,0.132,2.372,0.395,3.426C6.719,34.783,0,42.424,0,51.515C0,61.66,8.169,69.829,18.314,69.829h63.373 C91.831,69.829,100,61.66,100,51.515C99.868,42.556,93.281,35.046,84.717,33.597z" fill="#e2bb8b" transform="scale(0.668590807467691)"></path>
</g><g transform="translate(1636.89 286.639)">
  <animateTransform attributeName="transform" type="translate" keyTimes="0;1" values="-100 286.6386687387038;1680 286.6386687387038" dur="33.333333333333336s" repeatCount="indefinite" begin="-27.84286099844496s"></animateTransform>
  <path d="M84.717,33.597c0.791-2.503,1.186-5.138,1.186-7.773C85.903,11.594,74.308,0,60.079,0 c-9.881,0-18.445,5.534-22.793,13.702c-1.581-0.527-3.426-0.791-5.138-0.791c-9.486,0-17.128,7.642-17.128,17.128 c0,1.186,0.132,2.372,0.395,3.426C6.719,34.783,0,42.424,0,51.515C0,61.66,8.169,69.829,18.314,69.829h63.373 C91.831,69.829,100,61.66,100,51.515C99.868,42.556,93.281,35.046,84.717,33.597z" fill="#e4934b" transform="scale(0.35937081053279085)"></path>
</g><g transform="translate(1462.4 940.301)">
  <animateTransform attributeName="transform" type="translate" keyTimes="0;1" values="-100 940.3012739404627;1680 940.3012739404627" dur="50s" repeatCount="indefinite" begin="-39.20462063773697s"></animateTransform>
  <path d="M84.717,33.597c0.791-2.503,1.186-5.138,1.186-7.773C85.903,11.594,74.308,0,60.079,0 c-9.881,0-18.445,5.534-22.793,13.702c-1.581-0.527-3.426-0.791-5.138-0.791c-9.486,0-17.128,7.642-17.128,17.128 c0,1.186,0.132,2.372,0.395,3.426C6.719,34.783,0,42.424,0,51.515C0,61.66,8.169,69.829,18.314,69.829h63.373 C91.831,69.829,100,61.66,100,51.515C99.868,42.556,93.281,35.046,84.717,33.597z" fill="#e1e7e7" transform="scale(0.6131681051998438)"></path>
</g><g transform="translate(1065.05 647.862)">
  <animateTransform attributeName="transform" type="translate" keyTimes="0;1" values="-100 647.8618022310075;1680 647.8618022310075" dur="50s" repeatCount="indefinite" begin="-28.04291068178779s"></animateTransform>
  <path d="M84.717,33.597c0.791-2.503,1.186-5.138,1.186-7.773C85.903,11.594,74.308,0,60.079,0 c-9.881,0-18.445,5.534-22.793,13.702c-1.581-0.527-3.426-0.791-5.138-0.791c-9.486,0-17.128,7.642-17.128,17.128 c0,1.186,0.132,2.372,0.395,3.426C6.719,34.783,0,42.424,0,51.515C0,61.66,8.169,69.829,18.314,69.829h63.373 C91.831,69.829,100,61.66,100,51.515C99.868,42.556,93.281,35.046,84.717,33.597z" fill="#e2bb8b" transform="scale(0.6305202039455426)"></path>
</g><g transform="translate(1615.14 266.445)">
  <animateTransform attributeName="transform" type="translate" keyTimes="0;1" values="-100 266.44526965350474;1680 266.44526965350474" dur="50s" repeatCount="indefinite" begin="-93.49480761454664s"></animateTransform>
  <path d="M84.717,33.597c0.791-2.503,1.186-5.138,1.186-7.773C85.903,11.594,74.308,0,60.079,0 c-9.881,0-18.445,5.534-22.793,13.702c-1.581-0.527-3.426-0.791-5.138-0.791c-9.486,0-17.128,7.642-17.128,17.128 c0,1.186,0.132,2.372,0.395,3.426C6.719,34.783,0,42.424,0,51.515C0,61.66,8.169,69.829,18.314,69.829h63.373 C91.831,69.829,100,61.66,100,51.515C99.868,42.556,93.281,35.046,84.717,33.597z" fill="#e2bb8b" transform="scale(0.3941774412098341)"></path>
</g><g transform="translate(332.189 309.806)">
  <animateTransform attributeName="transform" type="translate" keyTimes="0;1" values="-100 309.80563203554823;1680 309.80563203554823" dur="50s" repeatCount="indefinite" begin="-7.45698169081326s"></animateTransform>
  <path d="M84.717,33.597c0.791-2.503,1.186-5.138,1.186-7.773C85.903,11.594,74.308,0,60.079,0 c-9.881,0-18.445,5.534-22.793,13.702c-1.581-0.527-3.426-0.791-5.138-0.791c-9.486,0-17.128,7.642-17.128,17.128 c0,1.186,0.132,2.372,0.395,3.426C6.719,34.783,0,42.424,0,51.515C0,61.66,8.169,69.829,18.314,69.829h63.373 C91.831,69.829,100,61.66,100,51.515C99.868,42.556,93.281,35.046,84.717,33.597z" fill="#e4934b" transform="scale(0.35132590736276914)"></path>
</g><g transform="translate(286.408 284.078)">
  <animateTransform attributeName="transform" type="translate" keyTimes="0;1" values="-100 284.07802668714567;1680 284.07802668714567" dur="33.333333333333336s" repeatCount="indefinite" begin="-69.21962802901614s"></animateTransform>
  <path d="M84.717,33.597c0.791-2.503,1.186-5.138,1.186-7.773C85.903,11.594,74.308,0,60.079,0 c-9.881,0-18.445,5.534-22.793,13.702c-1.581-0.527-3.426-0.791-5.138-0.791c-9.486,0-17.128,7.642-17.128,17.128 c0,1.186,0.132,2.372,0.395,3.426C6.719,34.783,0,42.424,0,51.515C0,61.66,8.169,69.829,18.314,69.829h63.373 C91.831,69.829,100,61.66,100,51.515C99.868,42.556,93.281,35.046,84.717,33.597z" fill="#e1e7e7" transform="scale(0.5457580028439365)"></path>
</g><g transform="translate(1174.95 207.89)">
  <animateTransform attributeName="transform" type="translate" keyTimes="0;1" values="-100 207.88963869320102;1680 207.88963869320102" dur="33.333333333333336s" repeatCount="indefinite" begin="-85.85901919755338s"></animateTransform>
  <path d="M84.717,33.597c0.791-2.503,1.186-5.138,1.186-7.773C85.903,11.594,74.308,0,60.079,0 c-9.881,0-18.445,5.534-22.793,13.702c-1.581-0.527-3.426-0.791-5.138-0.791c-9.486,0-17.128,7.642-17.128,17.128 c0,1.186,0.132,2.372,0.395,3.426C6.719,34.783,0,42.424,0,51.515C0,61.66,8.169,69.829,18.314,69.829h63.373 C91.831,69.829,100,61.66,100,51.515C99.868,42.556,93.281,35.046,84.717,33.597z" fill="#e4934b" transform="scale(0.4261296010590384)"></path>
</g><g transform="translate(1407.48 482.816)">
  <animateTransform attributeName="transform" type="translate" keyTimes="0;1" values="-100 482.816126731836;1680 482.816126731836" dur="50s" repeatCount="indefinite" begin="-37.66190654539756s"></animateTransform>
  <path d="M84.717,33.597c0.791-2.503,1.186-5.138,1.186-7.773C85.903,11.594,74.308,0,60.079,0 c-9.881,0-18.445,5.534-22.793,13.702c-1.581-0.527-3.426-0.791-5.138-0.791c-9.486,0-17.128,7.642-17.128,17.128 c0,1.186,0.132,2.372,0.395,3.426C6.719,34.783,0,42.424,0,51.515C0,61.66,8.169,69.829,18.314,69.829h63.373 C91.831,69.829,100,61.66,100,51.515C99.868,42.556,93.281,35.046,84.717,33.597z" fill="#e4934b" transform="scale(0.6352056724470119)"></path>
</g><g transform="translate(863.72 224.161)">
  <animateTransform attributeName="transform" type="translate" keyTimes="0;1" values="-100 224.16128817707045;1680 224.16128817707045" dur="33.333333333333336s" repeatCount="indefinite" begin="-46.697384368955994s"></animateTransform>
  <path d="M84.717,33.597c0.791-2.503,1.186-5.138,1.186-7.773C85.903,11.594,74.308,0,60.079,0 c-9.881,0-18.445,5.534-22.793,13.702c-1.581-0.527-3.426-0.791-5.138-0.791c-9.486,0-17.128,7.642-17.128,17.128 c0,1.186,0.132,2.372,0.395,3.426C6.719,34.783,0,42.424,0,51.515C0,61.66,8.169,69.829,18.314,69.829h63.373 C91.831,69.829,100,61.66,100,51.515C99.868,42.556,93.281,35.046,84.717,33.597z" fill="#e4934b" transform="scale(0.6536395958104441)"></path>
</g><g transform="translate(992.503 344.624)">
  <animateTransform attributeName="transform" type="translate" keyTimes="0;1" values="-100 344.6236156942806;1680 344.6236156942806" dur="50s" repeatCount="indefinite" begin="-26.005136869019168s"></animateTransform>
  <path d="M84.717,33.597c0.791-2.503,1.186-5.138,1.186-7.773C85.903,11.594,74.308,0,60.079,0 c-9.881,0-18.445,5.534-22.793,13.702c-1.581-0.527-3.426-0.791-5.138-0.791c-9.486,0-17.128,7.642-17.128,17.128 c0,1.186,0.132,2.372,0.395,3.426C6.719,34.783,0,42.424,0,51.515C0,61.66,8.169,69.829,18.314,69.829h63.373 C91.831,69.829,100,61.66,100,51.515C99.868,42.556,93.281,35.046,84.717,33.597z" fill="#e1e7e7" transform="scale(0.3523488024885007)"></path>
</g><g transform="translate(39.758 239.996)">
  <animateTransform attributeName="transform" type="translate" keyTimes="0;1" values="-100 239.99630427157118;1680 239.99630427157118" dur="100s" repeatCount="indefinite" begin="-3.1684287988632445s"></animateTransform>
  <path d="M84.717,33.597c0.791-2.503,1.186-5.138,1.186-7.773C85.903,11.594,74.308,0,60.079,0 c-9.881,0-18.445,5.534-22.793,13.702c-1.581-0.527-3.426-0.791-5.138-0.791c-9.486,0-17.128,7.642-17.128,17.128 c0,1.186,0.132,2.372,0.395,3.426C6.719,34.783,0,42.424,0,51.515C0,61.66,8.169,69.829,18.314,69.829h63.373 C91.831,69.829,100,61.66,100,51.515C99.868,42.556,93.281,35.046,84.717,33.597z" fill="#e4934b" transform="scale(0.6066162944375405)"></path>
</g><g transform="translate(469.626 531.844)">
  <animateTransform attributeName="transform" type="translate" keyTimes="0;1" values="-100 531.8439518643821;1680 531.8439518643821" dur="33.333333333333336s" repeatCount="indefinite" begin="-39.31734404899543s"></animateTransform>
  <path d="M84.717,33.597c0.791-2.503,1.186-5.138,1.186-7.773C85.903,11.594,74.308,0,60.079,0 c-9.881,0-18.445,5.534-22.793,13.702c-1.581-0.527-3.426-0.791-5.138-0.791c-9.486,0-17.128,7.642-17.128,17.128 c0,1.186,0.132,2.372,0.395,3.426C6.719,34.783,0,42.424,0,51.515C0,61.66,8.169,69.829,18.314,69.829h63.373 C91.831,69.829,100,61.66,100,51.515C99.868,42.556,93.281,35.046,84.717,33.597z" fill="#e1e7e7" transform="scale(0.6356542159742525)"></path>
</g><g transform="translate(1057.13 755.286)">
  <animateTransform attributeName="transform" type="translate" keyTimes="0;1" values="-100 755.2862234465705;1680 755.2862234465705" dur="33.333333333333336s" repeatCount="indefinite" begin="-50.31930664022903s"></animateTransform>
  <path d="M84.717,33.597c0.791-2.503,1.186-5.138,1.186-7.773C85.903,11.594,74.308,0,60.079,0 c-9.881,0-18.445,5.534-22.793,13.702c-1.581-0.527-3.426-0.791-5.138-0.791c-9.486,0-17.128,7.642-17.128,17.128 c0,1.186,0.132,2.372,0.395,3.426C6.719,34.783,0,42.424,0,51.515C0,61.66,8.169,69.829,18.314,69.829h63.373 C91.831,69.829,100,61.66,100,51.515C99.868,42.556,93.281,35.046,84.717,33.597z" fill="#e2bb8b" transform="scale(0.5095950868716868)"></path>
</g><g transform="translate(16.0533 740.38)">
  <animateTransform attributeName="transform" type="translate" keyTimes="0;1" values="-100 740.3801808484924;1680 740.3801808484924" dur="33.333333333333336s" repeatCount="indefinite" begin="-64.15680341228547s"></animateTransform>
  <path d="M84.717,33.597c0.791-2.503,1.186-5.138,1.186-7.773C85.903,11.594,74.308,0,60.079,0 c-9.881,0-18.445,5.534-22.793,13.702c-1.581-0.527-3.426-0.791-5.138-0.791c-9.486,0-17.128,7.642-17.128,17.128 c0,1.186,0.132,2.372,0.395,3.426C6.719,34.783,0,42.424,0,51.515C0,61.66,8.169,69.829,18.314,69.829h63.373 C91.831,69.829,100,61.66,100,51.515C99.868,42.556,93.281,35.046,84.717,33.597z" fill="#e4934b" transform="scale(0.39392844000529853)"></path>
</g><g transform="translate(902.236 699.211)">
  <animateTransform attributeName="transform" type="translate" keyTimes="0;1" values="-100 699.2112051819859;1680 699.2112051819859" dur="33.333333333333336s" repeatCount="indefinite" begin="-47.41865408936777s"></animateTransform>
  <path d="M84.717,33.597c0.791-2.503,1.186-5.138,1.186-7.773C85.903,11.594,74.308,0,60.079,0 c-9.881,0-18.445,5.534-22.793,13.702c-1.581-0.527-3.426-0.791-5.138-0.791c-9.486,0-17.128,7.642-17.128,17.128 c0,1.186,0.132,2.372,0.395,3.426C6.719,34.783,0,42.424,0,51.515C0,61.66,8.169,69.829,18.314,69.829h63.373 C91.831,69.829,100,61.66,100,51.515C99.868,42.556,93.281,35.046,84.717,33.597z" fill="#e1e7e7" transform="scale(0.3255912511388304)"></path>
</g><g transform="translate(1577.56 420.54)">
  <animateTransform attributeName="transform" type="translate" keyTimes="0;1" values="-100 420.54026916437397;1680 420.54026916437397" dur="100s" repeatCount="indefinite" begin="-89.56170466734349s"></animateTransform>
  <path d="M84.717,33.597c0.791-2.503,1.186-5.138,1.186-7.773C85.903,11.594,74.308,0,60.079,0 c-9.881,0-18.445,5.534-22.793,13.702c-1.581-0.527-3.426-0.791-5.138-0.791c-9.486,0-17.128,7.642-17.128,17.128 c0,1.186,0.132,2.372,0.395,3.426C6.719,34.783,0,42.424,0,51.515C0,61.66,8.169,69.829,18.314,69.829h63.373 C91.831,69.829,100,61.66,100,51.515C99.868,42.556,93.281,35.046,84.717,33.597z" fill="#e2bb8b" transform="scale(0.6218117223477753)"></path>
</g><g transform="translate(1586.38 392)">
  <animateTransform attributeName="transform" type="translate" keyTimes="0;1" values="-100 391.9995734642011;1680 391.9995734642011" dur="50s" repeatCount="indefinite" begin="-42.6870649992834s"></animateTransform>
  <path d="M84.717,33.597c0.791-2.503,1.186-5.138,1.186-7.773C85.903,11.594,74.308,0,60.079,0 c-9.881,0-18.445,5.534-22.793,13.702c-1.581-0.527-3.426-0.791-5.138-0.791c-9.486,0-17.128,7.642-17.128,17.128 c0,1.186,0.132,2.372,0.395,3.426C6.719,34.783,0,42.424,0,51.515C0,61.66,8.169,69.829,18.314,69.829h63.373 C91.831,69.829,100,61.66,100,51.515C99.868,42.556,93.281,35.046,84.717,33.597z" fill="#e1e7e7" transform="scale(0.3048487062676327)"></path>
</g><g transform="translate(145.251 451.557)">
  <animateTransform attributeName="transform" type="translate" keyTimes="0;1" values="-100 451.5574225549194;1680 451.5574225549194" dur="100s" repeatCount="indefinite" begin="-9.09502750654578s"></animateTransform>
  <path d="M84.717,33.597c0.791-2.503,1.186-5.138,1.186-7.773C85.903,11.594,74.308,0,60.079,0 c-9.881,0-18.445,5.534-22.793,13.702c-1.581-0.527-3.426-0.791-5.138-0.791c-9.486,0-17.128,7.642-17.128,17.128 c0,1.186,0.132,2.372,0.395,3.426C6.719,34.783,0,42.424,0,51.515C0,61.66,8.169,69.829,18.314,69.829h63.373 C91.831,69.829,100,61.66,100,51.515C99.868,42.556,93.281,35.046,84.717,33.597z" fill="#e1e7e7" transform="scale(0.4524635187659835)"></path>
</g><g transform="translate(1228.98 737.209)">
  <animateTransform attributeName="transform" type="translate" keyTimes="0;1" values="-100 737.2087954484613;1680 737.2087954484613" dur="33.333333333333336s" repeatCount="indefinite" begin="-20.20406986254273s"></animateTransform>
  <path d="M84.717,33.597c0.791-2.503,1.186-5.138,1.186-7.773C85.903,11.594,74.308,0,60.079,0 c-9.881,0-18.445,5.534-22.793,13.702c-1.581-0.527-3.426-0.791-5.138-0.791c-9.486,0-17.128,7.642-17.128,17.128 c0,1.186,0.132,2.372,0.395,3.426C6.719,34.783,0,42.424,0,51.515C0,61.66,8.169,69.829,18.314,69.829h63.373 C91.831,69.829,100,61.66,100,51.515C99.868,42.556,93.281,35.046,84.717,33.597z" fill="#e2bb8b" transform="scale(0.6739710169927564)"></path>
</g><g transform="translate(1256.1 649.193)">
  <animateTransform attributeName="transform" type="translate" keyTimes="0;1" values="-100 649.193454837393;1680 649.193454837393" dur="50s" repeatCount="indefinite" begin="-83.40964535124449s"></animateTransform>
  <path d="M84.717,33.597c0.791-2.503,1.186-5.138,1.186-7.773C85.903,11.594,74.308,0,60.079,0 c-9.881,0-18.445,5.534-22.793,13.702c-1.581-0.527-3.426-0.791-5.138-0.791c-9.486,0-17.128,7.642-17.128,17.128 c0,1.186,0.132,2.372,0.395,3.426C6.719,34.783,0,42.424,0,51.515C0,61.66,8.169,69.829,18.314,69.829h63.373 C91.831,69.829,100,61.66,100,51.515C99.868,42.556,93.281,35.046,84.717,33.597z" fill="#e4934b" transform="scale(0.33575243485789114)"></path>
</g><g transform="translate(1230.1 774.319)">
  <animateTransform attributeName="transform" type="translate" keyTimes="0;1" values="-100 774.3194060344197;1680 774.3194060344197" dur="100s" repeatCount="indefinite" begin="-70.04171377538401s"></animateTransform>
  <path d="M84.717,33.597c0.791-2.503,1.186-5.138,1.186-7.773C85.903,11.594,74.308,0,60.079,0 c-9.881,0-18.445,5.534-22.793,13.702c-1.581-0.527-3.426-0.791-5.138-0.791c-9.486,0-17.128,7.642-17.128,17.128 c0,1.186,0.132,2.372,0.395,3.426C6.719,34.783,0,42.424,0,51.515C0,61.66,8.169,69.829,18.314,69.829h63.373 C91.831,69.829,100,61.66,100,51.515C99.868,42.556,93.281,35.046,84.717,33.597z" fill="#e2bb8b" transform="scale(0.5082427643594473)"></path>
</g><g transform="translate(1239.93 885.475)">
  <animateTransform attributeName="transform" type="translate" keyTimes="0;1" values="-100 885.4750391784675;1680 885.4750391784675" dur="33.333333333333336s" repeatCount="indefinite" begin="-87.07593232763817s"></animateTransform>
  <path d="M84.717,33.597c0.791-2.503,1.186-5.138,1.186-7.773C85.903,11.594,74.308,0,60.079,0 c-9.881,0-18.445,5.534-22.793,13.702c-1.581-0.527-3.426-0.791-5.138-0.791c-9.486,0-17.128,7.642-17.128,17.128 c0,1.186,0.132,2.372,0.395,3.426C6.719,34.783,0,42.424,0,51.515C0,61.66,8.169,69.829,18.314,69.829h63.373 C91.831,69.829,100,61.66,100,51.515C99.868,42.556,93.281,35.046,84.717,33.597z" fill="#e4934b" transform="scale(0.43648167817623684)"></path>
</g><g transform="translate(1615.16 247.609)">
  <animateTransform attributeName="transform" type="translate" keyTimes="0;1" values="-100 247.60913322447692;1680 247.60913322447692" dur="50s" repeatCount="indefinite" begin="-43.49560047603055s"></animateTransform>
  <path d="M84.717,33.597c0.791-2.503,1.186-5.138,1.186-7.773C85.903,11.594,74.308,0,60.079,0 c-9.881,0-18.445,5.534-22.793,13.702c-1.581-0.527-3.426-0.791-5.138-0.791c-9.486,0-17.128,7.642-17.128,17.128 c0,1.186,0.132,2.372,0.395,3.426C6.719,34.783,0,42.424,0,51.515C0,61.66,8.169,69.829,18.314,69.829h63.373 C91.831,69.829,100,61.66,100,51.515C99.868,42.556,93.281,35.046,84.717,33.597z" fill="#e2bb8b" transform="scale(0.37590770953426234)"></path>
</g><g transform="translate(18.8247 499.741)">
  <animateTransform attributeName="transform" type="translate" keyTimes="0;1" values="-100 499.74143618697786;1680 499.74143618697786" dur="33.333333333333336s" repeatCount="indefinite" begin="-30.875369041215457s"></animateTransform>
  <path d="M84.717,33.597c0.791-2.503,1.186-5.138,1.186-7.773C85.903,11.594,74.308,0,60.079,0 c-9.881,0-18.445,5.534-22.793,13.702c-1.581-0.527-3.426-0.791-5.138-0.791c-9.486,0-17.128,7.642-17.128,17.128 c0,1.186,0.132,2.372,0.395,3.426C6.719,34.783,0,42.424,0,51.515C0,61.66,8.169,69.829,18.314,69.829h63.373 C91.831,69.829,100,61.66,100,51.515C99.868,42.556,93.281,35.046,84.717,33.597z" fill="#e4934b" transform="scale(0.3904008173733287)"></path>
</g><g transform="translate(578.502 929.802)">
  <animateTransform attributeName="transform" type="translate" keyTimes="0;1" values="-100 929.8016877209664;1680 929.8016877209664" dur="33.333333333333336s" repeatCount="indefinite" begin="-74.68955719229872s"></animateTransform>
  <path d="M84.717,33.597c0.791-2.503,1.186-5.138,1.186-7.773C85.903,11.594,74.308,0,60.079,0 c-9.881,0-18.445,5.534-22.793,13.702c-1.581-0.527-3.426-0.791-5.138-0.791c-9.486,0-17.128,7.642-17.128,17.128 c0,1.186,0.132,2.372,0.395,3.426C6.719,34.783,0,42.424,0,51.515C0,61.66,8.169,69.829,18.314,69.829h63.373 C91.831,69.829,100,61.66,100,51.515C99.868,42.556,93.281,35.046,84.717,33.597z" fill="#e1e7e7" transform="scale(0.3623895108220943)"></path>
</g><g transform="translate(1417.59 538.018)">
  <animateTransform attributeName="transform" type="translate" keyTimes="0;1" values="-100 538.0179371444697;1680 538.0179371444697" dur="100s" repeatCount="indefinite" begin="-80.57480010306793s"></animateTransform>
  <path d="M84.717,33.597c0.791-2.503,1.186-5.138,1.186-7.773C85.903,11.594,74.308,0,60.079,0 c-9.881,0-18.445,5.534-22.793,13.702c-1.581-0.527-3.426-0.791-5.138-0.791c-9.486,0-17.128,7.642-17.128,17.128 c0,1.186,0.132,2.372,0.395,3.426C6.719,34.783,0,42.424,0,51.515C0,61.66,8.169,69.829,18.314,69.829h63.373 C91.831,69.829,100,61.66,100,51.515C99.868,42.556,93.281,35.046,84.717,33.597z" fill="#e2bb8b" transform="scale(0.483576307014005)"></path>
</g><g transform="translate(-99.8389 609.344)">
  <animateTransform attributeName="transform" type="translate" keyTimes="0;1" values="-100 609.3435888424417;1680 609.3435888424417" dur="33.333333333333336s" repeatCount="indefinite" begin="-61.98653831305787s"></animateTransform>
  <path d="M84.717,33.597c0.791-2.503,1.186-5.138,1.186-7.773C85.903,11.594,74.308,0,60.079,0 c-9.881,0-18.445,5.534-22.793,13.702c-1.581-0.527-3.426-0.791-5.138-0.791c-9.486,0-17.128,7.642-17.128,17.128 c0,1.186,0.132,2.372,0.395,3.426C6.719,34.783,0,42.424,0,51.515C0,61.66,8.169,69.829,18.314,69.829h63.373 C91.831,69.829,100,61.66,100,51.515C99.868,42.556,93.281,35.046,84.717,33.597z" fill="#e2bb8b" transform="scale(0.4879128143134842)"></path>
</g><g transform="translate(440.715 610.38)">
  <animateTransform attributeName="transform" type="translate" keyTimes="0;1" values="-100 610.3803380992691;1680 610.3803380992691" dur="100s" repeatCount="indefinite" begin="-25.694107615203915s"></animateTransform>
  <path d="M84.717,33.597c0.791-2.503,1.186-5.138,1.186-7.773C85.903,11.594,74.308,0,60.079,0 c-9.881,0-18.445,5.534-22.793,13.702c-1.581-0.527-3.426-0.791-5.138-0.791c-9.486,0-17.128,7.642-17.128,17.128 c0,1.186,0.132,2.372,0.395,3.426C6.719,34.783,0,42.424,0,51.515C0,61.66,8.169,69.829,18.314,69.829h63.373 C91.831,69.829,100,61.66,100,51.515C99.868,42.556,93.281,35.046,84.717,33.597z" fill="#e1e7e7" transform="scale(0.359253266556752)"></path>
</g><g transform="translate(524.488 16.9433)">
  <animateTransform attributeName="transform" type="translate" keyTimes="0;1" values="-100 16.943317717877985;1680 16.943317717877985" dur="100s" repeatCount="indefinite" begin="-30.40047456646394s"></animateTransform>
  <path d="M84.717,33.597c0.791-2.503,1.186-5.138,1.186-7.773C85.903,11.594,74.308,0,60.079,0 c-9.881,0-18.445,5.534-22.793,13.702c-1.581-0.527-3.426-0.791-5.138-0.791c-9.486,0-17.128,7.642-17.128,17.128 c0,1.186,0.132,2.372,0.395,3.426C6.719,34.783,0,42.424,0,51.515C0,61.66,8.169,69.829,18.314,69.829h63.373 C91.831,69.829,100,61.66,100,51.515C99.868,42.556,93.281,35.046,84.717,33.597z" fill="#e4934b" transform="scale(0.5898353201553985)"></path>
</g><g transform="translate(814.917 199.609)">
  <animateTransform attributeName="transform" type="translate" keyTimes="0;1" values="-100 199.60931969823403;1680 199.60931969823403" dur="50s" repeatCount="indefinite" begin="-21.016757995239463s"></animateTransform>
  <path d="M84.717,33.597c0.791-2.503,1.186-5.138,1.186-7.773C85.903,11.594,74.308,0,60.079,0 c-9.881,0-18.445,5.534-22.793,13.702c-1.581-0.527-3.426-0.791-5.138-0.791c-9.486,0-17.128,7.642-17.128,17.128 c0,1.186,0.132,2.372,0.395,3.426C6.719,34.783,0,42.424,0,51.515C0,61.66,8.169,69.829,18.314,69.829h63.373 C91.831,69.829,100,61.66,100,51.515C99.868,42.556,93.281,35.046,84.717,33.597z" fill="#e1e7e7" transform="scale(0.5587982098572886)"></path>
</g><g transform="translate(1307.32 402.366)">
  <animateTransform attributeName="transform" type="translate" keyTimes="0;1" values="-100 402.36644327322244;1680 402.36644327322244" dur="100s" repeatCount="indefinite" begin="-74.37964797764288s"></animateTransform>
  <path d="M84.717,33.597c0.791-2.503,1.186-5.138,1.186-7.773C85.903,11.594,74.308,0,60.079,0 c-9.881,0-18.445,5.534-22.793,13.702c-1.581-0.527-3.426-0.791-5.138-0.791c-9.486,0-17.128,7.642-17.128,17.128 c0,1.186,0.132,2.372,0.395,3.426C6.719,34.783,0,42.424,0,51.515C0,61.66,8.169,69.829,18.314,69.829h63.373 C91.831,69.829,100,61.66,100,51.515C99.868,42.556,93.281,35.046,84.717,33.597z" fill="#e2bb8b" transform="scale(0.6109337345435761)"></path>
</g><g transform="translate(445.279 88.4927)">
  <animateTransform attributeName="transform" type="translate" keyTimes="0;1" values="-100 88.49271152579335;1680 88.49271152579335" dur="100s" repeatCount="indefinite" begin="-25.950477198765626s"></animateTransform>
  <path d="M84.717,33.597c0.791-2.503,1.186-5.138,1.186-7.773C85.903,11.594,74.308,0,60.079,0 c-9.881,0-18.445,5.534-22.793,13.702c-1.581-0.527-3.426-0.791-5.138-0.791c-9.486,0-17.128,7.642-17.128,17.128 c0,1.186,0.132,2.372,0.395,3.426C6.719,34.783,0,42.424,0,51.515C0,61.66,8.169,69.829,18.314,69.829h63.373 C91.831,69.829,100,61.66,100,51.515C99.868,42.556,93.281,35.046,84.717,33.597z" fill="#e4934b" transform="scale(0.53206171669937)"></path>
</g><g transform="translate(324.604 459.237)">
  <animateTransform attributeName="transform" type="translate" keyTimes="0;1" values="-100 459.23701145508954;1680 459.23701145508954" dur="100s" repeatCount="indefinite" begin="-19.171003374379495s"></animateTransform>
  <path d="M84.717,33.597c0.791-2.503,1.186-5.138,1.186-7.773C85.903,11.594,74.308,0,60.079,0 c-9.881,0-18.445,5.534-22.793,13.702c-1.581-0.527-3.426-0.791-5.138-0.791c-9.486,0-17.128,7.642-17.128,17.128 c0,1.186,0.132,2.372,0.395,3.426C6.719,34.783,0,42.424,0,51.515C0,61.66,8.169,69.829,18.314,69.829h63.373 C91.831,69.829,100,61.66,100,51.515C99.868,42.556,93.281,35.046,84.717,33.597z" fill="#e2bb8b" transform="scale(0.5890369596213435)"></path>
</g><g transform="translate(376.996 69.6573)">
  <animateTransform attributeName="transform" type="translate" keyTimes="0;1" values="-100 69.65734136422617;1680 69.65734136422617" dur="50s" repeatCount="indefinite" begin="-8.715606719387427s"></animateTransform>
  <path d="M84.717,33.597c0.791-2.503,1.186-5.138,1.186-7.773C85.903,11.594,74.308,0,60.079,0 c-9.881,0-18.445,5.534-22.793,13.702c-1.581-0.527-3.426-0.791-5.138-0.791c-9.486,0-17.128,7.642-17.128,17.128 c0,1.186,0.132,2.372,0.395,3.426C6.719,34.783,0,42.424,0,51.515C0,61.66,8.169,69.829,18.314,69.829h63.373 C91.831,69.829,100,61.66,100,51.515C99.868,42.556,93.281,35.046,84.717,33.597z" fill="#e4934b" transform="scale(0.4830585372757045)"></path>
</g><g transform="translate(853.858 492.817)">
  <animateTransform attributeName="transform" type="translate" keyTimes="0;1" values="-100 492.81672173214974;1680 492.81672173214974" dur="100s" repeatCount="indefinite" begin="-48.90437295776805s"></animateTransform>
  <path d="M84.717,33.597c0.791-2.503,1.186-5.138,1.186-7.773C85.903,11.594,74.308,0,60.079,0 c-9.881,0-18.445,5.534-22.793,13.702c-1.581-0.527-3.426-0.791-5.138-0.791c-9.486,0-17.128,7.642-17.128,17.128 c0,1.186,0.132,2.372,0.395,3.426C6.719,34.783,0,42.424,0,51.515C0,61.66,8.169,69.829,18.314,69.829h63.373 C91.831,69.829,100,61.66,100,51.515C99.868,42.556,93.281,35.046,84.717,33.597z" fill="#e2bb8b" transform="scale(0.512127154284207)"></path>
</g><g transform="translate(276.222 690.683)">
  <animateTransform attributeName="transform" type="translate" keyTimes="0;1" values="-100 690.6830371818769;1680 690.6830371818769" dur="100s" repeatCount="indefinite" begin="-16.452948682299372s"></animateTransform>
  <path d="M84.717,33.597c0.791-2.503,1.186-5.138,1.186-7.773C85.903,11.594,74.308,0,60.079,0 c-9.881,0-18.445,5.534-22.793,13.702c-1.581-0.527-3.426-0.791-5.138-0.791c-9.486,0-17.128,7.642-17.128,17.128 c0,1.186,0.132,2.372,0.395,3.426C6.719,34.783,0,42.424,0,51.515C0,61.66,8.169,69.829,18.314,69.829h63.373 C91.831,69.829,100,61.66,100,51.515C99.868,42.556,93.281,35.046,84.717,33.597z" fill="#e1e7e7" transform="scale(0.34751541224316695)"></path>
</g><g transform="translate(933.274 79.4267)">
  <animateTransform attributeName="transform" type="translate" keyTimes="0;1" values="-100 79.42673770731055;1680 79.42673770731055" dur="50s" repeatCount="indefinite" begin="-74.34141289160316s"></animateTransform>
  <path d="M84.717,33.597c0.791-2.503,1.186-5.138,1.186-7.773C85.903,11.594,74.308,0,60.079,0 c-9.881,0-18.445,5.534-22.793,13.702c-1.581-0.527-3.426-0.791-5.138-0.791c-9.486,0-17.128,7.642-17.128,17.128 c0,1.186,0.132,2.372,0.395,3.426C6.719,34.783,0,42.424,0,51.515C0,61.66,8.169,69.829,18.314,69.829h63.373 C91.831,69.829,100,61.66,100,51.515C99.868,42.556,93.281,35.046,84.717,33.597z" fill="#e4934b" transform="scale(0.6971389594831503)"></path>
</g><g transform="translate(1261.4 17.4039)">
  <animateTransform attributeName="transform" type="translate" keyTimes="0;1" values="-100 17.403937686058413;1680 17.403937686058413" dur="50s" repeatCount="indefinite" begin="-83.5583535708715s"></animateTransform>
  <path d="M84.717,33.597c0.791-2.503,1.186-5.138,1.186-7.773C85.903,11.594,74.308,0,60.079,0 c-9.881,0-18.445,5.534-22.793,13.702c-1.581-0.527-3.426-0.791-5.138-0.791c-9.486,0-17.128,7.642-17.128,17.128 c0,1.186,0.132,2.372,0.395,3.426C6.719,34.783,0,42.424,0,51.515C0,61.66,8.169,69.829,18.314,69.829h63.373 C91.831,69.829,100,61.66,100,51.515C99.868,42.556,93.281,35.046,84.717,33.597z" fill="#e2bb8b" transform="scale(0.4332380078678901)"></path>
</g><g transform="translate(743.748 919.105)">
  <animateTransform attributeName="transform" type="translate" keyTimes="0;1" values="-100 919.1048191559856;1680 919.1048191559856" dur="100s" repeatCount="indefinite" begin="-42.71842084707354s"></animateTransform>
  <path d="M84.717,33.597c0.791-2.503,1.186-5.138,1.186-7.773C85.903,11.594,74.308,0,60.079,0 c-9.881,0-18.445,5.534-22.793,13.702c-1.581-0.527-3.426-0.791-5.138-0.791c-9.486,0-17.128,7.642-17.128,17.128 c0,1.186,0.132,2.372,0.395,3.426C6.719,34.783,0,42.424,0,51.515C0,61.66,8.169,69.829,18.314,69.829h63.373 C91.831,69.829,100,61.66,100,51.515C99.868,42.556,93.281,35.046,84.717,33.597z" fill="#e1e7e7" transform="scale(0.6746364631951018)"></path>
</g><g transform="translate(81.5542 304.554)">
  <animateTransform attributeName="transform" type="translate" keyTimes="0;1" values="-100 304.5536806492722;1680 304.5536806492722" dur="50s" repeatCount="indefinite" begin="-0.4166910565472874s"></animateTransform>
  <path d="M84.717,33.597c0.791-2.503,1.186-5.138,1.186-7.773C85.903,11.594,74.308,0,60.079,0 c-9.881,0-18.445,5.534-22.793,13.702c-1.581-0.527-3.426-0.791-5.138-0.791c-9.486,0-17.128,7.642-17.128,17.128 c0,1.186,0.132,2.372,0.395,3.426C6.719,34.783,0,42.424,0,51.515C0,61.66,8.169,69.829,18.314,69.829h63.373 C91.831,69.829,100,61.66,100,51.515C99.868,42.556,93.281,35.046,84.717,33.597z" fill="#e2bb8b" transform="scale(0.4892990270490404)"></path>
</g><g transform="translate(23.2246 413.319)">
  <animateTransform attributeName="transform" type="translate" keyTimes="0;1" values="-100 413.31944008529643;1680 413.31944008529643" dur="50s" repeatCount="indefinite" begin="-48.77821840353593s"></animateTransform>
  <path d="M84.717,33.597c0.791-2.503,1.186-5.138,1.186-7.773C85.903,11.594,74.308,0,60.079,0 c-9.881,0-18.445,5.534-22.793,13.702c-1.581-0.527-3.426-0.791-5.138-0.791c-9.486,0-17.128,7.642-17.128,17.128 c0,1.186,0.132,2.372,0.395,3.426C6.719,34.783,0,42.424,0,51.515C0,61.66,8.169,69.829,18.314,69.829h63.373 C91.831,69.829,100,61.66,100,51.515C99.868,42.556,93.281,35.046,84.717,33.597z" fill="#e2bb8b" transform="scale(0.30180033687766755)"></path>
</g><g transform="translate(65.9139 392.482)">
  <animateTransform attributeName="transform" type="translate" keyTimes="0;1" values="-100 392.48173691764976;1680 392.48173691764976" dur="100s" repeatCount="indefinite" begin="-4.637861574363438s"></animateTransform>
  <path d="M84.717,33.597c0.791-2.503,1.186-5.138,1.186-7.773C85.903,11.594,74.308,0,60.079,0 c-9.881,0-18.445,5.534-22.793,13.702c-1.581-0.527-3.426-0.791-5.138-0.791c-9.486,0-17.128,7.642-17.128,17.128 c0,1.186,0.132,2.372,0.395,3.426C6.719,34.783,0,42.424,0,51.515C0,61.66,8.169,69.829,18.314,69.829h63.373 C91.831,69.829,100,61.66,100,51.515C99.868,42.556,93.281,35.046,84.717,33.597z" fill="#e2bb8b" transform="scale(0.6326419913026697)"></path>
</g><g transform="translate(655.089 173.559)">
  <animateTransform attributeName="transform" type="translate" keyTimes="0;1" values="-100 173.5587016669307;1680 173.5587016669307" dur="33.333333333333336s" repeatCount="indefinite" begin="-76.12376702592543s"></animateTransform>
  <path d="M84.717,33.597c0.791-2.503,1.186-5.138,1.186-7.773C85.903,11.594,74.308,0,60.079,0 c-9.881,0-18.445,5.534-22.793,13.702c-1.581-0.527-3.426-0.791-5.138-0.791c-9.486,0-17.128,7.642-17.128,17.128 c0,1.186,0.132,2.372,0.395,3.426C6.719,34.783,0,42.424,0,51.515C0,61.66,8.169,69.829,18.314,69.829h63.373 C91.831,69.829,100,61.66,100,51.515C99.868,42.556,93.281,35.046,84.717,33.597z" fill="#e2bb8b" transform="scale(0.3273339793742791)"></path>
</g><g transform="translate(972.938 841.174)">
  <animateTransform attributeName="transform" type="translate" keyTimes="0;1" values="-100 841.1738403430546;1680 841.1738403430546" dur="50s" repeatCount="indefinite" begin="-25.45556709434116s"></animateTransform>
  <path d="M84.717,33.597c0.791-2.503,1.186-5.138,1.186-7.773C85.903,11.594,74.308,0,60.079,0 c-9.881,0-18.445,5.534-22.793,13.702c-1.581-0.527-3.426-0.791-5.138-0.791c-9.486,0-17.128,7.642-17.128,17.128 c0,1.186,0.132,2.372,0.395,3.426C6.719,34.783,0,42.424,0,51.515C0,61.66,8.169,69.829,18.314,69.829h63.373 C91.831,69.829,100,61.66,100,51.515C99.868,42.556,93.281,35.046,84.717,33.597z" fill="#e1e7e7" transform="scale(0.6756667320442307)"></path>
</g><g transform="translate(1002.65 187.032)">
  <animateTransform attributeName="transform" type="translate" keyTimes="0;1" values="-100 187.03211977383165;1680 187.03211977383165" dur="50s" repeatCount="indefinite" begin="-76.29013336078128s"></animateTransform>
  <path d="M84.717,33.597c0.791-2.503,1.186-5.138,1.186-7.773C85.903,11.594,74.308,0,60.079,0 c-9.881,0-18.445,5.534-22.793,13.702c-1.581-0.527-3.426-0.791-5.138-0.791c-9.486,0-17.128,7.642-17.128,17.128 c0,1.186,0.132,2.372,0.395,3.426C6.719,34.783,0,42.424,0,51.515C0,61.66,8.169,69.829,18.314,69.829h63.373 C91.831,69.829,100,61.66,100,51.515C99.868,42.556,93.281,35.046,84.717,33.597z" fill="#e1e7e7" transform="scale(0.36084510796495384)"></path>
</g><g transform="translate(1023.38 530.351)">
  <animateTransform attributeName="transform" type="translate" keyTimes="0;1" values="-100 530.350996652352;1680 530.350996652352" dur="50s" repeatCount="indefinite" begin="-76.87248684718068s"></animateTransform>
  <path d="M84.717,33.597c0.791-2.503,1.186-5.138,1.186-7.773C85.903,11.594,74.308,0,60.079,0 c-9.881,0-18.445,5.534-22.793,13.702c-1.581-0.527-3.426-0.791-5.138-0.791c-9.486,0-17.128,7.642-17.128,17.128 c0,1.186,0.132,2.372,0.395,3.426C6.719,34.783,0,42.424,0,51.515C0,61.66,8.169,69.829,18.314,69.829h63.373 C91.831,69.829,100,61.66,100,51.515C99.868,42.556,93.281,35.046,84.717,33.597z" fill="#e1e7e7" transform="scale(0.6769411524937237)"></path>
</g><g transform="translate(1647.86 876.263)">
  <animateTransform attributeName="transform" type="translate" keyTimes="0;1" values="-100 876.2629512411997;1680 876.2629512411997" dur="33.333333333333336s" repeatCount="indefinite" begin="-61.381570084890015s"></animateTransform>
  <path d="M84.717,33.597c0.791-2.503,1.186-5.138,1.186-7.773C85.903,11.594,74.308,0,60.079,0 c-9.881,0-18.445,5.534-22.793,13.702c-1.581-0.527-3.426-0.791-5.138-0.791c-9.486,0-17.128,7.642-17.128,17.128 c0,1.186,0.132,2.372,0.395,3.426C6.719,34.783,0,42.424,0,51.515C0,61.66,8.169,69.829,18.314,69.829h63.373 C91.831,69.829,100,61.66,100,51.515C99.868,42.556,93.281,35.046,84.717,33.597z" fill="#e1e7e7" transform="scale(0.38791861820681894)"></path>
</g><g transform="translate(889.997 718.296)">
  <animateTransform attributeName="transform" type="translate" keyTimes="0;1" values="-100 718.2959097088545;1680 718.2959097088545" dur="100s" repeatCount="indefinite" begin="-50.93466349890533s"></animateTransform>
  <path d="M84.717,33.597c0.791-2.503,1.186-5.138,1.186-7.773C85.903,11.594,74.308,0,60.079,0 c-9.881,0-18.445,5.534-22.793,13.702c-1.581-0.527-3.426-0.791-5.138-0.791c-9.486,0-17.128,7.642-17.128,17.128 c0,1.186,0.132,2.372,0.395,3.426C6.719,34.783,0,42.424,0,51.515C0,61.66,8.169,69.829,18.314,69.829h63.373 C91.831,69.829,100,61.66,100,51.515C99.868,42.556,93.281,35.046,84.717,33.597z" fill="#e4934b" transform="scale(0.40529386227935243)"></path>
</g><g transform="translate(-17.5029 306.378)">
  <animateTransform attributeName="transform" type="translate" keyTimes="0;1" values="-100 306.3779000358477;1680 306.3779000358477" dur="33.333333333333336s" repeatCount="indefinite" begin="-30.195077762581956s"></animateTransform>
  <path d="M84.717,33.597c0.791-2.503,1.186-5.138,1.186-7.773C85.903,11.594,74.308,0,60.079,0 c-9.881,0-18.445,5.534-22.793,13.702c-1.581-0.527-3.426-0.791-5.138-0.791c-9.486,0-17.128,7.642-17.128,17.128 c0,1.186,0.132,2.372,0.395,3.426C6.719,34.783,0,42.424,0,51.515C0,61.66,8.169,69.829,18.314,69.829h63.373 C91.831,69.829,100,61.66,100,51.515C99.868,42.556,93.281,35.046,84.717,33.597z" fill="#e1e7e7" transform="scale(0.48616768531305904)"></path>
</g><g transform="translate(-94.4821 92.3577)">
  <animateTransform attributeName="transform" type="translate" keyTimes="0;1" values="-100 92.35766350781684;1680 92.35766350781684" dur="33.333333333333336s" repeatCount="indefinite" begin="-28.75351843374444s"></animateTransform>
  <path d="M84.717,33.597c0.791-2.503,1.186-5.138,1.186-7.773C85.903,11.594,74.308,0,60.079,0 c-9.881,0-18.445,5.534-22.793,13.702c-1.581-0.527-3.426-0.791-5.138-0.791c-9.486,0-17.128,7.642-17.128,17.128 c0,1.186,0.132,2.372,0.395,3.426C6.719,34.783,0,42.424,0,51.515C0,61.66,8.169,69.829,18.314,69.829h63.373 C91.831,69.829,100,61.66,100,51.515C99.868,42.556,93.281,35.046,84.717,33.597z" fill="#e4934b" transform="scale(0.39069536888753315)"></path>
</g><g transform="translate(882.774 596.05)">
  <animateTransform attributeName="transform" type="translate" keyTimes="0;1" values="-100 596.0502463162419;1680 596.0502463162419" dur="50s" repeatCount="indefinite" begin="-22.922874114912535s"></animateTransform>
  <path d="M84.717,33.597c0.791-2.503,1.186-5.138,1.186-7.773C85.903,11.594,74.308,0,60.079,0 c-9.881,0-18.445,5.534-22.793,13.702c-1.581-0.527-3.426-0.791-5.138-0.791c-9.486,0-17.128,7.642-17.128,17.128 c0,1.186,0.132,2.372,0.395,3.426C6.719,34.783,0,42.424,0,51.515C0,61.66,8.169,69.829,18.314,69.829h63.373 C91.831,69.829,100,61.66,100,51.515C99.868,42.556,93.281,35.046,84.717,33.597z" fill="#e1e7e7" transform="scale(0.36893961070275016)"></path>
</g><g transform="translate(1489.69 110.867)">
  <animateTransform attributeName="transform" type="translate" keyTimes="0;1" values="-100 110.86669337886401;1680 110.86669337886401" dur="100s" repeatCount="indefinite" begin="-84.62540200310723s"></animateTransform>
  <path d="M84.717,33.597c0.791-2.503,1.186-5.138,1.186-7.773C85.903,11.594,74.308,0,60.079,0 c-9.881,0-18.445,5.534-22.793,13.702c-1.581-0.527-3.426-0.791-5.138-0.791c-9.486,0-17.128,7.642-17.128,17.128 c0,1.186,0.132,2.372,0.395,3.426C6.719,34.783,0,42.424,0,51.515C0,61.66,8.169,69.829,18.314,69.829h63.373 C91.831,69.829,100,61.66,100,51.515C99.868,42.556,93.281,35.046,84.717,33.597z" fill="#e1e7e7" transform="scale(0.5364515230949746)"></path>
</g><g transform="translate(364.529 401.054)">
  <animateTransform attributeName="transform" type="translate" keyTimes="0;1" values="-100 401.05448878709336;1680 401.05448878709336" dur="50s" repeatCount="indefinite" begin="-8.36542473607781s"></animateTransform>
  <path d="M84.717,33.597c0.791-2.503,1.186-5.138,1.186-7.773C85.903,11.594,74.308,0,60.079,0 c-9.881,0-18.445,5.534-22.793,13.702c-1.581-0.527-3.426-0.791-5.138-0.791c-9.486,0-17.128,7.642-17.128,17.128 c0,1.186,0.132,2.372,0.395,3.426C6.719,34.783,0,42.424,0,51.515C0,61.66,8.169,69.829,18.314,69.829h63.373 C91.831,69.829,100,61.66,100,51.515C99.868,42.556,93.281,35.046,84.717,33.597z" fill="#e1e7e7" transform="scale(0.3865232344659397)"></path>
</g><g transform="translate(414.38 86.0847)">
  <animateTransform attributeName="transform" type="translate" keyTimes="0;1" values="-100 86.08469195523475;1680 86.08469195523475" dur="33.333333333333336s" repeatCount="indefinite" begin="-4.9494294913439525s"></animateTransform>
  <path d="M84.717,33.597c0.791-2.503,1.186-5.138,1.186-7.773C85.903,11.594,74.308,0,60.079,0 c-9.881,0-18.445,5.534-22.793,13.702c-1.581-0.527-3.426-0.791-5.138-0.791c-9.486,0-17.128,7.642-17.128,17.128 c0,1.186,0.132,2.372,0.395,3.426C6.719,34.783,0,42.424,0,51.515C0,61.66,8.169,69.829,18.314,69.829h63.373 C91.831,69.829,100,61.66,100,51.515C99.868,42.556,93.281,35.046,84.717,33.597z" fill="#e2bb8b" transform="scale(0.30875026214458656)"></path>
</g><g transform="translate(1327.66 750.646)">
  <animateTransform attributeName="transform" type="translate" keyTimes="0;1" values="-100 750.6463635694955;1680 750.6463635694955" dur="33.333333333333336s" repeatCount="indefinite" begin="-88.71876809166078s"></animateTransform>
  <path d="M84.717,33.597c0.791-2.503,1.186-5.138,1.186-7.773C85.903,11.594,74.308,0,60.079,0 c-9.881,0-18.445,5.534-22.793,13.702c-1.581-0.527-3.426-0.791-5.138-0.791c-9.486,0-17.128,7.642-17.128,17.128 c0,1.186,0.132,2.372,0.395,3.426C6.719,34.783,0,42.424,0,51.515C0,61.66,8.169,69.829,18.314,69.829h63.373 C91.831,69.829,100,61.66,100,51.515C99.868,42.556,93.281,35.046,84.717,33.597z" fill="#e2bb8b" transform="scale(0.587804313477304)"></path>
</g><g transform="translate(515.819 280.462)">
  <animateTransform attributeName="transform" type="translate" keyTimes="0;1" values="-100 280.4617252616855;1680 280.4617252616855" dur="33.333333333333336s" repeatCount="indefinite" begin="-40.182380086841526s"></animateTransform>
  <path d="M84.717,33.597c0.791-2.503,1.186-5.138,1.186-7.773C85.903,11.594,74.308,0,60.079,0 c-9.881,0-18.445,5.534-22.793,13.702c-1.581-0.527-3.426-0.791-5.138-0.791c-9.486,0-17.128,7.642-17.128,17.128 c0,1.186,0.132,2.372,0.395,3.426C6.719,34.783,0,42.424,0,51.515C0,61.66,8.169,69.829,18.314,69.829h63.373 C91.831,69.829,100,61.66,100,51.515C99.868,42.556,93.281,35.046,84.717,33.597z" fill="#e4934b" transform="scale(0.39055060633200067)"></path>
</g><g transform="translate(-40.6008 537.578)">
  <animateTransform attributeName="transform" type="translate" keyTimes="0;1" values="-100 537.578442425126;1680 537.578442425126" dur="50s" repeatCount="indefinite" begin="-46.98537039212766s"></animateTransform>
  <path d="M84.717,33.597c0.791-2.503,1.186-5.138,1.186-7.773C85.903,11.594,74.308,0,60.079,0 c-9.881,0-18.445,5.534-22.793,13.702c-1.581-0.527-3.426-0.791-5.138-0.791c-9.486,0-17.128,7.642-17.128,17.128 c0,1.186,0.132,2.372,0.395,3.426C6.719,34.783,0,42.424,0,51.515C0,61.66,8.169,69.829,18.314,69.829h63.373 C91.831,69.829,100,61.66,100,51.515C99.868,42.556,93.281,35.046,84.717,33.597z" fill="#e1e7e7" transform="scale(0.6355123401537928)"></path>
</g><g transform="translate(-0.733086 933.368)">
  <animateTransform attributeName="transform" type="translate" keyTimes="0;1" values="-100 933.3677262285369;1680 933.3677262285369" dur="33.333333333333336s" repeatCount="indefinite" begin="-97.17578494919648s"></animateTransform>
  <path d="M84.717,33.597c0.791-2.503,1.186-5.138,1.186-7.773C85.903,11.594,74.308,0,60.079,0 c-9.881,0-18.445,5.534-22.793,13.702c-1.581-0.527-3.426-0.791-5.138-0.791c-9.486,0-17.128,7.642-17.128,17.128 c0,1.186,0.132,2.372,0.395,3.426C6.719,34.783,0,42.424,0,51.515C0,61.66,8.169,69.829,18.314,69.829h63.373 C91.831,69.829,100,61.66,100,51.515C99.868,42.556,93.281,35.046,84.717,33.597z" fill="#e2bb8b" transform="scale(0.36883511320031814)"></path>
</g></g>
<style type="text/css">.lded > .content, .lded > .content > .inner { height: 100%; }
.lded > .content > .inner > .viewer { width: 100%; height: 100%; max-width: 100%; overflow: hidden }
.lded > .content > .inner > .panel {
  position: absolute;
  bottom: 50px;
  left: 0;
  right: 0;
  opacity: 0.3;
}
.lded > .content > .inner > .panel:hover { opacity: 1; }
.lded > .content > .inner > .ctrl {
  position: absolute;
  bottom: 13px;
  left: 0;
  right: 0;
  margin: auto;
}
.lded > .content > .inner > .ctrl:hover {
  z-index: 10;
}
#editor > .inner > .title {
  position: absolute;
  bottom: 195px;
  left: 0;
  right: 0;
  z-index: 11;
}
#editor > .inner > .title > a:first-child {
  margin-left: 0!important;
#editor .lded .viewer { border-radius: 0 }</style></svg>