<?xml version="1.0" encoding="utf-8"?>
<svg xmlns="http://www.w3.org/2000/svg" xmlns:xlink="http://www.w3.org/1999/xlink" style="margin: auto; background: rgb(241, 242, 243); display: block; z-index: 1; position: relative; shape-rendering: auto;" width="1680" height="948" preserveAspectRatio="xMidYMid" viewBox="0 0 1680 948">
<g transform=""><path id="path0" d="M 1548.7917888787304 640.4422903759709
c 0 20.017816231864945 -4.89797631205206 5.7497982793654625 -10.647774591417523 5.7497982793654625
S 1527.4962396958952 660.4601066078358 1527.4962396958952 640.4422903759709
s 4.89797631205206 -5.7497982793654625 10.647774591417523 -5.7497982793654625
S 1548.7917888787304 620.424474144106 1548.7917888787304 640.4422903759709
z" fill="none" stroke="none"></path>
<circle cx="0" cy="0" r="6.636207709795123" fill="#e9b6ae">
  <animateMotion begin="-3.2415935340465367s" dur="6s" repeatCount="indefinite">
    <mpath xlink:href="#path0"></mpath>
  </animateMotion>
</circle><path id="path1" d="M 1311.8457486869402 416.0349140896572
c 0 30.58252974993728 -7.482959406899546 8.78434365157773 -16.267303058477275 8.78434365157773
S 1279.3111425699858 446.6174438395945 1279.3111425699858 416.0349140896572
s 7.482959406899546 -8.78434365157773 16.267303058477275 -8.78434365157773
S 1311.8457486869402 385.4523843397199 1311.8457486869402 416.0349140896572
z" fill="none" stroke="none"></path>
<circle cx="0" cy="0" r="7.8866954919899435" fill="#e9b6ae">
  <animateMotion begin="-0.4481417904593553s" dur="6s" repeatCount="indefinite">
    <mpath xlink:href="#path1"></mpath>
  </animateMotion>
</circle><path id="path2" d="M 1353.0208864248364 797.798402390913
c 0 31.719898409595036 -7.761251738517934 9.111034649564532 -16.872286388082465 9.111034649564532
S 1319.2763136486712 829.5183008005081 1319.2763136486712 797.798402390913
s 7.761251738517934 -9.111034649564532 16.872286388082465 -9.111034649564532
S 1353.0208864248364 766.0785039813179 1353.0208864248364 797.798402390913
z" fill="none" stroke="none"></path>
<circle cx="0" cy="0" r="4.620989905120926" fill="#e9b6ae">
  <animateMotion begin="-0.09070971850368667s" dur="6s" repeatCount="indefinite">
    <mpath xlink:href="#path2"></mpath>
  </animateMotion>
</circle><path id="path3" d="M 863.6160365123401 148.67966167099172
c 0 22.360654120299248 -5.471223880498751 6.422741077107231 -11.893964957605982 6.422741077107231
S 839.8281065971282 171.04031579129096 839.8281065971282 148.67966167099172
s 5.471223880498751 -6.422741077107231 11.893964957605982 -6.422741077107231
S 863.6160365123401 126.31900755069248 863.6160365123401 148.67966167099172
z" fill="none" stroke="none"></path>
<circle cx="0" cy="0" r="7.644208965350321" fill="#b83128">
  <animateMotion begin="-4.695661014640013s" dur="6s" repeatCount="indefinite">
    <mpath xlink:href="#path3"></mpath>
  </animateMotion>
</circle><path id="path4" d="M 967.0074555537418 483.3456977837193
c 0 37.036017955096774 -9.062004393268358 10.638005157315032 -19.700009550583392 10.638005157315032
S 927.6074364525749 520.3817157388161 927.6074364525749 483.3456977837193
s 9.062004393268358 -10.638005157315032 19.700009550583392 -10.638005157315032
S 967.0074555537418 446.3096798286225 967.0074555537418 483.3456977837193
z" fill="none" stroke="none"></path>
<circle cx="0" cy="0" r="6.245518484932514" fill="#b83128">
  <animateMotion begin="-1.5117821447595055s" dur="6s" repeatCount="indefinite">
    <mpath xlink:href="#path4"></mpath>
  </animateMotion>
</circle><path id="path5" d="M 244.16372112723607 523.3171620021101
c 0 36.54095420882101 -8.940871774498756 10.495805996150716 -19.436677770649474 10.495805996150716
S 205.2903655859371 559.8581162109311 205.2903655859371 523.3171620021101
s 8.940871774498756 -10.495805996150716 19.436677770649474 -10.495805996150716
S 244.16372112723607 486.7762077932891 244.16372112723607 523.3171620021101
z" fill="none" stroke="none"></path>
<circle cx="0" cy="0" r="7.849223811801136" fill="#ce6260">
  <animateMotion begin="-4.010773558857406s" dur="6s" repeatCount="indefinite">
    <mpath xlink:href="#path5"></mpath>
  </animateMotion>
</circle><path id="path6" d="M 1543.634698838763 296.2804531627112
c 0 30.80275218576268 -7.536843619920655 8.84759903208077 -16.384442652001425 8.84759903208077
S 1510.8658135347603 327.0832053484739 1510.8658135347603 296.2804531627112
s 7.536843619920655 -8.84759903208077 16.384442652001425 -8.84759903208077
S 1543.634698838763 265.4777009769485 1543.634698838763 296.2804531627112
z" fill="none" stroke="none"></path>
<circle cx="0" cy="0" r="4.343761268348013" fill="#e9b6ae">
  <animateMotion begin="-1.640104460083756s" dur="6s" repeatCount="indefinite">
    <mpath xlink:href="#path6"></mpath>
  </animateMotion>
</circle><path id="path7" d="M 796.7929640583119 636.0873920746792
c 0 25.338697068736554 -6.199893963627028 7.278136392083904 -13.478030355710933 7.278136392083904
S 769.8369033468899 661.4260891434158 769.8369033468899 636.0873920746792
s 6.199893963627028 -7.278136392083904 13.478030355710933 -7.278136392083904
S 796.7929640583119 610.7486950059426 796.7929640583119 636.0873920746792
z" fill="none" stroke="none"></path>
<circle cx="0" cy="0" r="7.289313753392392" fill="#b83128">
  <animateMotion begin="-4.526165759963105s" dur="6s" repeatCount="indefinite">
    <mpath xlink:href="#path7"></mpath>
  </animateMotion>
</circle><path id="path8" d="M 280.81139527384556 96.35929381218949
c 0 23.178973635392506 -5.6714509958939106 6.657790299527634 -12.329241295421545 6.657790299527634
S 256.1529126830025 119.538267447582 256.1529126830025 96.35929381218949
s 5.6714509958939106 -6.657790299527634 12.329241295421545 -6.657790299527634
S 280.81139527384556 73.18032017679698 280.81139527384556 96.35929381218949
z" fill="none" stroke="none"></path>
<circle cx="0" cy="0" r="4.596220485664493" fill="#ce6260">
  <animateMotion begin="-2.60444880464231s" dur="6s" repeatCount="indefinite">
    <mpath xlink:href="#path8"></mpath>
  </animateMotion>
</circle><path id="path9" d="M 403.7414015748965 674.2957355952892
c 0 22.224503222827753 -5.437910363032322 6.3836339044292485 -11.82154426746157 6.3836339044292485
S 380.0983130399734 696.5202388181169 380.0983130399734 674.2957355952892
s 5.437910363032322 -6.3836339044292485 11.82154426746157 -6.3836339044292485
S 403.7414015748965 652.0712323724615 403.7414015748965 674.2957355952892
z" fill="none" stroke="none"></path>
<circle cx="0" cy="0" r="7.238035639347363" fill="#b83128">
  <animateMotion begin="-5.080779661320387s" dur="6s" repeatCount="indefinite">
    <mpath xlink:href="#path9"></mpath>
  </animateMotion>
</circle><path id="path10" d="M 138.4387330130748 165.80899761591155
c 0 20.069120684009604 -4.91052952906618 5.764534664555951 -10.67506419362213 5.764534664555951
S 117.08860462583053 185.87811829992114 117.08860462583053 165.80899761591155
s 4.91052952906618 -5.764534664555951 10.67506419362213 -5.764534664555951
S 138.4387330130748 145.73987693190196 138.4387330130748 165.80899761591155
z" fill="none" stroke="none"></path>
<circle cx="0" cy="0" r="6.983493658697949" fill="#fefefe">
  <animateMotion begin="-1.7657738242134982s" dur="6s" repeatCount="indefinite">
    <mpath xlink:href="#path10"></mpath>
  </animateMotion>
</circle><path id="path11" d="M 879.9008476910327 810.7973105648574
c 0 34.39061233935505 -8.414724295799639 9.87815460811262 -18.29287890391226 9.87815460811262
S 843.3150898832081 845.1879229042124 843.3150898832081 810.7973105648574
s 8.414724295799639 -9.87815460811262 18.29287890391226 -9.87815460811262
S 879.9008476910327 776.4066982255024 879.9008476910327 810.7973105648574
z" fill="none" stroke="none"></path>
<circle cx="0" cy="0" r="7.540837914078185" fill="#ce6260">
  <animateMotion begin="-4.253038439385801s" dur="6s" repeatCount="indefinite">
    <mpath xlink:href="#path11"></mpath>
  </animateMotion>
</circle><path id="path12" d="M 423.83691639872785 345.12497967683873
c 0 23.94448418286143 -5.858756768146946 6.877670988694241 -12.736427756841186 6.877670988694241
S 398.3640608850455 369.06946385970014 398.3640608850455 345.12497967683873
s 5.858756768146946 -6.877670988694241 12.736427756841186 -6.877670988694241
S 423.83691639872785 321.18049549397733 423.83691639872785 345.12497967683873
z" fill="none" stroke="none"></path>
<circle cx="0" cy="0" r="6.407931781878242" fill="#e9b6ae">
  <animateMotion begin="-1.6092262510392645s" dur="6s" repeatCount="indefinite">
    <mpath xlink:href="#path12"></mpath>
  </animateMotion>
</circle><path id="path13" d="M 1132.7928621795268 150.8082272830033
c 0 26.551922715265047 -6.496747047352085 7.626616099065493 -14.123363146417578 7.626616099065493
S 1104.5461358866914 177.36014999826835 1104.5461358866914 150.8082272830033
s 6.496747047352085 -7.626616099065493 14.123363146417578 -7.626616099065493
S 1132.7928621795268 124.25630456773825 1132.7928621795268 150.8082272830033
z" fill="none" stroke="none"></path>
<circle cx="0" cy="0" r="4.027870690186804" fill="#b83128">
  <animateMotion begin="-1.589701834823542s" dur="6s" repeatCount="indefinite">
    <mpath xlink:href="#path13"></mpath>
  </animateMotion>
</circle><path id="path14" d="M 1668.0703309438725 628.6755985742375
c 0 27.37597929983105 -6.698377913788448 7.863313203142962 -14.56169111693141 7.863313203142962
S 1638.9469487100098 656.0515778740686 1638.9469487100098 628.6755985742375
s 6.698377913788448 -7.863313203142962 14.56169111693141 -7.863313203142962
S 1668.0703309438725 601.2996192744064 1668.0703309438725 628.6755985742375
z" fill="none" stroke="none"></path>
<circle cx="0" cy="0" r="7.199444995509243" fill="#ce6260">
  <animateMotion begin="-1.5876514480546007s" dur="6s" repeatCount="indefinite">
    <mpath xlink:href="#path14"></mpath>
  </animateMotion>
</circle><path id="path15" d="M 359.747872369735 932.5783910153624
c 0 36.73015631275312 -8.987165906311931 10.550151281322703 -19.537317187634635 10.550151281322703
S 320.6732379944657 969.3085473281155 320.6732379944657 932.5783910153624
s 8.987165906311931 -10.550151281322703 19.537317187634635 -10.550151281322703
S 359.747872369735 895.8482347026093 359.747872369735 932.5783910153624
z" fill="none" stroke="none"></path>
<circle cx="0" cy="0" r="6.833135551165933" fill="#ce6260">
  <animateMotion begin="-2.0862151196309084s" dur="6s" repeatCount="indefinite">
    <mpath xlink:href="#path15"></mpath>
  </animateMotion>
</circle><path id="path16" d="M 28.229505016435766 496.244587890096
c 0 36.484581709751005 -8.927078503449712 10.479613895354012 -19.406692398803724 10.479613895354012
S -10.583879781171683 532.729169599847 -10.583879781171683 496.244587890096
s 8.927078503449712 -10.479613895354012 19.406692398803724 -10.479613895354012
S 28.229505016435766 459.760006180345 28.229505016435766 496.244587890096
z" fill="none" stroke="none"></path>
<circle cx="0" cy="0" r="6.751673502370236" fill="#ce6260">
  <animateMotion begin="-2.7906907044377127s" dur="6s" repeatCount="indefinite">
    <mpath xlink:href="#path16"></mpath>
  </animateMotion>
</circle><path id="path17" d="M 314.4545090605644 832.3953769144424
c 0 27.205157170761243 -6.656581009867112 7.814247272452698 -14.47082828231981 7.814247272452698
S 285.5128524959248 859.6005340852037 285.5128524959248 832.3953769144424
s 6.656581009867112 -7.814247272452698 14.47082828231981 -7.814247272452698
S 314.4545090605644 805.1902197436812 314.4545090605644 832.3953769144424
z" fill="none" stroke="none"></path>
<circle cx="0" cy="0" r="7.3606188966557" fill="#fefefe">
  <animateMotion begin="-4.227950827747433s" dur="6s" repeatCount="indefinite">
    <mpath xlink:href="#path17"></mpath>
  </animateMotion>
</circle><path id="path18" d="M 76.5586796543048 634.5430486286374
c 0 29.887169878152417 -7.31281816167559 8.584612624575694 -15.897430786251284 8.584612624575694
S 44.76381808180223 664.4302185067899 44.76381808180223 634.5430486286374
s 7.31281816167559 -8.584612624575694 15.897430786251284 -8.584612624575694
S 76.5586796543048 604.6558787504849 76.5586796543048 634.5430486286374
z" fill="none" stroke="none"></path>
<circle cx="0" cy="0" r="4.766600847571331" fill="#e9b6ae">
  <animateMotion begin="-1.7659095413460868s" dur="6s" repeatCount="indefinite">
    <mpath xlink:href="#path18"></mpath>
  </animateMotion>
</circle><path id="path19" d="M 578.622594941792 869.4375648438927
c 0 30.16800088761881 -7.381532132076942 8.66527685069902 -16.04680898277596 8.66527685069902
S 546.5289769762402 899.6055657315115 546.5289769762402 869.4375648438927
s 7.381532132076942 -8.66527685069902 16.04680898277596 -8.66527685069902
S 578.622594941792 839.2695639562738 578.622594941792 869.4375648438927
z" fill="none" stroke="none"></path>
<circle cx="0" cy="0" r="4.890716067451898" fill="#ce6260">
  <animateMotion begin="-4.1536742274054985s" dur="6s" repeatCount="indefinite">
    <mpath xlink:href="#path19"></mpath>
  </animateMotion>
</circle><path id="path20" d="M 272.9391947913044 711.0105023128967
c 0 37.44732484185728 -9.162643312369333 10.756146497129219 -19.918789809498552 10.756146497129219
S 233.10161517230728 748.457827154754 233.10161517230728 711.0105023128967
s 9.162643312369333 -10.756146497129219 19.918789809498552 -10.756146497129219
S 272.9391947913044 673.5631774710395 272.9391947913044 711.0105023128967
z" fill="none" stroke="none"></path>
<circle cx="0" cy="0" r="5.209445859656978" fill="#b83128">
  <animateMotion begin="-1.6705716599066975s" dur="6s" repeatCount="indefinite">
    <mpath xlink:href="#path20"></mpath>
  </animateMotion>
</circle><path id="path21" d="M 982.4812450626504 373.1995876946863
c 0 34.33444958544051 -8.400982345373741 9.862022753264826 -18.263005098638565 9.862022753264826
S 945.9552348653732 407.53403728012677 945.9552348653732 373.1995876946863
s 8.400982345373741 -9.862022753264826 18.263005098638565 -9.862022753264826
S 982.4812450626504 338.8651381092458 982.4812450626504 373.1995876946863
z" fill="none" stroke="none"></path>
<circle cx="0" cy="0" r="7.131681051998438" fill="#e9b6ae">
  <animateMotion begin="-4.589254286702036s" dur="6s" repeatCount="indefinite">
    <mpath xlink:href="#path21"></mpath>
  </animateMotion>
</circle><path id="path22" d="M 488.90452108464655 345.1984801753282
c 0 28.261187796624853 -6.914971482152889 8.117575218179478 -15.032546700332368 8.117575218179478
S 458.8394276839818 373.4596679719531 458.8394276839818 345.1984801753282
s 6.914971482152889 -8.117575218179478 15.032546700332368 -8.117575218179478
S 488.90452108464655 316.9372923787033 488.90452108464655 345.1984801753282
z" fill="none" stroke="none"></path>
<circle cx="0" cy="0" r="6.2646621562845475" fill="#b83128">
  <animateMotion begin="-1.6863624661614223s" dur="6s" repeatCount="indefinite">
    <mpath xlink:href="#path22"></mpath>
  </animateMotion>
</circle><path id="path23" d="M 1124.2540106123488 312.4867086296979
c 0 20.201912557872895 -4.94302115777741 5.802677011303916 -10.745698169081326 5.802677011303916
S 1102.762614274186 332.6886211875708 1102.762614274186 312.4867086296979
s 4.94302115777741 -5.802677011303916 10.745698169081326 -5.802677011303916
S 1124.2540106123488 292.284796071825 1124.2540106123488 312.4867086296979
z" fill="none" stroke="none"></path>
<circle cx="0" cy="0" r="7.739792304581866" fill="#ce6260">
  <animateMotion begin="-0.7698886104415368s" dur="6s" repeatCount="indefinite">
    <mpath xlink:href="#path23"></mpath>
  </animateMotion>
</circle><path id="path24" d="M 522.483016220703 581.4841722059158
c 0 32.652475993971414 -7.9894356155461965 9.378902679119449 -17.368338294665648 9.378902679119449
S 487.7463396313717 614.1366481998872 487.7463396313717 581.4841722059158
s 7.9894356155461965 -9.378902679119449 17.368338294665648 -9.378902679119449
S 522.483016220703 548.8316962119444 522.483016220703 581.4841722059158
z" fill="none" stroke="none"></path>
<circle cx="0" cy="0" r="4.206016322416145" fill="#e9b6ae">
  <animateMotion begin="-4.225740427521444s" dur="6s" repeatCount="indefinite">
    <mpath xlink:href="#path24"></mpath>
  </animateMotion>
</circle><path id="path25" d="M 546.6387145768203 786.8820125201878
c 0 28.374834580757934 -6.942778674015238 8.150218443409194 -15.092997117424432 8.150218443409194
S 516.4527203419714 815.2568471009457 516.4527203419714 786.8820125201878
s 6.942778674015238 -8.150218443409194 15.092997117424432 -8.150218443409194
S 546.6387145768203 758.5071779394299 546.6387145768203 786.8820125201878
z" fill="none" stroke="none"></path>
<circle cx="0" cy="0" r="4.877171471279329" fill="#b83128">
  <animateMotion begin="-5.151541151853203s" dur="6s" repeatCount="indefinite">
    <mpath xlink:href="#path25"></mpath>
  </animateMotion>
</circle><path id="path26" d="M 758.2373806345811 358.84908130936986
c 0 35.42106100309088 -8.666855351820105 10.174134543440996 -18.840989895261103 10.174134543440996
S 720.5554008440588 394.27014231246073 720.5554008440588 358.84908130936986
s 8.666855351820105 -10.174134543440996 18.840989895261103 -10.174134543440996
S 758.2373806345811 323.428020306279 758.2373806345811 358.84908130936986
z" fill="none" stroke="none"></path>
<circle cx="0" cy="0" r="7.352056724470119" fill="#b83128">
  <animateMotion begin="-1.9188487271606571s" dur="6s" repeatCount="indefinite">
    <mpath xlink:href="#path26"></mpath>
  </animateMotion>
</circle><path id="path27" d="M 800.3749516233438 49.680631361984226
c 0 28.909045473514027 -7.0734898499023675 8.303661997711476 -15.377151847613844 8.303661997711476
S 769.6206479281161 78.58967683549825 769.6206479281161 49.680631361984226
s 7.0734898499023675 -8.303661997711476 15.377151847613844 -8.303661997711476
S 800.3749516233438 20.7715858884702 800.3749516233438 49.680631361984226
z" fill="none" stroke="none"></path>
<circle cx="0" cy="0" r="7.293346109382834" fill="#b83128">
  <animateMotion begin="-2.181162124647346s" dur="6s" repeatCount="indefinite">
    <mpath xlink:href="#path27"></mpath>
  </animateMotion>
</circle><path id="path28" d="M 1236.7782679327215 242.48454627225615
c 0 19.39566461418629 -4.74574772474771 5.571095155138616 -10.316842879886325 5.571095155138616
S 1216.144582172949 261.88021088644246 1216.144582172949 242.48454627225615
s 4.74574772474771 -5.571095155138616 10.316842879886325 -5.571095155138616
S 1236.7782679327215 223.08888165806985 1236.7782679327215 242.48454627225615
z" fill="none" stroke="none"></path>
<circle cx="0" cy="0" r="5.040205474760767" fill="#ce6260">
  <animateMotion begin="-4.599244416563107s" dur="6s" repeatCount="indefinite">
    <mpath xlink:href="#path28"></mpath>
  </animateMotion>
</circle><path id="path29" d="M 959.4020990674577 792.2679807843879
c 0 32.85378799118968 -8.03869280635492 9.436726337894909 -17.475419144249827 9.436726337894909
S 924.451260778958 825.1217687755775 924.451260778958 792.2679807843879
s 8.03869280635492 -9.436726337894909 17.475419144249827 -9.436726337894909
S 959.4020990674577 759.4141927931983 959.4020990674577 792.2679807843879
z" fill="none" stroke="none"></path>
<circle cx="0" cy="0" r="4.76580996967193" fill="#ce6260">
  <animateMotion begin="-5.368029049940308s" dur="6s" repeatCount="indefinite">
    <mpath xlink:href="#path29"></mpath>
  </animateMotion>
</circle><path id="path30" d="M 897.7644895687409 920.1578828294004
c 0 33.48264493665787 -8.192562058969477 9.617355460529389 -17.809917519498867 9.617355460529389
S 862.1446545297432 953.6405277660582 862.1446545297432 920.1578828294004
s 8.192562058969477 -9.617355460529389 17.809917519498867 -9.617355460529389
S 897.7644895687409 886.6752378927425 897.7644895687409 920.1578828294004
z" fill="none" stroke="none"></path>
<circle cx="0" cy="0" r="7.186861702306205" fill="#ce6260">
  <animateMotion begin="-3.019158398413742s" dur="6s" repeatCount="indefinite">
    <mpath xlink:href="#path30"></mpath>
  </animateMotion>
</circle><path id="path31" d="M 1434.6647121688163 606.8080067834878
c 0 20.002788803525032 -4.89429938809655 5.7454818903742115 -10.63978127847076 5.7454818903742115
S 1413.3851496118748 626.8107955870129 1413.3851496118748 606.8080067834878
s 4.89429938809655 -5.7454818903742115 10.63978127847076 -5.7454818903742115
S 1434.6647121688163 586.8052179799628 1434.6647121688163 606.8080067834878
z" fill="none" stroke="none"></path>
<circle cx="0" cy="0" r="4.939284400052985" fill="#e9b6ae">
  <animateMotion begin="-1.0323550413328086s" dur="6s" repeatCount="indefinite">
    <mpath xlink:href="#path31"></mpath>
  </animateMotion>
</circle><path id="path32" d="M 808.6746619969698 873.4942456075264
c 0 21.919441381950406 -5.363267572179354 6.29600975864533 -11.659277330824684 6.29600975864533
S 785.3561073353204 895.4136869894768 785.3561073353204 873.4942456075264
s 5.363267572179354 -6.29600975864533 11.659277330824684 -6.29600975864533
S 808.6746619969698 851.574804225576 808.6746619969698 873.4942456075264
z" fill="none" stroke="none"></path>
<circle cx="0" cy="0" r="7.399162645989016" fill="#fefefe">
  <animateMotion begin="-2.6616472731922403s" dur="6s" repeatCount="indefinite">
    <mpath xlink:href="#path32"></mpath>
  </animateMotion>
</circle><path id="path33" d="M 1116.5586108171533 393.3113152901568
c 0 26.825168219865283 -6.563604989967036 7.705101509961304 -14.26870649992834 7.705101509961304
S 1088.0211978172965 420.1364835100221 1088.0211978172965 393.3113152901568
s 6.563604989967036 -7.705101509961304 14.26870649992834 -7.705101509961304
S 1116.5586108171533 366.4861470702915 1116.5586108171533 393.3113152901568
z" fill="none" stroke="none"></path>
<circle cx="0" cy="0" r="7.58246818669374" fill="#ce6260">
  <animateMotion begin="-0.07273059401449088s" dur="6s" repeatCount="indefinite">
    <mpath xlink:href="#path33"></mpath>
  </animateMotion>
</circle><path id="path34" d="M 820.0953368684457 363.0744563981666
c 0 36.69984107723633 -8.979748348685483 10.541443713674266 -19.52119206235975 10.541443713674266
S 781.0529527437261 399.77429747540293 781.0529527437261 363.0744563981666
s 8.979748348685483 -10.541443713674266 19.52119206235975 -10.541443713674266
S 820.0953368684457 326.3746153209303 820.0953368684457 363.0744563981666
z" fill="none" stroke="none"></path>
<circle cx="0" cy="0" r="7.303514596463173" fill="#b83128">
  <animateMotion begin="-1.1600256873779082s" dur="6s" repeatCount="indefinite">
    <mpath xlink:href="#path34"></mpath>
  </animateMotion>
</circle><path id="path35" d="M 1581.3411245220957 890.2575907062031
c 0 31.67430058116349 -7.750094823050641 9.097937400972492 -16.848032224023132 9.097937400972492
S 1547.6450600740493 921.9318912873666 1547.6450600740493 890.2575907062031
s 7.750094823050641 -9.097937400972492 16.848032224023132 -9.097937400972492
S 1581.3411245220957 858.5832901250396 1581.3411245220957 890.2575907062031
z" fill="none" stroke="none"></path>
<circle cx="0" cy="0" r="7.110585634803634" fill="#e9b6ae">
  <animateMotion begin="-1.212244191752564s" dur="6s" repeatCount="indefinite">
    <mpath xlink:href="#path35"></mpath>
  </animateMotion>
</circle><path id="path36" d="M 836.1414911539672 787.8117710678891
c 0 28.587409924894022 -6.994791790133643 8.211277318852538 -15.206069108986181 8.211277318852538
S 805.7293529359948 816.3991809927832 805.7293529359948 787.8117710678891
s 6.994791790133643 -8.211277318852538 15.206069108986181 -8.211277318852538
S 836.1414911539672 759.2243611429951 836.1414911539672 787.8117710678891
z" fill="none" stroke="none"></path>
<circle cx="0" cy="0" r="4.357524348578911" fill="#fefefe">
  <animateMotion begin="-1.288739660650695s" dur="6s" repeatCount="indefinite">
    <mpath xlink:href="#path36"></mpath>
  </animateMotion>
</circle><path id="path37" d="M 1191.3583948191351 420.43435313196363
c 0 31.40878439598171 -7.68512809688914 9.021672113739427 -16.70680021062857 9.021672113739427
S 1157.9447943978778 451.8431375279453 1157.9447943978778 420.43435313196363
s 7.68512809688914 -9.021672113739427 16.70680021062857 -9.021672113739427
S 1191.3583948191351 389.02556873598195 1191.3583948191351 420.43435313196363
z" fill="none" stroke="none"></path>
<circle cx="0" cy="0" r="5.11232931702102" fill="#ce6260">
  <animateMotion begin="-5.604272399863718s" dur="6s" repeatCount="indefinite">
    <mpath xlink:href="#path37"></mpath>
  </animateMotion>
</circle><path id="path38" d="M 329.35816775312924 251.18316550063665
c 0 26.977172889493747 -6.600797621897406 7.74876242570565 -14.349560047603056 7.74876242570565
S 300.6590476579231 278.1603383901304 300.6590476579231 251.18316550063665
s 6.600797621897406 -7.74876242570565 14.349560047603056 -7.74876242570565
S 329.35816775312924 224.2059926111429 329.35816775312924 251.18316550063665
z" fill="none" stroke="none"></path>
<circle cx="0" cy="0" r="7.483037293105527" fill="#e9b6ae">
  <animateMotion begin="-1.1386156430139356s" dur="6s" repeatCount="indefinite">
    <mpath xlink:href="#path38"></mpath>
  </animateMotion>
</circle><path id="path39" d="M 896.4166014975305 217.89659422619428
c 0 20.981275778922733 -5.133716413991732 6.026536659903338 -11.16025307389507 6.026536659903338
S 874.0960953497403 238.87787000511702 874.0960953497403 217.89659422619428
s 5.133716413991732 -6.026536659903338 11.16025307389507 -6.026536659903338
S 896.4166014975305 196.91531844727155 896.4166014975305 217.89659422619428
z" fill="none" stroke="none"></path>
<circle cx="0" cy="0" r="6.654533298531787" fill="#ce6260">
  <animateMotion begin="-5.745982491169345s" dur="6s" repeatCount="indefinite">
    <mpath xlink:href="#path39"></mpath>
  </animateMotion>
</circle><path id="path40" d="M 283.1628268325136 720.7498990648465
c 0 29.469554027759525 -7.210635559983713 8.464659135633056 -15.675294695616769 8.464659135633056
S 251.81223744128008 750.219453092606 251.81223744128008 720.7498990648465
s 7.210635559983713 -8.464659135633056 15.675294695616769 -8.464659135633056
S 283.1628268325136 691.280345037087 283.1628268325136 720.7498990648465
z" fill="none" stroke="none"></path>
<circle cx="0" cy="0" r="7.923213872240364" fill="#fefefe">
  <animateMotion begin="-4.481373431537923s" dur="6s" repeatCount="indefinite">
    <mpath xlink:href="#path40"></mpath>
  </animateMotion>
</circle><path id="path41" d="M 561.939478453221 760.280559190716
c 0 27.63190227273376 -6.7609973646050685 7.936822993232037 -14.697820357837106 7.936822993232037
S 532.5438377375467 787.9124614634497 532.5438377375467 760.280559190716
s 6.7609973646050685 -7.936822993232037 14.697820357837106 -7.936822993232037
S 561.939478453221 732.6486569179822 561.939478453221 760.280559190716
z" fill="none" stroke="none"></path>
<circle cx="0" cy="0" r="5.83576307014005" fill="#e9b6ae">
  <animateMotion begin="-2.043652487001773s" dur="6s" repeatCount="indefinite">
    <mpath xlink:href="#path41"></mpath>
  </animateMotion>
</circle><path id="path42" d="M 1051.2184663272105 479.9025782355103
c 0 21.521048343444967 -5.265788424459938 6.181577715670364 -11.447366140130303 6.181577715670364
S 1028.32373404695 501.4236265789553 1028.32373404695 479.9025782355103
s 5.265788424459938 -6.181577715670364 11.447366140130303 -6.181577715670364
S 1051.2184663272105 458.3815298920653 1051.2184663272105 479.9025782355103
z" fill="none" stroke="none"></path>
<circle cx="0" cy="0" r="6.685597753214537" fill="#b83128">
  <animateMotion begin="-3.863166696830817s" dur="6s" repeatCount="indefinite">
    <mpath xlink:href="#path42"></mpath>
  </animateMotion>
</circle><path id="path43" d="M 1484.4071972666163 21.791362596276052
c 0 24.51528921849522 -5.998421830057341 7.0416256265890524 -13.040047456646393 7.0416256265890524
S 1458.3271023533237 46.30665181477127 1458.3271023533237 21.791362596276052
s 5.998421830057341 -7.0416256265890524 13.040047456646393 -7.0416256265890524
S 1484.4071972666163 -2.7239266222191674 1484.4071972666163 21.791362596276052
z" fill="none" stroke="none"></path>
<circle cx="0" cy="0" r="5.027764304608157" fill="#b83128">
  <animateMotion begin="-4.347529802330978s" dur="6s" repeatCount="indefinite">
    <mpath xlink:href="#path43"></mpath>
  </animateMotion>
</circle><path id="path44" d="M 374.01250065309665 611.9105986204538
c 0 32.781092003178486 -8.020905490139416 9.415845575381054 -17.436751065520472 9.415845575381054
S 339.1389985220557 644.6916906236323 339.1389985220557 611.9105986204538
s 8.020905490139416 -9.415845575381054 17.436751065520472 -9.415845575381054
S 374.01250065309665 579.1295066172753 374.01250065309665 611.9105986204538
z" fill="none" stroke="none"></path>
<circle cx="0" cy="0" r="4.902049721642292" fill="#b83128">
  <animateMotion begin="-3.242296814666787s" dur="6s" repeatCount="indefinite">
    <mpath xlink:href="#path44"></mpath>
  </animateMotion>
</circle><path id="path45" d="M 1313.6947897920545 76.7314510694845
c 0 20.55491875177734 -5.029395013732753 5.904072407425406 -10.93346742115816 5.904072407425406
S 1291.8278549497381 97.28636982126184 1291.8278549497381 76.7314510694845
s 5.029395013732753 -5.904072407425406 10.93346742115816 -5.904072407425406
S 1313.6947897920545 56.17653231770717 1313.6947897920545 76.7314510694845
z" fill="none" stroke="none"></path>
<circle cx="0" cy="0" r="5.697748705794187" fill="#e9b6ae">
  <animateMotion begin="-4.462778878658573s" dur="6s" repeatCount="indefinite">
    <mpath xlink:href="#path45"></mpath>
  </animateMotion>
</circle><path id="path46" d="M 517.8787541560794 249.0506803778079
c 0 32.38473710220315 -7.923925035645451 9.30199895488814 -17.225923990533587 9.30199895488814
S 483.42690617501216 281.43541748001104 483.42690617501216 249.0506803778079
s 7.923925035645451 -9.30199895488814 17.225923990533587 -9.30199895488814
S 517.8787541560794 216.66594327560477 517.8787541560794 249.0506803778079
z" fill="none" stroke="none"></path>
<circle cx="0" cy="0" r="6.320617166993699" fill="#ce6260">
  <animateMotion begin="-1.5975339335655168s" dur="6s" repeatCount="indefinite">
    <mpath xlink:href="#path46"></mpath>
  </animateMotion>
</circle><path id="path47" d="M 338.6050066756732 577.6195591169705
c 0 25.326030526404963 -6.1967947032692985 7.2744981299248295 -13.471292833194129 7.2744981299248295
S 311.66242100928497 602.9455896433756 311.66242100928497 577.6195591169705
s 6.1967947032692985 -7.2744981299248295 13.471292833194129 -7.2744981299248295
S 338.6050066756732 552.2935285905655 338.6050066756732 577.6195591169705
z" fill="none" stroke="none"></path>
<circle cx="0" cy="0" r="4.964250361557085" fill="#ce6260">
  <animateMotion begin="-0.440869249140672s" dur="6s" repeatCount="indefinite">
    <mpath xlink:href="#path47"></mpath>
  </animateMotion>
</circle><path id="path48" d="M 503.0224777713317 492.6440912410459
c 0 27.994022116060396 -6.84960115605733 8.040836139719476 -14.890437295776806 8.040836139719476
S 473.2416031797781 520.6381133571062 473.2416031797781 492.6440912410459
s 6.84960115605733 -8.040836139719476 14.890437295776806 -8.040836139719476
S 503.0224777713317 464.65006912498546 503.0224777713317 492.6440912410459
z" fill="none" stroke="none"></path>
<circle cx="0" cy="0" r="4.348624268775497" fill="#ce6260">
  <animateMotion begin="-3.1819073142631042s" dur="6s" repeatCount="indefinite">
    <mpath xlink:href="#path48"></mpath>
  </animateMotion>
</circle><path id="path49" d="M 1240.4152505847462 116.90251542257094
c 0 35.70647578225484 -8.736690882892141 10.256115384264689 -18.99280626715683 10.256115384264689
S 1202.4296380504327 152.60899120482577 1202.4296380504327 116.90251542257094
s 8.736690882892141 -10.256115384264689 18.99280626715683 -10.256115384264689
S 1240.4152505847462 81.1960396403161 1240.4152505847462 116.90251542257094
z" fill="none" stroke="none"></path>
<circle cx="0" cy="0" r="5.628094575837546" fill="#b83128">
  <animateMotion begin="-1.0451165668634088s" dur="6s" repeatCount="indefinite">
    <mpath xlink:href="#path49"></mpath>
  </animateMotion>
</circle></g>
<style type="text/css">.lded > .content, .lded > .content > .inner { height: 100%; }
.lded > .content > .inner > .viewer { width: 100%; height: 100%; max-width: 100%; overflow: hidden }
.lded > .content > .inner > .panel {
  position: absolute;
  bottom: 50px;
  left: 0;
  right: 0;
  opacity: 0.3;
}
.lded > .content > .inner > .panel:hover { opacity: 1; }
.lded > .content > .inner > .ctrl {
  position: absolute;
  bottom: 13px;
  left: 0;
  right: 0;
  margin: auto;
}
.lded > .content > .inner > .ctrl:hover {
  z-index: 10;
}
#editor > .inner > .title {
  position: absolute;
  bottom: 195px;
  left: 0;
  right: 0;
  z-index: 11;
}
#editor > .inner > .title > a:first-child {
  margin-left: 0!important;
#editor .lded .viewer { border-radius: 0 }</style></svg>