<svg id="ej9l76osk2jj1" xmlns="http://www.w3.org/2000/svg" xmlns:xlink="http://www.w3.org/1999/xlink" viewBox="0 0 1600 800" shape-rendering="geometricPrecision" text-rendering="geometricPrecision"><rect id="ej9l76osk2jj2" width="1600" height="800" rx="0" ry="0" transform="matrix(1 0 0 1 -0.00000000000023 0.00000000000040)" fill="rgb(170,51,51)" stroke="none" stroke-width="1"/><path id="ej9l76osk2jj3" d="M1102.500000,734.800000C1105,733.600000,1127.300000,726.200000,1128.100000,727.300000C1128.600000,728,1124.200000,751.100000,1123.500000,751.800000C1123.300000,752.100000,1107.500000,739.500000,1102.500000,734.800000ZM1226.300000,229.100000C1226.300000,229,1221.400000,219.700000,1219.300000,214.900000C1219.200000,214.600000,1219,213.800000,1218.900000,213.300000C1218.800000,212.900000,1218.600000,212.600000,1218.300000,212.400000C1218,212.200000,1217.700000,212.300000,1217.500000,212.500000L1204.400000,224.800000C1204.400000,224.800000,1204.400000,224.800000,1204.400000,224.800000C1204.200000,225,1204.100000,225.300000,1204,225.600000C1204,225.900000,1204,226.300000,1204.200000,226.600000C1204.300000,226.700000,1205.600000,229.100000,1206.300000,230.200000C1208.700000,233.900000,1212.800000,242.300000,1212.800000,242.400000C1213,242.700000,1213.200000,242.900000,1213.500000,243C1213.800000,243,1214,242.900000,1214.200000,242.700000C1214.200000,242.700000,1216,240.200000,1216.900000,239.100000C1218.400000,237.500000,1219.900000,235.900000,1221.500000,234.400000C1222.700000,233.200000,1223.100000,233,1223.600000,232.800000C1224.100000,232.500000,1224.700000,232.300000,1226.100000,230.900000C1226.500000,230.400000,1226.600000,229.600000,1226.300000,229.100000ZM33,770.300000C33,770.300000,33,770.300000,33,770.300000C33,769.600000,32.500000,769.100000,31.800000,769.100000C31.700000,769.100000,31.500000,769.100000,31.400000,769.200000C29.800000,769.400000,17.100000,769.300000,9.200000,769.200000C8.900000,769.200000,8.600000,769.300000,8.300000,769.600000C8.100000,769.800000,7.900000,770.100000,7.900000,770.500000C7.900000,770.700000,7.900000,775.400000,8,776.400000L8.400000,790C8.400000,790.300000,8.600000,790.600000,8.800000,790.900000C9,791.100000,9.300000,791.200000,9.600000,791.200000C9.600000,791.200000,9.700000,791.200000,9.700000,791.200000C17,790.500000,24.400000,790.300000,31.700000,790.600000C32,790.600000,32.400000,790.500000,32.600000,790.300000C32.800000,790.100000,33,789.700000,33,789.400000C32.900000,783.300000,32.900000,776.200000,33,770.300000Z" transform="matrix(0.64938234497661 0.76046207665647 -0.76046207665647 0.64938234497661 776.53215934865386 -395.17213632205159)" fill="rgb(255,225,10)" stroke="none" stroke-width="1" stroke-linejoin="bevel"/><path id="ej9l76osk2jj4" d="M171.100000,383.400000C172.400000,380.900000,185.400000,361.400000,186.700000,361.800000C187.500000,362.100000,198.200000,383,198.200000,383.900000C198.100000,384.200000,177.900000,384,171.100000,383.400000ZM596.400000,711.800000C596.300000,711.700000,589.700000,703.600000,586.700000,699.300000C586.500000,699,586.200000,698.300000,586,697.800000C585.800000,697.400000,585.600000,697.100000,585.300000,697C585,696.900000,584.700000,697,584.500000,697.300000L574,712C574,712,574,712,574,712C573.800000,712.200000,573.800000,712.500000,573.800000,712.900000C573.800000,713.200000,574,713.600000,574.200000,713.800000C574.300000,713.900000,576,716,577,716.900000C580.100000,720,585.800000,727.400000,585.900000,727.500000C586.100000,727.800000,586.400000,727.900000,586.700000,727.900000C587,727.900000,587.200000,727.700000,587.300000,727.400000C587.300000,727.400000,588.500000,724.600000,589.300000,723.300000C590.400000,721.400000,591.600000,719.600000,592.800000,717.800000C593.700000,716.400000,594.100000,716.100000,594.500000,715.800000C595,715.400000,595.500000,715.100000,596.600000,713.400000C596.900000,713.100000,596.800000,712.300000,596.400000,711.800000ZM727.500000,179.900000C727.500000,179.900000,727.500000,179.900000,727.500000,179.900000C728.100000,180.100000,728.800000,179.700000,728.900000,179.100000C728.900000,179,728.900000,178.900000,728.900000,178.700000C729.100000,177.300000,731.700000,166.100000,733.400000,159.200000C733.500000,158.900000,733.400000,158.600000,733.200000,158.400000C733,158.100000,732.700000,158,732.400000,157.900000C732.200000,157.900000,727.700000,156.800000,726.700000,156.600000L713.300000,153.900000C713,153.800000,712.600000,153.900000,712.400000,154.100000C712.200000,154.300000,712,154.500000,711.900000,154.700000C711.900000,154.700000,711.900000,154.800000,711.900000,154.800000C711.100000,161.300000,709.700000,167.900000,708,174.200000C707.900000,174.500000,708,174.800000,708.200000,175.100000C708.400000,175.400000,708.700000,175.500000,709,175.600000C714.800000,176.900000,721.700000,178.500000,727.500000,179.900000ZM728.500000,178.100000C728.400000,178,728.300000,177.900000,728.100000,177.900000C728.300000,177.900000,728.400000,178,728.500000,178.100000Z" transform="matrix(1 0 0 1 525.24099744648413 -100.07244432702970)" fill="rgb(85,255,255)" stroke="none" stroke-width="1"/><g id="ej9l76osk2jj5"><path id="ej9l76osk2jj6" d="M699.600000,472.700000C698.100000,472.700000,696.800000,471.900000,696.100000,470.400000C695.300000,468.500000,696.100000,466.200000,698,465.400000C701.700000,463.800000,704.800000,460.700000,706.400000,456.900000C708,453.100000,708.100000,448.800000,706.600000,445C706.300000,444.100000,705.800000,443.200000,705.400000,442.200000C704.600000,440.500000,703.600000,438.500000,703.100000,436.300000C702.200000,432.200000,702.900000,427.700000,705.100000,423.500000C706.800000,420.400000,709.200000,417.400000,712.700000,414.400000C714.300000,413,716.700000,413.200000,718,414.800000C719.400000,416.400000,719.200000,418.800000,717.600000,420.100000C714.800000,422.600000,712.900000,424.800000,711.700000,427.100000C710.300000,429.700000,709.800000,432.400000,710.400000,434.700000C710.700000,436.100000,711.400000,437.500000,712.100000,439C712.600000,440.100000,713.100000,441.200000,713.600000,442.300000C715.700000,447.900000,715.600000,454.300000,713.300000,459.900000C711,465.400000,706.500000,470,701,472.400000C700.600000,472.600000,700.100000,472.700000,699.600000,472.700000ZM740.400000,421.400000C741.900000,421.200000,743.400000,421.900000,744.200000,423.300000C745.300000,425.100000,744.600000,427.500000,742.800000,428.600000C739.100000,430.700000,736.400000,434.200000,735.200000,438.100000C734,442.100000,734.400000,446.500000,736.300000,450.200000C736.700000,451.100000,737.300000,451.900000,737.900000,452.900000C738.900000,454.600000,740.100000,456.400000,740.900000,458.600000C742.300000,462.600000,742.100000,467.300000,740.300000,471.800000C738.900000,475.200000,736.800000,478.400000,733.500000,481.900000C732,483.500000,729.600000,483.600000,728,482.100000C726.400000,480.700000,726.300000,478.200000,727.800000,476.700000C730.400000,473.900000,732.100000,471.400000,733.100000,469C734.200000,466.200000,734.400000,463.400000,733.600000,461.100000C733.100000,459.800000,732.300000,458.400000,731.400000,457C730.800000,456,730.100000,454.900000,729.500000,453.800000C726.700000,448.400000,726.100000,441.900000,727.800000,436C729.600000,430.100000,733.600000,425,739,422C739.400000,421.600000,739.900000,421.400000,740.400000,421.400000ZM261.300000,590.900000C267,597.700000,270.300000,606.600000,270.700000,613.300000C271.200000,620.600000,268.300000,629.700000,260.500000,633.700000C257.500000,635.200000,253.800000,635.900000,249.300000,635.900000C241.400000,635.800000,236.400000,633,233.900000,627.500000C231.800000,622.800000,231.600000,616.100000,235.700000,611.600000C238.900000,608.100000,243.500000,607.500000,246.900000,610C248.100000,610.900000,248.400000,612.700000,247.500000,613.900000C246.600000,615.100000,244.800000,615.400000,243.600000,614.500000C241.800000,613.200000,240,615.100000,239.800000,615.300000C237.400000,617.900000,237.700000,622.300000,239,625.200000C240.500000,628.600000,243.700000,630.200000,249.400000,630.300000C253,630.300000,255.800000,629.800000,258,628.700000C262.700000,626.300000,265.700000,620.100000,265.200000,613.700000C264.700000,606.400000,259.900000,595.500000,252.200000,589.800000C248,586.700000,243.700000,585.700000,239.300000,586.700000C236.200000,587.400000,233.100000,589.100000,229.600000,591.700000C223,596.800000,217.900000,603.500000,215.400000,610.700000C212.700000,618.400000,213.300000,626.500000,217.300000,634.600000C218,636,217.400000,637.700000,216,638.300000C214.600000,639,212.900000,638.400000,212.300000,637C207.700000,627.600000,206.900000,617.800000,210.100000,608.800000C213,600.600000,218.700000,592.900000,226.200000,587.200000C230.300000,584.100000,234.200000,582.100000,238,581.200000C244,579.800000,250,581.200000,255.500000,585.200000C257.600000,586.900000,259.600000,588.800000,261.300000,590.900000Z" transform="matrix(1 0 0 1 676.21074115467582 -165.27399704151787)" fill="rgb(255,255,255)" stroke="none" stroke-width="1"/><path id="ej9l76osk2jj7" d="M1508.700000,297.200000C1503.900000,291.800000,1499,286.400000,1493.900000,281C1499.500000,275.400000,1505,269.500000,1509.500000,262.800000C1510.700000,261.100000,1510.200000,258.700000,1508.500000,257.600000C1506.800000,256.400000,1504.400000,256.900000,1503.300000,258.600000C1499.100000,264.800000,1494.200000,270.200000,1488.800000,275.500000C1484,270.500000,1479.100000,265.500000,1474.100000,260.600000C1472.600000,259.100000,1470.200000,259.100000,1468.800000,260.600000C1467.300000,262.100000,1467.300000,264.500000,1468.800000,265.900000C1473.700000,270.700000,1478.500000,275.700000,1483.300000,280.700000C1482.200000,281.800000,1481,282.900000,1479.800000,283.900000C1475.700000,287.700000,1471.400000,291.700000,1467.400000,295.900000C1466,297.400000,1466,299.700000,1467.400000,301.200000C1467.400000,301.200000,1467.400000,301.200000,1467.400000,301.200000C1468.900000,302.600000,1471.300000,302.600000,1472.700000,301.100000C1476.600000,297.100000,1480.800000,293.200000,1484.800000,289.400000C1486,288.300000,1487.100000,287.200000,1488.300000,286.100000C1493.200000,291.400000,1498.100000,296.700000,1502.900000,302C1503,302.100000,1503,302.100000,1503.100000,302.200000C1504.500000,303.600000,1506.800000,303.700000,1508.300000,302.400000C1510,301.200000,1510.100000,298.800000,1508.700000,297.200000ZM327.600000,248.600000L327.200000,246C325.700000,234.900000,325,222.800000,324.900000,209C324.900000,203.500000,324.900000,197.500000,325.100000,190.500000C325.100000,189.800000,325.100000,189,325.100000,188.200000C325.100000,183.200000,325.100000,177,329,174.700000C331.200000,173.400000,334.100000,173.700000,337.500000,175.600000C343.200000,178.700000,350.700000,184.300000,355,190.500000C360.500000,198.300000,362.300000,207.400000,360,216.200000C356.800000,228.500000,345,247.200000,330,248.300000L327.600000,248.600000ZM332.100000,179.200000C331.900000,179.200000,331.800000,179.200000,331.700000,179.300000C331.600000,179.400000,331,179.800000,330.600000,182C330.300000,183.900000,330.300000,186.200000,330.300000,188.300000C330.300000,189.100000,330.300000,190,330.300000,190.700000C330.100000,197.600000,330.100000,203.500000,330.100000,209C330.200000,221.500000,330.800000,232.500000,332.100000,242.700000C343.100000,240,352.500000,224.600000,355.100000,214.900000C357,207.700000,355.500000,200.100000,350.900000,193.600000L350.900000,193.600000C347,188.100000,340,183,335,180.300000C333.600000,179.500000,332.600000,179.200000,332.100000,179.200000ZM516.300000,60.800000C516.200000,60.800000,516.100000,60.800000,515.900000,60.700000C513.500000,60,511.900000,59.800000,509.200000,60C508.500000,60,507.900000,59.500000,507.800000,58.800000C507.800000,58.100000,508.300000,57.500000,509,57.400000C512.100000,57.200000,513.900000,57.400000,516.600000,58.200000C517.300000,58.400000,517.700000,59.100000,517.500000,59.800000C517.300000,60.400000,516.800000,60.800000,516.300000,60.800000ZM506.100000,70.500000C505.600000,70.500000,505.100000,70.200000,504.900000,69.700000C504.100000,67.600000,503.700000,65.400000,503.600000,63.100000C503.600000,62.400000,504.100000,61.800000,504.800000,61.800000C505.500000,61.800000,506.100000,62.300000,506.100000,63C506.200000,65,506.600000,66.900000,507.200000,68.800000C507.400000,69.500000,507.100000,70.200000,506.400000,70.400000C506.400000,70.500000,506.200000,70.500000,506.100000,70.500000ZM494.100000,64.400000C493.700000,64.400000,493.300000,64.200000,493.100000,63.900000C492.700000,63.300000,492.800000,62.500000,493.300000,62.100000C495.100000,60.700000,497,59.500000,499.100000,58.500000C499.700000,58.200000,500.500000,58.500000,500.800000,59.100000C501.100000,59.700000,500.800000,60.500000,500.200000,60.800000C498.300000,61.700000,496.500000,62.800000,494.900000,64.100000C494.700000,64.300000,494.400000,64.400000,494.100000,64.400000ZM500.500000,55.300000C500,55.300000,499.600000,55,499.300000,54.600000C498.800000,53.600000,498.100000,52.700000,496.900000,51.200000C496.600000,50.800000,496.200000,50.300000,495.800000,49.800000C495.400000,49.200000,495.500000,48.400000,496,48C496.600000,47.600000,497.400000,47.700000,497.800000,48.200000C498.200000,48.700000,498.600000,49.200000,498.900000,49.600000C500.200000,51.200000,501,52.200000,501.600000,53.500000C501.900000,54.100000,501.600000,54.900000,501,55.200000C500.900000,55.300000,500.700000,55.300000,500.500000,55.300000ZM506.700000,55C506.400000,55,506.200000,54.900000,505.900000,54.800000C505.300000,54.400000,505.200000,53.600000,505.600000,53C506.800000,51.300000,507.900000,49.600000,508.900000,47.800000C509.200000,47.200000,510,46.900000,510.600000,47.300000C511.200000,47.600000,511.500000,48.400000,511.100000,49C510.100000,50.900000,508.900000,52.800000,507.600000,54.600000C507.400000,54.800000,507.100000,55,506.700000,55ZM1029.300000,382.800000C1029.200000,382.800000,1029.100000,382.800000,1028.900000,382.700000C1026.500000,382,1024.900000,381.800000,1022.200000,382C1021.500000,382,1020.900000,381.500000,1020.800000,380.800000C1020.800000,380.100000,1021.300000,379.500000,1022,379.400000C1025.100000,379.200000,1026.900000,379.400000,1029.600000,380.200000C1030.300000,380.400000,1030.700000,381.100000,1030.500000,381.800000C1030.300000,382.400000,1029.800000,382.800000,1029.300000,382.800000ZM1019.100000,392.500000C1018.600000,392.500000,1018.100000,392.200000,1017.900000,391.700000C1017.100000,389.600000,1016.700000,387.400000,1016.600000,385.100000C1016.600000,384.400000,1017.100000,383.800000,1017.800000,383.800000C1018.500000,383.800000,1019.100000,384.300000,1019.100000,385C1019.200000,387,1019.600000,388.900000,1020.200000,390.800000C1020.400000,391.500000,1020.100000,392.200000,1019.400000,392.400000C1019.400000,392.500000,1019.200000,392.500000,1019.100000,392.500000ZM1007.100000,386.400000C1006.700000,386.400000,1006.300000,386.200000,1006.100000,385.900000C1005.700000,385.300000,1005.800000,384.500000,1006.300000,384.100000C1008.100000,382.700000,1010,381.500000,1012.100000,380.500000C1012.700000,380.200000,1013.500000,380.500000,1013.800000,381.100000C1014.100000,381.700000,1013.800000,382.500000,1013.200000,382.800000C1011.300000,383.700000,1009.500000,384.800000,1007.900000,386.100000C1007.700000,386.300000,1007.400000,386.400000,1007.100000,386.400000ZM1013.500000,377.300000C1013,377.300000,1012.600000,377,1012.300000,376.600000C1011.800000,375.600000,1011.100000,374.700000,1009.900000,373.200000C1009.600000,372.800000,1009.200000,372.300000,1008.800000,371.800000C1008.400000,371.200000,1008.500000,370.400000,1009,370C1009.600000,369.600000,1010.400000,369.700000,1010.800000,370.200000C1011.200000,370.700000,1011.600000,371.200000,1011.900000,371.600000C1013.200000,373.200000,1014,374.200000,1014.600000,375.500000C1014.900000,376.100000,1014.600000,376.900000,1014,377.200000C1013.900000,377.300000,1013.700000,377.300000,1013.500000,377.300000ZM1019.700000,377C1019.400000,377,1019.200000,376.900000,1018.900000,376.800000C1018.300000,376.400000,1018.200000,375.600000,1018.600000,375C1019.800000,373.300000,1020.900000,371.600000,1021.900000,369.800000C1022.200000,369.200000,1023,368.900000,1023.600000,369.300000C1024.200000,369.600000,1024.500000,370.400000,1024.100000,371C1023.100000,372.900000,1021.900000,374.800000,1020.600000,376.600000C1020.400000,376.800000,1020.100000,377,1019.700000,377ZM1329.700000,573.400000C1328.300000,573.400000,1326.800000,573.200000,1325.200000,572.700000C1316.800000,570,1308.600000,560,1306.500000,552.700000C1306.100000,551.300000,1305.800000,549.800000,1305.600000,548.300000C1297.500000,551.600000,1290.100000,558.900000,1290.200000,569.300000C1290.200000,570.800000,1289,572,1287.500000,572.100000C1287.500000,572.100000,1287.500000,572.100000,1287.500000,572.100000C1286,572.100000,1284.800000,570.900000,1284.800000,569.400000C1284.700000,562.700000,1287.200000,556.500000,1291.800000,551.400000C1295.400000,547.400000,1300.200000,544.300000,1305.500000,542.600000C1306,536.100000,1308.600000,529.700000,1312.900000,525.200000C1319.900000,517.800000,1331.100000,516.300000,1340.200000,515.100000L1340.900000,515C1342.400000,514.800000,1343.800000,515.900000,1344,517.300000C1344.200000,518.800000,1343.100000,520.200000,1341.700000,520.400000L1341,520.500000C1332.400000,521.700000,1322.600000,523,1317,528.900000C1314,532.100000,1312,536.600000,1311.300000,541.300000C1319.200000,540.300000,1329,542.600000,1335.600000,547C1339.900000,549.900000,1342.700000,554.800000,1342.800000,559.700000C1343,564,1341.100000,568,1337.600000,570.800000C1335.200000,572.400000,1332.600000,573.400000,1329.700000,573.400000ZM1311,546.700000C1311.100000,548.200000,1311.400000,549.700000,1311.800000,551.100000C1313.500000,556.900000,1320.500000,565.300000,1326.900000,567.400000C1329.700000,568.300000,1332,567.900000,1334.100000,566.300000C1336.800000,564.200000,1337.300000,561.500000,1337.200000,559.700000C1337.100000,556.500000,1335.200000,553.300000,1332.400000,551.400000C1326.700000,547.500000,1317.700000,545.600000,1311,546.700000Z" transform="matrix(-0.99769948612203 0.06779185343272 -0.06779185343272 -0.99769948612203 1833.52491273515125 718.91092767977977)" fill="rgb(255,255,255)" stroke="none" stroke-width="1"/></g><script><![CDATA[!function(t,n){"object"==typeof exports&&"undefined"!=typeof module?module.exports=n():"function"==typeof define&&define.amd?define(n):(t=t||self).__SVGATOR_PLAYER__=n()}(this,(function(){"use strict";function t(n){return(t="function"==typeof Symbol&&"symbol"==typeof Symbol.iterator?function(t){return typeof t}:function(t){return t&&"function"==typeof Symbol&&t.constructor===Symbol&&t!==Symbol.prototype?"symbol":typeof t})(n)}function n(t,n){if(!(t instanceof n))throw new TypeError("Cannot call a class as a function")}function r(t,n){for(var r=0;r<n.length;r++){var e=n[r];e.enumerable=e.enumerable||!1,e.configurable=!0,"value"in e&&(e.writable=!0),Object.defineProperty(t,e.key,e)}}function e(t,n,e){return n&&r(t.prototype,n),e&&r(t,e),t}function i(t){return(i=Object.setPrototypeOf?Object.getPrototypeOf:function(t){return t.__proto__||Object.getPrototypeOf(t)})(t)}function o(t,n){return(o=Object.setPrototypeOf||function(t,n){return t.__proto__=n,t})(t,n)}function u(t,n){return!n||"object"!=typeof n&&"function"!=typeof n?function(t){if(void 0===t)throw new ReferenceError("this hasn't been initialised - super() hasn't been called");return t}(t):n}function a(t){var n=function(){if("undefined"==typeof Reflect||!Reflect.construct)return!1;if(Reflect.construct.sham)return!1;if("function"==typeof Proxy)return!0;try{return Date.prototype.toString.call(Reflect.construct(Date,[],(function(){}))),!0}catch(t){return!1}}();return function(){var r,e=i(t);if(n){var o=i(this).constructor;r=Reflect.construct(e,arguments,o)}else r=e.apply(this,arguments);return u(this,r)}}function l(t,n,r){return(l="undefined"!=typeof Reflect&&Reflect.get?Reflect.get:function(t,n,r){var e=function(t,n){for(;!Object.prototype.hasOwnProperty.call(t,n)&&null!==(t=i(t)););return t}(t,n);if(e){var o=Object.getOwnPropertyDescriptor(e,n);return o.get?o.get.call(r):o.value}})(t,n,r||t)}var f=Math.abs;function s(t){return t}function c(t,n,r){var e=1-r;return 3*r*e*(t*e+n*r)+r*r*r}function h(){var t=arguments.length>0&&void 0!==arguments[0]?arguments[0]:0,n=arguments.length>1&&void 0!==arguments[1]?arguments[1]:0,r=arguments.length>2&&void 0!==arguments[2]?arguments[2]:1,e=arguments.length>3&&void 0!==arguments[3]?arguments[3]:1;return t<0||t>1||r<0||r>1?null:f(t-n)<=1e-5&&f(r-e)<=1e-5?s:function(i){if(i<=0)return t>0?i*n/t:0===n&&r>0?i*e/r:0;if(i>=1)return r<1?1+(i-1)*(e-1)/(r-1):1===r&&t<1?1+(i-1)*(n-1)/(t-1):1;for(var o,u=0,a=1;u<a;){var l=c(t,r,o=(u+a)/2);if(f(i-l)<1e-5)break;l<i?u=o:a=o}return c(n,e,o)}}function v(){return 1}function y(t){return 1===t?1:0}function d(){var t=arguments.length>0&&void 0!==arguments[0]?arguments[0]:1,n=arguments.length>1&&void 0!==arguments[1]?arguments[1]:0;if(1===t){if(0===n)return y;if(1===n)return v}var r=1/t;return function(t){return t>=1?1:(t+=n*r)-t%r}}function g(t){var n=arguments.length>1&&void 0!==arguments[1]?arguments[1]:2;if(Number.isInteger(t))return t;var r=Math.pow(10,n);return Math.round(t*r)/r}var p=Math.PI/180;function m(t,n,r){return t>=.5?r:n}function w(t,n,r){return 0===t||n===r?n:t*(r-n)+n}function b(t,n,r){var e=w(t,n,r);return e<=0?0:e}function k(t,n,r){return 0===t?n:1===t?r:{x:w(t,n.x,r.x),y:w(t,n.y,r.y)}}function x(t,n,r){var e=function(t,n,r){return Math.round(w(t,n,r))}(t,n,r);return e<=0?0:e>=255?255:e}function A(t,n,r){return 0===t?n:1===t?r:{r:x(t,n.r,r.r),g:x(t,n.g,r.g),b:x(t,n.b,r.b),a:w(t,null==n.a?1:n.a,null==r.a?1:r.a)}}function _(t,n,r){if(0===t)return n;if(1===t)return r;var e=n.length;if(e!==r.length)return m(t,n,r);for(var i=[],o=0;o<e;o++)i.push(A(t,n[o],r[o]));return i}function S(t,n){for(var r=[],e=0;e<t;e++)r.push(n);return r}function O(t,n){if(--n<=0)return t;var r=(t=Object.assign([],t)).length;do{for(var e=0;e<r;e++)t.push(t[e])}while(--n>0);return t}var M,j=function(){function t(r){n(this,t),this.list=r,this.length=r.length}return e(t,[{key:"setAttribute",value:function(t,n){for(var r=this.list,e=0;e<this.length;e++)r[e].setAttribute(t,n)}},{key:"removeAttribute",value:function(t){for(var n=this.list,r=0;r<this.length;r++)n[r].removeAttribute(t)}},{key:"style",value:function(t,n){for(var r=this.list,e=0;e<this.length;e++)r[e].style[t]=n}}]),t}(),F=/-./g,P=function(t,n){return n.toUpperCase()};function I(t){return"function"==typeof t?t:m}function q(t){return t?"function"==typeof t?t:Array.isArray(t)?function(t){var n=arguments.length>1&&void 0!==arguments[1]?arguments[1]:s;if(!Array.isArray(t))return n;switch(t.length){case 1:return d(t[0])||n;case 2:return d(t[0],t[1])||n;case 4:return h(t[0],t[1],t[2],t[3])||n}return n}(t,null):function(t,n){var r=arguments.length>2&&void 0!==arguments[2]?arguments[2]:s;switch(t){case"linear":return s;case"steps":return d(n.steps||1,n.jump||0)||r;case"bezier":case"cubic-bezier":return h(n.x1||0,n.y1||0,n.x2||0,n.y2||0)||r}return r}(t.type,t.value,null):null}function B(t,n,r){var e=arguments.length>3&&void 0!==arguments[3]&&arguments[3],i=n.length-1;if(t<=n[0].t)return e?[0,0,n[0].v]:n[0].v;if(t>=n[i].t)return e?[i,1,n[i].v]:n[i].v;var o,u=n[0],a=null;for(o=1;o<=i;o++){if(!(t>n[o].t)){a=n[o];break}u=n[o]}return null==a?e?[i,1,n[i].v]:n[i].v:u.t===a.t?e?[o,1,a.v]:a.v:(t=(t-u.t)/(a.t-u.t),u.e&&(t=u.e(t)),e?[o,t,r(t,u.v,a.v)]:r(t,u.v,a.v))}function R(t,n){var r=arguments.length>2&&void 0!==arguments[2]?arguments[2]:null;return t&&t.length?"function"!=typeof n?null:("function"!=typeof r&&(r=null),function(e){var i=B(e,t,n);return null!=i&&r&&(i=r(i)),i}):null}function E(t,n){return t.t-n.t}function T(n,r,e,i,o){var u,a="@"===e[0],l="#"===e[0],f=M[e],s=m;switch(a?(u=e.substr(1),e=u.replace(F,P)):l&&(e=e.substr(1)),t(f)){case"function":if(s=f(i,o,B,q,e,a,r,n),l)return s;break;case"string":s=R(i,I(f));break;case"object":if((s=R(i,I(f.i),f.f))&&"function"==typeof f.u)return f.u(r,s,e,a,n)}return s?function(t,n,r){var e=arguments.length>3&&void 0!==arguments[3]&&arguments[3];if(e)return t instanceof j?function(e){return t.style(n,r(e))}:function(e){return t.style[n]=r(e)};if(Array.isArray(n)){var i=n.length;return function(e){var o=r(e);if(null==o)for(var u=0;u<i;u++)t[u].removeAttribute(n);else for(var a=0;a<i;a++)t[a].setAttribute(n,o)}}return function(e){var i=r(e);null==i?t.removeAttribute(n):t.setAttribute(n,i)}}(r,e,s,a):null}function z(n,r,e,i){if(!i||"object"!==t(i))return null;var o=null,u=null;return Array.isArray(i)?u=function(t){if(!t||!t.length)return null;for(var n=0;n<t.length;n++)t[n].e&&(t[n].e=q(t[n].e));return t.sort(E)}(i):(u=i.keys,o=i.data||null),u?T(n,r,e,u,o):null}function C(t,n,r){if(!r)return null;var e=[];for(var i in r)if(r.hasOwnProperty(i)){var o=z(t,n,i,r[i]);o&&e.push(o)}return e.length?e:null}function D(t,n){if(!n.duration||n.duration<0)return null;var r=function(t,n){if(!n)return null;var r=[];if(Array.isArray(n))for(var e=n.length,i=0;i<e;i++){var o=n[i];if(2===o.length){var u=null;if("string"==typeof o[0])u=t.getElementById(o[0]);else if(Array.isArray(o[0])){u=[];for(var a=0;a<o[0].length;a++)if("string"==typeof o[0][a]){var l=t.getElementById(o[0][a]);l&&u.push(l)}u=u.length?1===u.length?u[0]:new j(u):null}if(u){var f=C(t,u,o[1]);f&&(r=r.concat(f))}}}else for(var s in n)if(n.hasOwnProperty(s)){var c=t.getElementById(s);if(c){var h=C(t,c,n[s]);h&&(r=r.concat(h))}}return r.length?r:null}(t,n.elements);return r?function(t,n){var r=arguments.length>2&&void 0!==arguments[2]?arguments[2]:1/0,e=arguments.length>3&&void 0!==arguments[3]?arguments[3]:1,i=arguments.length>4&&void 0!==arguments[4]&&arguments[4],o=arguments.length>5&&void 0!==arguments[5]?arguments[5]:1,u=t.length,a=e>0?n:0;i&&r%2==0&&(a=n-a);var l=null;return function(f,s){var c=f%n,h=1+(f-c)/n;s*=e,i&&h%2==0&&(s=-s);var v=!1;if(h>r)c=a,v=!0,-1===o&&(c=e>0?0:n);else if(s<0&&(c=n-c),c===l)return!1;l=c;for(var y=0;y<u;y++)t[y](c);return v}}(r,n.duration,n.iterations||1/0,n.direction||1,!!n.alternate,n.fill||1):null}function N(t,n){if(M=n,!t||!t.root||!Array.isArray(t.animations))return null;var r=window.document.getElementById(t.root);if(!r)return null;var e=t.animations.map((function(t){return D(r,t)})).filter((function(t){return!!t}));return e.length?{element:r,animations:e,animationSettings:t.animationSettings,options:t.options||void 0}:null}var L=function(){function t(r,e){var i=arguments.length>2&&void 0!==arguments[2]?arguments[2]:{};n(this,t),this._id=0,this._running=!1,this._rollingBack=!1,this._animations=r,this.duration=e.duration,this.alternate=e.alternate,this.fill=e.fill,this.iterations=e.iterations,this.direction=i.direction||1,this.speed=i.speed||1,this.fps=i.fps||100,this.offset=i.offset||0,this.rollbackStartOffset=0}return e(t,[{key:"_rollback",value:function(){var t=this,n=1/0,r=null;this.rollbackStartOffset=this.offset,this._rollingBack||(this._rollingBack=!0,this._running=!0);this._id=window.requestAnimationFrame((function e(i){if(t._rollingBack){null==r&&(r=i);var o=i-r,u=t.rollbackStartOffset-o,a=Math.round(u*t.speed);if(a>t.duration&&n!=1/0){var l=!!t.alternate&&a/t.duration%2>1,f=a%t.duration;a=(f+=l?t.duration:0)||t.duration}var s=t.fps?1e3/t.fps:0,c=Math.max(0,a);if(c<n-s){t.offset=c,n=c;for(var h=t._animations,v=h.length,y=0;y<v;y++)h[y](c,t.direction)}var d=!1;if(t.iterations>0&&-1===t.fill){var g=t.iterations*t.duration,p=g==a;a=p?0:a,t.offset=p?0:t.offset,d=a>g}a>0&&t.offset>=a&&!d?t._id=window.requestAnimationFrame(e):t.stop()}}))}},{key:"_start",value:function(){var t=this,n=arguments.length>0&&void 0!==arguments[0]?arguments[0]:0,r=-1/0,e=null,i={},o=function o(u){t._running=!0,null==e&&(e=u);var a=Math.round((u-e+n)*t.speed),l=t.fps?1e3/t.fps:0;if(a>r+l&&!t._rollingBack){t.offset=a,r=a;for(var f=t._animations,s=f.length,c=0,h=0;h<s;h++)i[h]?c++:(i[h]=f[h](a,t.direction),i[h]&&c++);if(c===s)return void t._stop()}t._id=window.requestAnimationFrame(o)};this._id=window.requestAnimationFrame(o)}},{key:"_stop",value:function(){this._id&&window.cancelAnimationFrame(this._id),this._running=!1,this._rollingBack=!1}},{key:"play",value:function(){!this._rollingBack&&this._running||(this._rollingBack=!1,this.rollbackStartOffset>this.duration&&(this.offset=this.rollbackStartOffset-(this.rollbackStartOffset-this.offset)%this.duration,this.rollbackStartOffset=0),this._start(this.offset))}},{key:"stop",value:function(){this._stop(),this.offset=0,this.rollbackStartOffset=0;var t=this.direction,n=this._animations;window.requestAnimationFrame((function(){for(var r=0;r<n.length;r++)n[r](0,t)}))}},{key:"reachedToEnd",value:function(){return this.iterations>0&&this.offset>=this.iterations*this.duration}},{key:"restart",value:function(){this._stop(),this.offset=0,this._start()}},{key:"pause",value:function(){this._stop()}},{key:"reverse",value:function(){this.direction=-this.direction}}],[{key:"build",value:function(n,r){return(n=N(n,r))?{el:n.element,options:n.options||{},player:new t(n.animations,n.animationSettings,n.options)}:null}}]),t}();!function(){for(var t=0,n=["ms","moz","webkit","o"],r=0;r<n.length&&!window.requestAnimationFrame;++r)window.requestAnimationFrame=window[n[r]+"RequestAnimationFrame"],window.cancelAnimationFrame=window[n[r]+"CancelAnimationFrame"]||window[n[r]+"CancelRequestAnimationFrame"];window.requestAnimationFrame||(window.requestAnimationFrame=function(n){var r=Date.now(),e=Math.max(0,16-(r-t)),i=window.setTimeout((function(){n(r+e)}),e);return t=r+e,i},window.cancelAnimationFrame=window.clearTimeout)}();var V=/\.0+$/g;function $(t){return Number.isInteger(t)?t+"":t.toFixed(6).replace(V,"")}function G(t){return t?null==t.a||t.a>=1?"rgb("+t.r+","+t.g+","+t.b+")":"rgba("+t.r+","+t.g+","+t.b+","+t.a+")":"transparent"}var H={f:null,i:function(t,n,r){return 0===t?n:1===t?r:{x:b(t,n.x,r.x),y:b(t,n.y,r.y)}},u:function(t,n){return function(r){var e=n(r);t.setAttribute("rx",$(e.x)),t.setAttribute("ry",$(e.y))}}},Q={f:null,i:function(t,n,r){return 0===t?n:1===t?r:{width:b(t,n.width,r.width),height:b(t,n.height,r.height)}},u:function(t,n){return function(r){var e=n(r);t.setAttribute("width",$(e.width)),t.setAttribute("height",$(e.height))}}},U=Math.sin,Y=Math.cos,Z=Math.acos,J=Math.asin,K=Math.tan,W=Math.atan2,X=Math.PI/180,tt=180/Math.PI,nt=Math.sqrt,rt=function(){function t(){var r=arguments.length>0&&void 0!==arguments[0]?arguments[0]:1,e=arguments.length>1&&void 0!==arguments[1]?arguments[1]:0,i=arguments.length>2&&void 0!==arguments[2]?arguments[2]:0,o=arguments.length>3&&void 0!==arguments[3]?arguments[3]:1,u=arguments.length>4&&void 0!==arguments[4]?arguments[4]:0,a=arguments.length>5&&void 0!==arguments[5]?arguments[5]:0;n(this,t),this.m=[r,e,i,o,u,a],this.i=null,this.w=null,this.s=null}return e(t,[{key:"point",value:function(t,n){var r=this.m;return{x:r[0]*t+r[2]*n+r[4],y:r[1]*t+r[3]*n+r[5]}}},{key:"translateSelf",value:function(){var t=arguments.length>0&&void 0!==arguments[0]?arguments[0]:0,n=arguments.length>1&&void 0!==arguments[1]?arguments[1]:0;if(!t&&!n)return this;var r=this.m;return r[4]+=r[0]*t+r[2]*n,r[5]+=r[1]*t+r[3]*n,this.w=this.s=this.i=null,this}},{key:"rotateSelf",value:function(){var t=arguments.length>0&&void 0!==arguments[0]?arguments[0]:0;if(t%=360){var n=U(t*=X),r=Y(t),e=this.m,i=e[0],o=e[1];e[0]=i*r+e[2]*n,e[1]=o*r+e[3]*n,e[2]=e[2]*r-i*n,e[3]=e[3]*r-o*n,this.w=this.s=this.i=null}return this}},{key:"scaleSelf",value:function(){var t=arguments.length>0&&void 0!==arguments[0]?arguments[0]:1,n=arguments.length>1&&void 0!==arguments[1]?arguments[1]:1;if(1!==t||1!==n){var r=this.m;r[0]*=t,r[1]*=t,r[2]*=n,r[3]*=n,this.w=this.s=this.i=null}return this}},{key:"skewSelf",value:function(t,n){if(n%=360,(t%=360)||n){var r=this.m,e=r[0],i=r[1],o=r[2],u=r[3];t&&(t=K(t*X),r[2]+=e*t,r[3]+=i*t),n&&(n=K(n*X),r[0]+=o*n,r[1]+=u*n),this.w=this.s=this.i=null}return this}},{key:"resetSelf",value:function(){var t=arguments.length>0&&void 0!==arguments[0]?arguments[0]:1,n=arguments.length>1&&void 0!==arguments[1]?arguments[1]:0,r=arguments.length>2&&void 0!==arguments[2]?arguments[2]:0,e=arguments.length>3&&void 0!==arguments[3]?arguments[3]:1,i=arguments.length>4&&void 0!==arguments[4]?arguments[4]:0,o=arguments.length>5&&void 0!==arguments[5]?arguments[5]:0,u=this.m;return u[0]=t,u[1]=n,u[2]=r,u[3]=e,u[4]=i,u[5]=o,this.w=this.s=this.i=null,this}},{key:"recomposeSelf",value:function(){var t=arguments.length>0&&void 0!==arguments[0]?arguments[0]:null,n=arguments.length>1&&void 0!==arguments[1]?arguments[1]:null,r=arguments.length>2&&void 0!==arguments[2]?arguments[2]:null,e=arguments.length>3&&void 0!==arguments[3]?arguments[3]:null,i=arguments.length>4&&void 0!==arguments[4]?arguments[4]:null;return this.isIdentity||this.resetSelf(),t&&(t.x||t.y)&&this.translateSelf(t.x,t.y),n&&this.rotateSelf(n),r&&(r.x&&this.skewSelf(r.x,0),r.y&&this.skewSelf(0,r.y)),!e||1===e.x&&1===e.y||this.scaleSelf(e.x,e.y),i&&(i.x||i.y)&&this.translateSelf(i.x,i.y),this}},{key:"decompose",value:function(){var t=arguments.length>0&&void 0!==arguments[0]?arguments[0]:0,n=arguments.length>1&&void 0!==arguments[1]?arguments[1]:0,r=this.m,e=r[0]*r[0]+r[1]*r[1],i=[[r[0],r[1]],[r[2],r[3]]],o=nt(e);if(0===o)return{origin:{x:r[4],y:r[5]},translate:{x:t,y:n},scale:{x:0,y:0},skew:{x:0,y:0},rotate:0};i[0][0]/=o,i[0][1]/=o;var u=r[0]*r[3]-r[1]*r[2]<0;u&&(o=-o);var a=i[0][0]*i[1][0]+i[0][1]*i[1][1];i[1][0]-=i[0][0]*a,i[1][1]-=i[0][1]*a;var l=nt(i[1][0]*i[1][0]+i[1][1]*i[1][1]);if(0===l)return{origin:{x:r[4],y:r[5]},translate:{x:t,y:n},scale:{x:o,y:0},skew:{x:0,y:0},rotate:0};i[1][0]/=l,i[1][1]/=l,a/=l;var f=0;return i[1][1]<0?(f=Z(i[1][1])*tt,i[0][1]<0&&(f=360-f)):f=J(i[0][1])*tt,u&&(f=-f),a=W(a,nt(i[0][0]*i[0][0]+i[0][1]*i[0][1]))*tt,{origin:{x:r[4],y:r[5]},translate:{x:t,y:n},scale:{x:o,y:l},skew:{x:a,y:0},rotate:f}}},{key:"toString",value:function(){return null===this.s&&(this.s="matrix("+this.m.map(it).join(" ")+")"),this.s}},{key:"determinant",get:function(){var t=this.m;return t[0]*t[3]-t[1]*t[2]}},{key:"isIdentity",get:function(){if(null===this.i){var t=this.m;this.i=1===t[0]&&0===t[1]&&0===t[2]&&1===t[3]&&0===t[4]&&0===t[5]}return this.i}}]),t}(),et=/\.0+$/;function it(t){return Number.isInteger(t)?t:t.toFixed(14).replace(et,"")}Object.freeze({M:2,L:2,Z:0,H:1,V:1,C:6,Q:4,T:2,S:4,A:7});function ot(t,n,r){return t+(n-t)*r}function ut(t,n,r){var e=arguments.length>3&&void 0!==arguments[3]&&arguments[3],i={x:ot(t.x,n.x,r),y:ot(t.y,n.y,r)};return e&&(i.a=at(t,n)),i}function at(t,n){return Math.atan2(n.y-t.y,n.x-t.x)}function lt(t,n,r,e){var i=1-e;return i*i*t+2*i*e*n+e*e*r}function ft(t,n,r,e){return 2*(1-e)*(n-t)+2*e*(r-n)}function st(t,n,r,e){var i=arguments.length>4&&void 0!==arguments[4]&&arguments[4],o={x:lt(t.x,n.x,r.x,e),y:lt(t.y,n.y,r.y,e)};return i&&(o.a=ct(t,n,r,e)),o}function ct(t,n,r,e){return Math.atan2(ft(t.y,n.y,r.y,e),ft(t.x,n.x,r.x,e))}function ht(t,n,r,e,i){var o=i*i;return i*o*(e-t+3*(n-r))+3*o*(t+r-2*n)+3*i*(n-t)+t}function vt(t,n,r,e,i){var o=1-i;return 3*(o*o*(n-t)+2*o*i*(r-n)+i*i*(e-r))}function yt(t,n,r,e,i){var o=arguments.length>5&&void 0!==arguments[5]&&arguments[5],u={x:ht(t.x,n.x,r.x,e.x,i),y:ht(t.y,n.y,r.y,e.y,i)};return o&&(u.a=dt(t,n,r,e,i)),u}function dt(t,n,r,e,i){return Math.atan2(vt(t.y,n.y,r.y,e.y,i),vt(t.x,n.x,r.x,e.x,i))}function gt(t,n,r){var e=arguments.length>3&&void 0!==arguments[3]&&arguments[3];if(mt(n)){if(wt(r))return st(n,r.start,r,t,e)}else if(mt(r)){if(n.end)return st(n,n.end,r,t,e)}else{if(n.end)return r.start?yt(n,n.end,r.start,r,t,e):st(n,n.end,r,t,e);if(r.start)return st(n,r.start,r,t,e)}return ut(n,r,t,e)}function pt(t,n,r){var e=gt(t,n,r,!0);return e.a=function(t){var n=arguments.length>1&&void 0!==arguments[1]&&arguments[1];return n?t+Math.PI:t}(e.a)/p,e}function mt(t){return!t.type||"corner"===t.type}function wt(t){return null!=t.start&&!mt(t)}var bt=new rt;var kt={f:$,i:w},xt={f:$,i:function(t,n,r){var e=w(t,n,r);return e<=0?0:e>=1?1:e}};function At(t,n,r,e,i,o,u,a){return n=function(t,n,r){for(var e,i,o,u=t.length-1,a={},l=0;l<=u;l++)(e=t[l]).e&&(e.e=n(e.e)),e.v&&"g"===(i=e.v).t&&i.r&&(o=r.getElementById(i.r))&&(a[i.r]=o.querySelectorAll("stop"));return a}(t,e,a),function(e){var i,o=r(e,t,_t);return o?"c"===o.t?G(o.v):"g"===o.t?(n[o.r]&&function(t,n){for(var r=0,e=t.length;r<e;r++)t[r].setAttribute("stop-color",G(n[r]))}(n[o.r],o.v),(i=o.r)?"url(#"+i+")":"none"):"none":"none"}}function _t(t,n,r){if(0===t)return n;if(1===t)return r;if(n&&r){var e=n.t;if(e===r.t)switch(n.t){case"c":return{t:e,v:A(t,n.v,r.v)};case"g":if(n.r===r.r)return{t:e,v:_(t,n.v,r.v),r:n.r}}}return m(t,n,r)}var St={fill:At,"fill-opacity":xt,stroke:At,"stroke-opacity":xt,"stroke-width":kt,"stroke-dashoffset":{f:$,i:w},"stroke-dasharray":{f:function(t){var n=arguments.length>1&&void 0!==arguments[1]?arguments[1]:" ";return t&&t.length?t.map($).join(n):""},i:function(t,n,r){var e,i,o,u=n.length,a=r.length;if(u!==a)if(0===u)n=S(u=a,0);else if(0===a)a=u,r=S(u,0);else{var l=(o=(e=u)*(i=a)/function(t,n){for(var r;n;)r=n,n=t%n,t=r;return t||1}(e,i))<0?-o:o;n=O(n,Math.floor(l/u)),r=O(r,Math.floor(l/a)),u=a=l}for(var f=[],s=0;s<u;s++)f.push(g(b(t,n[s],r[s]),6));return f}},opacity:xt,transform:function(n,r,e,i){if(!(n=function(n,r){if(!n||"object"!==t(n))return null;var e=!1;for(var i in n)n.hasOwnProperty(i)&&(n[i]&&n[i].length?(n[i].forEach((function(t){t.e&&(t.e=r(t.e))})),e=!0):delete n[i]);return e?n:null}(n,i)))return null;var o=function(t,i,o){var u=arguments.length>3&&void 0!==arguments[3]?arguments[3]:null;return n[t]?e(i,n[t],o):r&&r[t]?r[t]:u};return r&&r.a&&n.o?function(t){var r=e(t,n.o,pt);return bt.recomposeSelf(r,o("r",t,w,0)+r.a,o("k",t,k),o("s",t,k),o("t",t,k)).toString()}:function(t){return bt.recomposeSelf(o("o",t,gt,null),o("r",t,w,0),o("k",t,k),o("s",t,k),o("t",t,k)).toString()}},r:kt,"#size":Q,"#radius":H,_:function(t,n){if(Array.isArray(t))for(var r=0;r<t.length;r++)this[t[r]]=n;else this[t]=n}};return function(t){!function(t,n){if("function"!=typeof n&&null!==n)throw new TypeError("Super expression must either be null or a function");t.prototype=Object.create(n&&n.prototype,{constructor:{value:t,writable:!0,configurable:!0}}),n&&o(t,n)}(u,t);var r=a(u);function u(){return n(this,u),r.apply(this,arguments)}return e(u,null,[{key:"build",value:function(t){var n=l(i(u),"build",this).call(this,t,St),r=(n.el,n.options,n.player);return function(t){t.play()}(r),r}}]),u}(L)}));
__SVGATOR_PLAYER__.build({"root":"ej9l76osk2jj1","animations":[{"duration":10000,"direction":-1,"iterations":0,"fill":1,"alternate":true,"elements":{"ej9l76osk2jj3":{"transform":{"data":{"o":{"x":795.7642229699998,"y":399.99999999999994,"type":"corner"},"t":{"x":-617.1872166599993,"y":-501.74549150499985}},"keys":{"r":[{"t":0,"v":720},{"t":10000,"v":769.5049504950495}]}}},"ej9l76osk2jj4":{"transform":{"data":{"t":{"x":-452.2696228027344,"y":-440.88038635253906}},"keys":{"o":[{"t":0,"v":{"x":463.556554397734,"y":464.7923343225392,"type":"corner"}},{"t":10000,"v":{"x":977.5106202492185,"y":340.80794202550936,"a":-13.56269295647105}}]}}},"ej9l76osk2jj6":{"transform":{"data":{"t":{"x":-476.44659423828125,"y":-526.0286102294922}},"keys":{"o":[{"t":0,"v":{"x":476.44659423828125,"y":526.0286102294922,"type":"cusp","end":{"x":1058.4734929702458,"y":762.8140697244819}}},{"t":10000,"v":{"x":1152.657335392957,"y":360.7546131879743,"a":-150.29716502091338}}]}}},"ej9l76osk2jj7":{"transform":{"data":{"a":1,"t":{"x":-917.529541015625,"y":-310.25894927978516}},"keys":{"o":[{"t":0,"v":{"x":908.712625015625,"y":375.4522464347854,"type":"corner","a":96.90491083518093}},{"t":10000,"v":{"x":897.0731319463181,"y":471.5667615833002,"a":96.90491083518093}}],"r":[{"t":0,"v":0},{"t":10000,"v":79.20792079207921}]}}}}}],"options":{"start":"load","hover":"freeze","click":"freeze","scroll":25,"exportedIds":"unique","title":"Confetti-Doodles"},"animationSettings":{"duration":10000,"direction":-1,"iterations":0,"fill":1,"alternate":true}})]]></script></svg>